<?xml version="1.0" standalone="no"?>
<!DOCTYPE svg PUBLIC "-//W3C//DTD SVG 1.1//EN" "http://www.w3.org/Graphics/SVG/1.1/DTD/svg11.dtd" >
<svg>
<metadata>
Created by FontForge 20090914 at Tue Mar 23 11:23:05 2021
 By www-data
Copyright (c) ParaGraph Intl., 1990-1995. All Rights Reserved. ITC Franklin Gothic is a registered trade mark of International Typeface Corporation.
</metadata>
<defs>
<font id="FranklinGothicBookC-Italic" horiz-adv-x="1253" >
  <font-face 
    font-family="FranklinGothBookCTT"
    font-weight="400"
    font-style="italic"
    font-stretch="normal"
    units-per-em="2048"
    panose-1="0 0 0 0 0 0 0 0 0 0"
    ascent="1638"
    descent="-410"
    x-height="1044"
    cap-height="1404"
    bbox="-260 -392.999 2108.99 1822"
    underline-thickness="81"
    underline-position="-123"
    slope="9"
    unicode-range="U+0020-U+F002"
  />
<missing-glyph horiz-adv-x="900" 
d="M100 0v1024h800v-1024h-800zM110 10h780v1004h-780v-1004z" />
    <glyph glyph-name=".notdef" horiz-adv-x="900" 
d="M100 0v1024h800v-1024h-800zM110 10h780v1004h-780v-1004z" />
    <glyph glyph-name="space" unicode=" " horiz-adv-x="477" 
 />
    <glyph glyph-name="space" unicode="&#x45d;" horiz-adv-x="477" 
 />
    <glyph glyph-name="space" unicode="&#x40d;" horiz-adv-x="477" 
 />
    <glyph glyph-name="space" unicode="&#xa0;" horiz-adv-x="477" 
 />
    <glyph glyph-name="exclam" unicode="!" horiz-adv-x="563" 
d="M540 1404l-248 -1054h-88l95 1054h241zM337 217l-34 -217h-213l34 217h213z" />
    <glyph glyph-name="quotedbl" unicode="&#x22;" horiz-adv-x="649" 
d="M294 874h-94l60 530h153zM569 874h-94l59 530h154z" />
    <glyph glyph-name="numbersign" unicode="#" horiz-adv-x="1271" 
d="M718 0h-141l147 423h-270l-147 -423h-142l148 423h-223l20 129h250l108 326h-223l21 129h250l139 397h141l-139 -397h270l140 397h141l-139 -397h223l-21 -129h-250l-108 -326h223l-20 -129h-250zM772 552l108 326h-270l-109 -326h271z" />
    <glyph glyph-name="dollar" unicode="$" horiz-adv-x="1212" 
d="M819 1570l-33.0029 -189.996c75.333 -10 143.666 -36.833 204.999 -80.5s107 -100.167 137 -169.5l-135 -68c-12 23.333 -25.833 46.166 -41.5 68.499s-31.167 40.5 -46.5 54.5c-18 16.667 -38.833 30.667 -62.5 42s-49.5 19.333 -77.5 24l-73 -447
c46.667 -10.667 90.667 -23.834 132 -39.501s75 -31.834 101 -48.501c52.667 -33.333 91.167 -72.833 115.5 -118.5s36.5 -96.167 36.5 -151.5c0 -126 -49.333 -228.5 -148 -307.5s-218 -110.833 -358 -95.5l-37 -208h-127l37 222c-43.333 5.33301 -85.333 17.333 -126 36
s-78 43.334 -112 74.001c-24 22.667 -48 51 -72 85s-45 70 -63 108l141 68c11.333 -27.333 24.333 -53.5 39 -78.5s30.667 -46.833 48 -65.5c22.667 -24.667 48.334 -45 77.001 -61s59.334 -27 92.001 -33l76 475c-33.333 9.33301 -64.166 19.166 -92.499 29.499
s-51.5 20.166 -69.5 29.499c-54.667 30 -98 70.5 -130 121.5s-48 109.5 -48 175.5c0 67.333 16.167 128 48.5 182s77.833 97.333 136.5 130c30 16.667 62.333 29.5 97 38.5s70.334 14.5 107.001 16.5c11.333 0.666992 22.5 1 33.5 1s21.833 -0.333008 32.5 -1l33 182h127z
M572.997 831.004l70 426c-32.667 2.66699 -65.5 0.666992 -98.5 -6s-61.833 -17 -86.5 -31c-30 -17.333 -54.5 -41.333 -73.5 -72s-28.5 -65.334 -28.5 -104.001c0 -30.667 7.66699 -61 23 -91s38.333 -55.667 69 -77c18.667 -13.333 38.667 -23.666 60 -30.999
s43 -12 65 -14zM662.997 638.004l-78.0039 -468.999c40 -4 77.833 -1.83301 113.5 6.5s69.5 22.833 101.5 43.5c36.667 22.667 65.334 50.167 86.001 82.5s31 68.166 31 107.499c0 30 -6.66699 58.5 -20 85.5s-30.666 49.833 -51.999 68.5
c-19.333 16.667 -46.166 32 -80.499 46s-68.166 23.667 -101.499 29z" />
    <glyph glyph-name="percent" unicode="%" horiz-adv-x="1495" 
d="M503 1425c38 0 70.998 -5.16699 98.998 -15.5s52.333 -27.833 73 -52.5c19.333 -22 34.166 -49 44.499 -81s15.5 -70.333 15.5 -115c0 -64 -10.667 -130.167 -32 -198.5s-51.666 -125.166 -90.999 -170.499c-30 -34.667 -64.167 -60.667 -102.5 -78s-81.5 -26 -129.5 -26
c-39.333 0 -74.5 7.16699 -105.5 21.5s-57.167 37.166 -78.5 68.499c-15.333 22 -27.666 50 -36.999 84s-14 70 -14 108c0 59.333 11.333 121.333 34 186s52.334 118 89.001 160c33.333 38.667 69.333 66.5 108 83.5s81 25.5 127 25.5zM486.998 1318
c-40.667 0 -75.5 -12.832 -104.5 -38.499s-52.833 -63.167 -71.5 -112.5c-12.667 -32 -22.334 -65.5 -29.001 -100.5s-10 -71.167 -10 -108.5c0 -29.333 2.5 -53.333 7.5 -72s12.167 -34.334 21.5 -47.001c10 -14 23.333 -25 40 -33s35.334 -12 56.001 -12
c36 0 68.5 12.167 97.5 36.5s53.833 62.833 74.5 115.5c13.333 34 23.166 66.833 29.499 98.5s9.5 63.5 9.5 95.5c0 33.333 -1.66699 59 -5 77s-8.66602 33.333 -15.999 46c-10 17.333 -23.333 30.833 -40 40.5s-36.667 14.5 -60 14.5zM1222 1404h150l-1073 -1404h-150z
M1138 716.001c38 0 70.8311 -5.1709 98.498 -15.5039s52.167 -27.5 73.5 -51.5c19.333 -22.667 34.166 -50 44.499 -82s15.5 -70.333 15.5 -115c0 -64 -10.667 -130.167 -32 -198.5s-51.666 -125.166 -90.999 -170.499c-30 -34.667 -64.167 -60.5 -102.5 -77.5
s-81.5 -25.5 -129.5 -25.5c-39.333 0 -74.5 7.16699 -105.5 21.5s-57.167 36.833 -78.5 67.5c-15.333 22.667 -27.666 51 -36.999 85s-14 70 -14 108c0 58.667 11.333 120.334 34 185.001s52.334 118.334 89.001 161.001c33.333 38.667 69.333 66.334 108 83.001
s81 25 127 25zM1122 609.997c-40.667 0 -75.501 -13.001 -104.501 -39.001s-52.833 -63.667 -71.5 -113c-12.667 -32 -22.334 -65.5 -29.001 -100.5s-10 -71.167 -10 -108.5c0 -29.333 2.33301 -53.166 7 -71.499s11.667 -33.833 21 -46.5c10.667 -14 24.334 -25 41.001 -33
s35.334 -12 56.001 -12c36 0 68.5 12.167 97.5 36.5s53.833 62.5 74.5 114.5c13.333 34 23.166 67 29.499 99s9.5 64 9.5 96c0 33.333 -1.66699 58.833 -5 76.5s-8.66602 33.167 -15.999 46.5c-10 17.333 -23.333 30.833 -40 40.5s-36.667 14.5 -60 14.5z" />
    <glyph glyph-name="ampersand" unicode="&#x26;" horiz-adv-x="1386" 
d="M1193 763l134.004 -44.9961c-20.667 -54 -47.667 -110.833 -81 -170.5s-68 -114.834 -104 -165.501c-22.667 -31.333 -45.834 -60.5 -69.501 -87.5s-48.834 -52.833 -75.501 -77.5c13.333 -28 30.5 -49.333 51.5 -64s46.833 -22 77.5 -22c24.667 0 45.667 1 63 3
s34 5.66699 50 11l-19 -143c-18 -7.33301 -37 -12.833 -57 -16.5s-41.333 -5.5 -64 -5.5c-53.333 0 -99.666 11.5 -138.999 34.5s-70 56.167 -92 99.5c-53.333 -43.333 -113.166 -76.5 -179.499 -99.5s-134.166 -34.5 -203.499 -34.5c-57.333 0 -111.333 9.5 -162 28.5
s-96.334 48.833 -137.001 89.5c-38 37.333 -67.333 81 -88 131s-31 101 -31 153c0 76 19.5 144.333 58.5 205s92.5 112 160.5 154c31.333 19.333 66 36.666 104 51.999s76.333 28 115 38l-28 53c-23.333 42.667 -40.5 84.167 -51.5 124.5s-16.5 80.166 -16.5 119.499
c0 50 9.66699 94.667 29 134s50.666 74 93.999 104c29.333 19.333 60.666 34 93.999 44s73.666 15 120.999 15c92 0 168.333 -27 229 -81s91 -124.667 91 -212c0 -46 -10.333 -89 -31 -129s-54.334 -78.333 -101.001 -115c-30.667 -24.667 -66.167 -47.667 -106.5 -69
s-80.5 -39.333 -120.5 -54l207 -430c34 34 65.667 69.833 95 107.5s55.666 75.834 78.999 114.501c16.667 27.333 34.334 59.666 53.001 96.999s35.667 73.666 51 108.999zM737.004 1273c-48.667 0 -88.167 -15.3301 -118.5 -45.9971s-45.5 -71.334 -45.5 -122.001
c0 -23.333 6.33301 -53.833 19 -91.5s33 -83.5 61 -137.5c88.667 34.667 152.5 70.167 191.5 106.5s58.5 80.166 58.5 131.499c0 47.333 -15.833 85.666 -47.5 114.999s-71.167 44 -118.5 44zM800.004 227.007l-240.999 502.003c-31.333 -12 -62.333 -26.167 -93 -42.5
s-58.667 -33.833 -84 -52.5c-45.333 -32.667 -77.666 -67.334 -96.999 -104.001s-29 -76.334 -29 -119.001c0 -33.333 6.66699 -68.833 20 -106.5s31.666 -69.167 54.999 -94.5c23.333 -24.667 51.833 -44 85.5 -58s69.5 -21 107.5 -21c39.333 0 84.166 8.66699 134.499 26
s97.5 40.666 141.5 69.999z" />
    <glyph glyph-name="quotesingle" unicode="'" horiz-adv-x="374" 
d="M294 874h-94l60 530h153z" />
    <glyph glyph-name="parenleft" unicode="(" horiz-adv-x="600" 
d="M573 1404l106 0.00390625c-64 -78.667 -123.5 -165.167 -178.5 -259.5s-99.833 -189.833 -134.5 -286.5c-32 -88.667 -57.667 -184.834 -77 -288.501s-29 -196.834 -29 -279.501c0 -106.667 12 -214.5 36 -323.5s59.667 -214.5 107 -316.5h-107
c-36 55.333 -65.167 110.5 -87.5 165.5s-42.166 118.5 -59.499 190.5c-12.667 52 -22 101.833 -28 149.5s-9 100.167 -9 157.5c0 85.333 8.83301 173 26.5 263s45.834 183.333 84.501 280c41.333 103.333 92.166 201.166 152.499 293.499s126.166 177.166 197.499 254.499z
" />
    <glyph glyph-name="parenright" unicode=")" horiz-adv-x="634" 
d="M256 1404h106.001c61.333 -102.667 106.666 -209.167 135.999 -319.5s44 -221.5 44 -333.5c0 -88 -8.5 -178.667 -25.5 -272s-43.833 -186.333 -80.5 -279c-40 -100 -90.167 -196.667 -150.5 -290s-128.5 -180 -204.5 -260h-105c68 84 127.667 171.5 179 262.5
s96.333 190.167 135 297.5c38 106 65 203.833 81 293.5s24 179.167 24 268.5c0 118 -11.333 228.667 -34 332s-57.667 203.333 -105 300z" />
    <glyph glyph-name="asterisk" unicode="*" horiz-adv-x="1124" 
d="M772 1386l-78 -344l327 133l39 -113l-342 -104l285 -217l-74 -94l-262 237l-45 -346l-119 21l74 342l-328 -133l-45 114l338 107l-280 215l80 92l264 -238l47 348z" />
    <glyph glyph-name="plus" unicode="+" horiz-adv-x="1263" 
d="M591 1120h133v-463h463v-133h-463v-463h-133v463h-462v133h462v463z" />
    <glyph glyph-name="comma" unicode="," horiz-adv-x="542" 
d="M344 235l-33 -211l-199 -288h-88l164 264h-107l37 235h226z" />
    <glyph glyph-name="hyphen" unicode="-" horiz-adv-x="751" 
d="M606 589l-21 -127h-436l20 127h437z" />
    <glyph glyph-name="hyphen" unicode="&#xad;" horiz-adv-x="751" 
d="M606 589l-21 -127h-436l20 127h437z" />
    <glyph glyph-name="period" unicode="." horiz-adv-x="522" 
d="M323 229l-37 -229h-225l37 229h225z" />
    <glyph glyph-name="slash" unicode="/" horiz-adv-x="913" 
d="M866 1404h139l-1125 -1754h-140z" />
    <glyph glyph-name="zero" unicode="0" 
d="M770 1425c69.333 0 127.83 -10.167 175.497 -30.5s88.834 -49.833 123.501 -88.5c38.667 -44 68 -98.833 88 -164.5s30 -151.5 30 -257.5c0 -135.333 -17.5 -266.166 -52.5 -392.499s-87.167 -232.833 -156.5 -319.5c-51.333 -66 -108 -114.5 -170 -145.5
s-141 -46.5 -237 -46.5c-72.667 0 -133 9.66699 -181 29s-90 48.333 -126 87c-44 46 -77.5 104.5 -100.5 175.5s-34.5 159.833 -34.5 266.5c0 152 22.833 294.667 68.5 428s110.834 239.333 195.501 318c50.667 47.333 106.834 82.666 168.501 105.999s131.167 35 208.5 35z
M758.997 1273c-70 0 -130.499 -15.502 -181.499 -46.502s-95.5 -77.5 -133.5 -139.5c-40 -64.667 -72.5 -150.167 -97.5 -256.5s-37.5 -216.833 -37.5 -331.5c0 -79.333 9.33301 -145.666 28 -198.999s46.667 -94 84 -122c21.333 -16 46.666 -27.833 75.999 -35.5
s60.666 -11.5 93.999 -11.5c58 0 109.333 14.5 154 43.5s84.334 71.167 119.001 126.5c40 63.333 73.833 153.333 101.5 270s41.5 232.667 41.5 348c0 58.667 -4.5 108.5 -13.5 149.5s-23.5 77.167 -43.5 108.5c-22.667 34.667 -49.167 59.334 -79.5 74.001
s-67.5 22 -111.5 22z" />
    <glyph glyph-name="one" unicode="1" 
d="M788 1404h133.001l-203 -1253h394l-21 -151h-989l20 151h420l168 1040c-70.667 -64 -142 -120.667 -214 -170s-145.333 -92.333 -220 -129l29 175c96 44.667 184.167 95 264.5 151s153.166 118 218.499 186z" />
    <glyph glyph-name="two" unicode="2" horiz-adv-x="1320" 
d="M348 968l-144.003 55.998c22.667 66 47.334 120.833 74.001 164.5s59.334 82.167 98.001 115.5c50 42.667 104 73.5 162 92.5s123.667 28.5 197 28.5c74.667 0 139.834 -9.16699 195.501 -27.5s104.5 -47.5 146.5 -87.5c38.667 -36.667 67.334 -79.167 86.001 -127.5
s28 -98.5 28 -150.5c0 -69.333 -13.833 -135.666 -41.5 -198.999s-67.5 -123.333 -119.5 -180c-37.333 -40 -80.333 -78.667 -129 -116s-142.334 -98.333 -281.001 -183c-120.667 -74 -199.834 -121 -237.501 -141l-122.5 -62h798l-28 -151h-998l29 165l279.5 173l338.5 225
c71.333 48.667 125.833 89.334 163.5 122.001s67.834 64.334 90.501 95.001c27.333 35.333 47.833 71.666 61.5 108.999s20.5 74 20.5 110c0 42.667 -6.5 81.167 -19.5 115.5s-30.167 62.166 -51.5 83.499c-26 24.667 -59 43.334 -99 56.001s-83 19 -129 19
c-50.667 0 -98 -8.5 -142 -25.5s-84.667 -44.5 -122 -82.5c-25.333 -26 -47 -55.667 -65 -89s-31 -69.333 -39 -108z" />
    <glyph glyph-name="three" unicode="3" 
d="M374 1085l-122.995 68.0029c19.333 35.333 42 67.333 68 96s54.667 54.667 86 78c49.333 36 100.5 61.333 153.5 76s113.833 22 182.5 22c69.333 0 128.166 -7.83301 176.499 -23.5s89.833 -37.834 124.5 -66.501c37.333 -31.333 65.5 -68.833 84.5 -112.5
s28.5 -88.834 28.5 -135.501c0 -52 -9.83301 -99.833 -29.5 -143.5s-46.167 -81.834 -79.5 -114.501c-30.667 -30 -63.167 -53 -97.5 -69s-71.5 -25.667 -111.5 -29l2 -7c35.333 -8 67.5 -21.167 96.5 -39.5s53.5 -39.166 73.5 -62.499
c24.667 -29.333 43.5 -63.833 56.5 -103.5s19.5 -80.834 19.5 -123.501c0 -67.333 -16.667 -130.166 -50 -188.499s-76.666 -105.5 -129.999 -141.5c-43.333 -29.333 -91.833 -50.833 -145.5 -64.5s-112.5 -20.5 -176.5 -20.5c-80.667 0 -150.167 9.16699 -208.5 27.5
s-109.5 45.833 -153.5 82.5c-36.667 30 -68.834 66.667 -96.501 110s-48.834 87.666 -63.501 132.999l137 54c12 -31.333 27.333 -61.166 46 -89.499s39.667 -52.5 63 -72.5c33.333 -30 72.666 -53.167 117.999 -69.5s92.666 -24.5 141.999 -24.5c46 0 91.5 7 136.5 21
s82.167 33.333 111.5 58c26 23.333 48.167 53 66.5 89s27.5 72 27.5 108c0 40 -9.66699 77.5 -29 112.5s-45.333 63.167 -78 84.5c-26 16.667 -56.667 29.334 -92 38.001s-78.333 13 -129 13h-149l30 143h195c42 0 85.5 7.5 130.5 22.5s83.5 36.167 115.5 63.5
c26.667 22.667 46.667 47.167 60 73.5s20 52.5 20 78.5c0 35.333 -6.16699 68.666 -18.5 99.999s-30.833 57.333 -55.5 78c-23.333 19.333 -51.5 34 -84.5 44s-65.5 15 -97.5 15c-46 0 -90.5 -6.83301 -133.5 -20.5s-80.5 -32.5 -112.5 -56.5
c-16.667 -12.667 -34.334 -28.834 -53.001 -48.501s-36.667 -40.5 -54 -62.5z" />
    <glyph glyph-name="four" unicode="4" 
d="M874 1404h225l-155 -933h229l-23 -144h-229l-53 -327h-176l53 327h-692l18 117zM768 471l131 796l-641 -796h510z" />
    <glyph glyph-name="five" unicode="5" 
d="M1189 1404l-50.9951 -151.004h-672l-106 -445c45.333 50.667 95.666 87.334 150.999 110.001s117.666 34 186.999 34c63.333 0 120.833 -8.33301 172.5 -25s95.167 -40.334 130.5 -71.001c41.333 -36 73.5 -81.333 96.5 -136s34.5 -116.667 34.5 -186
c0 -74.667 -12 -145 -36 -211s-56.333 -122.667 -97 -170c-48 -55.333 -105.667 -98 -173 -128s-147.666 -45 -240.999 -45c-86 0 -161.5 12.833 -226.5 38.5s-121.167 65.167 -168.5 118.5c-20 22 -38.5 47.333 -55.5 76s-31.167 59.334 -42.5 92.001l139 59
c17.333 -43.333 41.666 -82.5 72.999 -117.5s66.333 -62.167 105 -81.5c24.667 -12 50.834 -20.667 78.501 -26s57.5 -8 89.5 -8c65.333 0 121.666 9.83301 168.999 29.5s86.666 47.834 117.999 84.501c26.667 32 48.667 72.167 66 120.5s26 97.833 26 148.5
c0 44 -6.5 83.667 -19.5 119s-31.833 65 -56.5 89c-24 24.667 -54.333 43.834 -91 57.501s-79.334 20.5 -128.001 20.5c-72 0 -135.333 -15.167 -190 -45.5s-99.334 -71.166 -134.001 -122.499l-151 41l174 731h829z" />
    <glyph glyph-name="six" unicode="6" 
d="M1230 1110l-155.001 -35c-5.33301 20.667 -12.833 40 -22.5 58s-21.5 34.667 -35.5 50c-26.667 30 -58 52.5 -94 67.5s-81 22.5 -135 22.5c-58 0 -107.833 -9.33301 -149.5 -28s-81.834 -48.667 -120.501 -90c-47.333 -50 -88.5 -114.667 -123.5 -194
s-60.833 -167.666 -77.5 -264.999h4c39.333 72.667 92.166 129 158.499 169s143.833 60 232.5 60c73.333 0 138.833 -12 196.5 -36s105.5 -59 143.5 -105c32 -38 56.333 -82.167 73 -132.5s25 -99.166 25 -146.499c0 -54.667 -8.33301 -110 -25 -166
s-39.667 -104.333 -69 -145c-47.333 -67.333 -110.5 -119.833 -189.5 -157.5s-165.833 -56.5 -260.5 -56.5c-81.333 0 -155.166 16.167 -221.499 48.5s-121.5 84.166 -165.5 155.499c-29.333 46 -50 97 -62 153s-18 123.667 -18 203c0 153.333 22.333 290.666 67 411.999
s106.334 222.333 185.001 303c57.333 58.667 120 101.667 188 129s146.667 41 236 41c76 0 142.167 -12.167 198.5 -36.5s103.5 -60.5 141.5 -108.5c18.667 -24 34.334 -50.833 47.001 -80.5s22 -59.5 28 -89.5zM683.999 774c-47.333 0 -90.9971 -7.50195 -130.997 -22.502
s-75.667 -36.167 -107 -63.5c-36.667 -32.667 -65.334 -72.5 -86.001 -119.5s-31 -95.5 -31 -145.5c0 -51.333 9.66699 -97.666 29 -138.999s46 -74.666 80 -99.999c22.667 -17.333 48 -30.5 76 -39.5s57.333 -13.5 88 -13.5c47.333 0 90.166 5.83301 128.499 17.5
s73.166 29.5 104.499 53.5c44.667 34.667 79 76.167 103 124.5s36 99.833 36 154.5c0 90 -26.667 161.333 -80 214s-123.333 79 -210 79z" />
    <glyph glyph-name="seven" unicode="7" 
d="M1232 1404l-18 -106c-54 -54.667 -105.833 -111.167 -155.5 -169.5s-98.834 -121.166 -147.501 -188.499c-80 -112 -149.833 -226.333 -209.5 -343s-105.167 -229.667 -136.5 -339c-10.667 -36 -20.5 -75.833 -29.5 -119.5s-17.833 -89.834 -26.5 -138.501h-180
c27.333 158.667 70.5 308 129.5 448s135.5 276 229.5 408c44 62 94.833 127.167 152.5 195.5s118.834 135.5 183.501 201.5h-762l43 151h927z" />
    <glyph glyph-name="eight" unicode="8" 
d="M448 724v9.00098c-62.667 23.333 -112.834 62.833 -150.501 118.5s-56.5 120.5 -56.5 194.5c0 56 13.5 108.333 40.5 157s64.833 90.667 113.5 126c40.667 29.333 90.667 52.666 150 69.999s122.666 26 189.999 26c48.667 0 96.334 -4.83301 143.001 -14.5
s87 -23.167 121 -40.5c53.333 -28.667 96 -68 128 -118s48 -103 48 -159c0 -44.667 -9.66699 -88.167 -29 -130.5s-45.666 -78.5 -78.999 -108.5c-22.667 -20 -51.667 -39.5 -87 -58.5s-73.333 -35.167 -114 -48.5v-4c26 -10.667 50.5 -22.834 73.5 -36.501
s45.5 -29.5 67.5 -47.5c42.667 -35.333 74.5 -75 95.5 -119s31.5 -91.667 31.5 -143c0 -48.667 -10.667 -97.5 -32 -146.5s-49 -90.5 -83 -124.5c-47.333 -47.333 -111.833 -83.5 -193.5 -108.5s-170.5 -37.5 -266.5 -37.5c-98 0 -181.167 14.333 -249.5 43
s-121.833 69.334 -160.5 122.001c-21.333 29.333 -37.666 62.5 -48.999 99.5s-17 75.5 -17 115.5c0 56.667 12 107.167 36 151.5s57.333 82.5 100 114.5c29.333 22 65.166 41.833 107.499 59.5s82.833 30.5 121.5 38.5zM684 806.001c32 10.667 64.998 23.167 98.998 37.5
s64.333 29.166 91 44.499c44.667 26 77.334 53.333 98.001 82s31 61.667 31 99c0 32.667 -7.83301 64 -23.5 94s-35.834 53.667 -60.501 71c-22 16 -48.833 28 -80.5 36s-67.5 12 -107.5 12c-41.333 0 -79.166 -4.33301 -113.499 -13s-64.166 -21 -89.499 -37
c-36.667 -21.333 -65 -48.666 -85 -81.999s-30 -66.666 -30 -99.999c0 -25.333 5 -49.833 15 -73.5s24.333 -44.834 43 -63.501c20 -20.667 50.5 -41 91.5 -61s81.5 -35.333 121.5 -46zM621.998 657.001c-39.333 -7.33301 -77.667 -17.5 -115 -30.5s-70 -26.833 -98 -41.5
c-52 -27.333 -89.833 -58.666 -113.5 -93.999s-35.5 -75 -35.5 -119c0 -38 7.33301 -71.667 22 -101s36 -54.333 64 -75c32.667 -24 72.167 -42.333 118.5 -55s95.5 -19 147.5 -19c99.333 0 181.833 24.833 247.5 74.5s98.5 112.5 98.5 188.5c0 34 -8.83301 66.333 -26.5 97
s-42.834 58.334 -75.501 83.001c-29.333 21.333 -65.166 40.166 -107.499 56.499s-84.5 28.166 -126.5 35.499z" />
    <glyph glyph-name="nine" unicode="9" 
d="M81 294l156 35.001c4.66699 -20.667 12 -40 22 -58s21.667 -34.667 35 -50c27.333 -30.667 59.666 -53.334 96.999 -68.001s84.333 -22 141 -22c118.667 0 218 52.333 298 157s135 244.667 165 420h-4c-40 -72.667 -92.667 -129 -158 -169s-141.666 -60 -228.999 -60
c-75.333 0 -142.833 12.667 -202.5 38s-107.5 59.666 -143.5 102.999c-31.333 36.667 -55.333 80.834 -72 132.501s-25 103.834 -25 156.501c0 54.667 8.16699 108.667 24.5 162s39.833 101 70.5 143c47.333 64.667 110.5 116 189.5 154s165.833 57 260.5 57
c90 0 166.333 -17.833 229 -53.5s114.667 -86.167 156 -151.5c29.333 -46.667 50.333 -97.334 63 -152.001s19 -120.667 19 -198c0 -114 -11.833 -217.333 -35.5 -310s-57.5 -177.667 -101.5 -255c-60.667 -106.667 -134.5 -187.5 -221.5 -242.5
s-192.833 -82.5 -317.5 -82.5c-76 0 -142.167 12 -198.5 36s-103.5 60 -141.5 108c-18.667 24 -34.5 50.833 -47.5 80.5s-22.5 59.5 -28.5 89.5zM628 630.001c45.333 0 88 6.83301 128 20.5s76.667 35.5 110 65.5c34.667 32 62.834 71.333 84.501 118
s32.5 95.334 32.5 146.001c0 52 -9.83301 98.667 -29.5 140s-46.167 74.666 -79.5 99.999c-23.333 17.333 -48.833 30.5 -76.5 39.5s-56.834 13.5 -87.501 13.5c-48 0 -91 -5.83301 -129 -17.5s-72.667 -29.5 -104 -53.5c-44 -34 -78.333 -75.333 -103 -124
s-37 -101 -37 -157c0 -35.333 5 -70 15 -104s25 -63.333 45 -88c24.667 -32 56 -56.5 94 -73.5s83.667 -25.5 137 -25.5z" />
    <glyph glyph-name="colon" unicode=":" horiz-adv-x="518" 
d="M458 1044l-39 -229h-225l39 229h225zM325 229l-39 -229h-225l39 229h225z" />
    <glyph glyph-name="semicolon" unicode=";" horiz-adv-x="573" 
d="M516 1044l-39 -229h-226l39 229h226zM382 235l-34 -211l-201 -288h-88l166 264h-107l39 235h225z" />
    <glyph glyph-name="less" unicode="&#x3c;" horiz-adv-x="1267" 
d="M284 589l809 -331v-127l-1001 424v69l1001 424v-127z" />
    <glyph glyph-name="equal" unicode="=" horiz-adv-x="1263" 
d="M129 722v134h1058v-134h-1058zM129 325v133h1058v-133h-1058z" />
    <glyph glyph-name="greater" unicode="&#x3e;" horiz-adv-x="1296" 
d="M999 589l-801 332v127l1002 -424v-69l-1002 -424v127z" />
    <glyph glyph-name="question" unicode="?" horiz-adv-x="1079" 
d="M288 978l-149.003 32.998c28.667 126.667 95 227.334 199 302.001s220.667 112 350 112c117.333 0 212.833 -29.5 286.5 -88.5s110.5 -143.5 110.5 -253.5c0 -62 -13 -120.5 -39 -175.5s-67.667 -105.167 -125 -150.5c-35.333 -28 -81.166 -56.167 -137.499 -84.5
s-99.166 -51.833 -128.499 -70.5c-27.333 -18 -47.333 -35 -60 -51s-22.667 -49 -30 -99l-17 -104h-151l14 88c16 97.333 37 163.333 63 198s65 67 117 97c128.667 72 192.834 107.833 192.501 107.5s2.5 1.83398 8.5 6.50098c38 30.667 66.333 65 85 103s28 76.667 28 116
c0 66.667 -23.833 118.167 -71.5 154.5s-108.5 54.5 -182.5 54.5c-82 0 -156.5 -26.167 -223.5 -78.5s-113.5 -124.5 -139.5 -216.5zM558.997 199.998l-33 -200h-209l33 200h209z" />
    <glyph glyph-name="at" unicode="@" horiz-adv-x="1728" 
d="M1198 163l46.9971 -113.999c-50.667 -23.333 -106 -40.666 -166 -51.999s-129.667 -17 -209 -17c-200.667 0 -371 63.5 -511 190.5s-210 291.833 -210 494.5c0 204 70 382.333 210 535s332 229 576 229c206.667 0 374.5 -56 503.5 -168s193.5 -257.333 193.5 -436
c0 -146 -40.167 -267.833 -120.5 -365.5s-182.166 -146.5 -305.499 -146.5c-54.667 0 -99.167 10 -133.5 30s-57.5 49 -69.5 87c-30.667 -36.667 -66.167 -65.334 -106.5 -86.001s-84.166 -31 -131.499 -31c-78.667 0 -141.667 28 -189 84s-71 127 -71 213
c0 116.667 41.5 222 124.5 316s178.167 141 285.5 141c53.333 0 98 -11.667 134 -35s62.333 -59 79 -107l37 115h135l-160 -496c-5.33301 -16 -8.33301 -26.167 -9 -30.5s-1 -8.5 -1 -12.5c0 -28 6.83301 -49 20.5 -63s34.167 -21 61.5 -21c82.667 0 151.5 35.5 206.5 106.5
s82.5 160.5 82.5 268.5c0 142.667 -53 264 -159 364s-256 150 -450 150c-176 0 -320 -57.333 -432 -172s-168 -268.334 -168 -461.001c0 -172.667 51.5 -311 154.5 -415s244.833 -156 425.5 -156c61.333 0 119.333 5.16699 174 15.5s105.334 25.5 152.001 45.5z
M932.997 954.001c-82.667 0 -150.665 -36.667 -203.998 -110s-80 -156.333 -80 -249c0 -50.667 14.167 -93 42.5 -127s63.166 -51 104.499 -51c70 0 133.333 46.167 190 138.5s85 181.5 85 267.5c0 36.667 -12.833 67.667 -38.5 93s-58.834 38 -99.501 38z" />
    <glyph glyph-name="A" unicode="A" horiz-adv-x="1159" 
d="M618 1404h201l237 -1404h-192l-66 407h-504l-194 -407h-159zM354 550h426l-107 666z" />
    <glyph glyph-name="B" unicode="B" horiz-adv-x="1310" 
d="M319 1404l500.001 0.00195312c59.333 0 112.166 -5 158.499 -15s87.5 -26 123.5 -48c50 -30.667 86.5 -68.5 109.5 -113.5s34.5 -100.167 34.5 -165.5c0 -80.667 -24.667 -149.667 -74 -207s-114.333 -97.333 -195 -120l2 -4c30.667 -8.66699 59.167 -21.167 85.5 -37.5
s47.833 -34.833 64.5 -55.5c20.667 -24.667 37.5 -56.834 50.5 -96.501s19.5 -78.5 19.5 -116.5c0 -52 -11 -105.833 -33 -161.5s-52.667 -102.834 -92 -141.501c-41.333 -40 -91 -70.333 -149 -91s-134 -31 -228 -31h-606zM471.001 1253l-74.0029 -454.997h315
c71.333 0 127.166 5.83301 167.499 17.5s75.5 30.5 105.5 56.5c24.667 21.333 43.334 46.666 56.001 75.999s19 64 19 104c0 29.333 -5.16699 56.166 -15.5 80.499s-26.166 45.5 -47.499 63.5c-21.333 17.333 -50.666 31.166 -87.999 41.499s-79.666 15.5 -126.999 15.5
h-311zM373.998 655.005l-86.001 -504h359c118 0 207.833 24 269.5 72s92.5 114.667 92.5 200c0 36.667 -7.5 71.167 -22.5 103.5s-36.167 58.166 -63.5 77.499c-24 16.667 -54.167 29.334 -90.5 38.001s-75.166 13 -116.499 13h-342z" />
    <glyph glyph-name="C" unicode="C" horiz-adv-x="1220" 
d="M1251 962l-156.002 -37.001c-5.33301 98.667 -35.333 181.334 -90 248.001s-129.667 100 -225 100c-67.333 0 -128.166 -16.167 -182.499 -48.5s-102.166 -78.833 -143.499 -139.5c-46 -68 -82.667 -154.167 -110 -258.5s-41 -201.166 -41 -290.499
c0 -58 8 -112.833 24 -164.5s39.333 -96.5 70 -134.5c29.333 -36.667 62.833 -63.5 100.5 -80.5s79.167 -25.5 124.5 -25.5c82.667 0 158.5 26.167 227.5 78.5s122.833 132.5 161.5 240.5l144 -55c-14 -36.667 -30.5 -72.5 -49.5 -107.5s-40.167 -67.5 -63.5 -97.5
c-54 -68.667 -116.5 -120.834 -187.5 -156.501s-151.167 -53.5 -240.5 -53.5c-91.333 0 -169.666 18.833 -234.999 56.5s-120 91.5 -164 161.5c-34.667 55.333 -60.167 114.333 -76.5 177s-24.5 132.667 -24.5 210c0 106 16.667 212.5 50 319.5s83 202.5 149 286.5
c59.333 76 125 134 197 174s154.333 60 247 60c88 0 164.667 -14.5 230 -43.5s117.666 -67.833 156.999 -116.5c32 -38.667 57.333 -84.667 76 -138s29 -108.333 31 -165z" />
    <glyph glyph-name="D" unicode="D" horiz-adv-x="1374" 
d="M321 1404l393 -0.00195312c119.333 0 216 -14.667 290 -44s138 -79.333 192 -150c40 -53.333 69.667 -116.166 89 -188.499s29 -148.166 29 -227.499c0 -107.333 -17.667 -214 -53 -320s-88 -198 -158 -276c-60.667 -68 -127.667 -118 -201 -150s-168 -48 -284 -48h-528z
M473 1253l-187 -1102h297c96.667 0 175 14 235 42s113.333 70.667 160 128c47.333 57.333 83.833 128 109.5 212s38.5 172.333 38.5 265c0 82.667 -11.667 155.5 -35 218.5s-60.333 114.5 -111 154.5c-36 28.667 -76.833 49.5 -122.5 62.5s-99.5 19.5 -161.5 19.5h-223z" />
    <glyph glyph-name="E" unicode="E" horiz-adv-x="1148" 
d="M1210 1404l-27 -151h-712l-74 -447h567l-24 -143h-566l-84 -512h734l-25 -151h-909l231 1404h889z" />
    <glyph glyph-name="F" unicode="F" horiz-adv-x="1058" 
d="M1181 1404l-26 -151h-684l-74 -447h569l-24 -143h-568l-108 -663h-176l231 1404h860z" />
    <glyph glyph-name="G" unicode="G" horiz-adv-x="1335" 
d="M1236 1019l-153.002 -39.0029c-10.667 90.667 -45 162.167 -103 214.5s-127.333 78.5 -208 78.5c-66.667 0 -127.167 -15.833 -181.5 -47.5s-102.5 -78.5 -144.5 -140.5c-46 -68 -81.667 -153 -107 -255s-38 -200.667 -38 -296c0 -60 7.5 -112.667 22.5 -158
s38.167 -87.666 69.5 -126.999c34 -42.667 72.167 -73 114.5 -91s90.166 -27 143.499 -27c74.667 0 139.334 16.333 194.001 49s98.334 77 131.001 133c18 30.667 34.167 69.167 48.5 115.5s24.833 92.5 31.5 138.5h-360l22 143h527l-117 -710h-90l-21 165h-4
c-52.667 -64 -110.5 -110.833 -173.5 -140.5s-137.5 -44.5 -223.5 -44.5c-56 0 -109.167 8.33301 -159.5 25s-96.166 41.334 -137.499 74.001c-64 50.667 -114.5 118.5 -151.5 203.5s-55.5 182.5 -55.5 292.5c0 111.333 16 221 48 329s80.333 203.667 145 287
c62 80.667 131 139.834 207 177.501s162 56.5 258 56.5c78 0 148.833 -14.167 212.5 -42.5s115.5 -66.833 155.5 -115.5c26 -30.667 47.833 -67.5 65.5 -110.5s28.5 -88.833 32.5 -137.5z" />
    <glyph glyph-name="H" unicode="H" horiz-adv-x="1349" 
d="M321 1404h176l-98 -585h655l99 585h176l-232 -1404h-176l111 667h-656l-110 -667h-176z" />
    <glyph glyph-name="I" unicode="I" horiz-adv-x="518" 
d="M497 1404l-231 -1404h-176l231 1404h176z" />
    <glyph glyph-name="J" unicode="J" horiz-adv-x="763" 
d="M573 1404l176.002 -0.000976562l-141 -874c-24 -146 -45.333 -242.5 -64 -289.5s-44 -88.5 -76 -124.5c-40.667 -45.333 -91.5 -79.333 -152.5 -102s-139.167 -34 -234.5 -34c-36 0 -66.333 1 -91 3s-50.667 5.66699 -78 11l19 155
c28 -5.33301 57.333 -9.66602 88 -12.999s56.334 -5 77.001 -5c46 0 89.167 7.33301 129.5 22s72.166 33.667 95.499 57c23.333 24.667 42.666 58.667 57.999 102s28.666 99 39.999 167z" />
    <glyph glyph-name="K" unicode="K" horiz-adv-x="1241" 
d="M321 1404h176l-133 -804l754 804h202l-460 -491l342 -913h-189l-291 774l-395 -400l-61 -374h-176z" />
    <glyph glyph-name="L" unicode="L" horiz-adv-x="1042" 
d="M950 151l-25 -151h-835l231 1404h176l-207 -1253h660z" />
    <glyph glyph-name="M" unicode="M" horiz-adv-x="1701" 
d="M321 1404h250l237 -1124l5 -4l602 1128h266l-232 -1404h-176l201 1226l-6 2l-649 -1228h-119l-260 1224l-2 2l-201 -1226h-147z" />
    <glyph glyph-name="N" unicode="N" horiz-adv-x="1374" 
d="M321 1404h220.998l475 -1144c2.66699 14.667 4.83398 27.167 6.50098 37.5s4.16699 27.166 7.5 50.499c1.33301 10.667 2 16.167 2 16.5s5 30.833 15 91.5l158 948h147l-231 -1404h-172l-479 1146l-9 26c-5.33301 15.333 -12.666 32.666 -21.999 51.999h-6
c-2 -21.333 -4.16699 -41.166 -6.5 -59.499s-7.83301 -53.166 -16.5 -104.499l-174 -1060h-147z" />
    <glyph glyph-name="O" unicode="O" horiz-adv-x="1343" 
d="M786 1425c56 0 105.666 -6.49902 148.999 -19.499s85 -33.167 125 -60.5c74.667 -51.333 131.667 -119 171 -203s59 -184.333 59 -301s-16.667 -233.334 -50 -350.001s-81 -214.334 -143 -293.001c-57.333 -72.667 -123.666 -127.167 -198.999 -163.5
s-162 -54.5 -260 -54.5c-86 0 -161.5 14.5 -226.5 43.5s-119.167 69.5 -162.5 121.5c-44.667 54 -78 116.5 -100 187.5s-33 148.5 -33 232.5c0 124.667 17.667 244.167 53 358.5s82 208.5 140 282.5c56.667 72.667 122.5 127.334 197.5 164.001s168.167 55 279.5 55z
M754.999 1273c-64.667 0 -121.5 -14.1631 -170.5 -42.4961s-94.5 -72.833 -136.5 -133.5c-44.667 -64.667 -79.667 -144 -105 -238s-38 -190 -38 -288c0 -62.667 6.5 -119.334 19.5 -170.001s33.167 -96.334 60.5 -137.001c29.333 -44 63.5 -77.167 102.5 -99.5
s88.5 -33.5 148.5 -33.5c71.333 0 133 14.5 185 43.5s97.667 73.167 137 132.5c42.667 64.667 77.167 145.667 103.5 243s39.5 189.666 39.5 276.999c0 67.333 -6.33301 126.166 -19 176.499s-33 95.833 -61 136.5c-32 48 -69 82.167 -111 102.5s-93.667 30.5 -155 30.5z
" />
    <glyph glyph-name="P" unicode="P" horiz-adv-x="1189" 
d="M321 1404l446.999 -0.000976562c84 0 155 -8.83301 213 -26.5s105 -43.5 141 -77.5c31.333 -30 56.166 -70 74.499 -120s27.5 -105 27.5 -165c0 -65.333 -13.167 -128.166 -39.5 -188.499s-64.833 -110.833 -115.5 -151.5c-49.333 -38.667 -107.166 -66.667 -173.499 -84
s-151.166 -26 -254.499 -26h-283l-96 -565h-172zM467.999 1253l-82.999 -537h296c74 0 130.667 7.83301 170 23.5s74.333 40.167 105 73.5c27.333 30 47.5 62.167 60.5 96.5s19.5 71.5 19.5 111.5c0 37.333 -5 70.5 -15 99.5s-25 52.5 -45 70.5
c-20.667 20 -48.834 35.333 -84.501 46s-88.5 16 -158.5 16h-265z" />
    <glyph glyph-name="Q" unicode="Q" horiz-adv-x="1337" 
d="M1040 -182l-20.998 -139.002c-26.667 -6 -52.667 -10.167 -78 -12.5s-54.333 -3.5 -87 -3.5c-112 0 -189.667 26.5 -233 79.5s-58 132.167 -44 237.5c-44 0.666992 -88.333 7 -133 19s-84.334 30 -119.001 54c-68 46 -120.167 113.167 -156.5 201.5
s-54.5 194.5 -54.5 318.5c0 137.333 22.167 267.333 66.5 390s105.5 222.667 183.5 300c54.667 54.667 114.5 94.334 179.5 119.001s136.833 37 215.5 37c63.333 0 119.666 -7 168.999 -21s92.666 -33.667 129.999 -59c73.333 -49.333 129.666 -117.5 168.999 -204.5
s59 -187.5 59 -301.5c0 -115.333 -18.167 -231.5 -54.5 -348.5s-87.833 -214.5 -154.5 -292.5c-49.333 -58 -104.833 -104.5 -166.5 -139.5s-127.167 -57.833 -196.5 -68.5c-5.33301 -29.333 -6.16602 -57.166 -2.49902 -83.499s12.167 -46.833 25.5 -61.5
c11.333 -12.667 26.5 -22 45.5 -28s48.167 -9 87.5 -9c34.667 0 64.334 1.16699 89.001 3.5s51.667 6.5 81 12.5zM753.002 1267c-63.333 0 -120 -14.333 -170 -43s-95 -73 -135 -133c-44 -66 -79.167 -143.5 -105.5 -232.5s-39.5 -177.5 -39.5 -265.5
c0 -65.333 6.83301 -127.833 20.5 -187.5s32.5 -107.5 56.5 -143.5c28 -42.667 62.667 -75.167 104 -97.5s91.333 -33.5 150 -33.5c74 0 135.667 14.5 185 43.5s94.333 73.833 135 134.5c44.667 67.333 79.667 146.333 105 237s38 179 38 265
c0 70 -6.33301 132.833 -19 188.5s-31.667 101.834 -57 138.501c-30 45.333 -67.167 78.166 -111.5 98.499s-96.5 30.5 -156.5 30.5z" />
    <glyph glyph-name="R" unicode="R" horiz-adv-x="1361" 
d="M319 1404h489.001c159.333 0 279.166 -34.5 359.499 -103.5s120.5 -157.833 120.5 -266.5c0 -97.333 -30 -182.5 -90 -255.5s-140.667 -119.833 -242 -140.5l203 -638h-185l-190 612h-418l-100 -612h-176zM471.001 1253l-82 -498.001h360c64 0 117.667 5.66699 161 17
s79 29 107 53c26.667 22 47 50 61 84s21 72.333 21 115c0 32.667 -4.83301 62.334 -14.5 89.001s-23.834 49.334 -42.501 68.001c-24.667 25.333 -56.667 43.666 -96 54.999s-92.666 17 -159.999 17h-315z" />
    <glyph glyph-name="S" unicode="S" horiz-adv-x="1189" 
d="M1130 1105l-141 -63c-10 28.667 -23 55.167 -39 79.5s-33.667 45.5 -53 63.5c-32 29.333 -70.667 51.333 -116 66s-97.666 22 -156.999 22c-49.333 0 -93.333 -8.16699 -132 -24.5s-71 -38.833 -97 -67.5c-18.667 -20 -32.667 -41.667 -42 -65s-14 -46 -14 -68
c0 -56 22 -102.833 66 -140.5s106.667 -65.834 188 -84.501l107 -25c94 -21.333 166.5 -45.166 217.5 -71.499s91.167 -59.166 120.5 -98.499c20 -26.667 35.833 -59.167 47.5 -97.5s17.5 -79.5 17.5 -123.5c0 -62.667 -15.333 -122 -46 -178s-72 -103.667 -124 -143
c-47.333 -36.667 -99.666 -63.5 -156.999 -80.5s-127 -25.5 -209 -25.5c-84 0 -158.167 8.5 -222.5 25.5s-120.5 44.5 -168.5 82.5c-42.667 33.333 -78.334 74.166 -107.001 122.499s-49 98.833 -61 151.5l159 53c7.33301 -26 17.166 -51 29.499 -75
s27.833 -47.333 46.5 -70c39.333 -48 83.333 -83.167 132 -105.5s110 -33.5 184 -33.5c57.333 0 108 7 152 21s82.667 35.667 116 65c30 25.333 52.167 53.333 66.5 84s21.5 63.334 21.5 98.001c0 57.333 -16.833 102.666 -50.5 135.999s-121.167 67.666 -262.5 102.999
l-99 25c-65.333 16.667 -121 38.334 -167 65.001s-82.333 59 -109 97c-21.333 29.333 -37.333 63.333 -48 102s-16 77 -16 115c0 56 13.667 110.333 41 163s67 97.334 119 134.001c40 28 85.667 49.333 137 64s110 22 176 22s124 -5.83301 174 -17.5
s95.333 -29.834 136 -54.501c43.333 -26.667 81 -61 113 -103s55.667 -90.333 71 -145z" />
    <glyph glyph-name="T" unicode="T" horiz-adv-x="989" 
d="M155 1404h971l-27 -151h-397l-205 -1253h-176l205 1253h-397z" />
    <glyph glyph-name="U" unicode="U" horiz-adv-x="1302" 
d="M477 1404l-121.001 -724.999c-13.333 -80 -22.833 -141.333 -28.5 -184s-8.5 -74.667 -8.5 -96c0 -86.667 25.833 -153 77.5 -199s122.834 -69 213.501 -69c57.333 0 109 8 155 24s84.333 40 115 72c27.333 28 50.666 65.167 69.999 111.5s37 118.5 53 216.5l141 849h144
l-142 -872c-16.667 -105.333 -35 -184 -55 -236s-47.333 -99.667 -82 -143c-46 -58 -104.833 -101.333 -176.5 -130s-155.5 -43 -251.5 -43c-130 0 -235.833 33.5 -317.5 100.5s-122.5 166.167 -122.5 297.5c0 26 1.33301 53.167 4 81.5s7.33398 62.166 14.001 101.499
l142 843h176z" />
    <glyph glyph-name="V" unicode="V" horiz-adv-x="1122" 
d="M1265 1404l-698 -1404h-168l-258 1404h188l201 -1159l571 1159h164z" />
    <glyph glyph-name="W" unicode="W" horiz-adv-x="1716" 
d="M1826 1404l-565 -1404h-176l-129 1093l-4 -4l-461 -1089h-176l-141 1404h176l98 -1134l6 -4l483 1138h140l137 -1136l6 -2l442 1138h164z" />
    <glyph glyph-name="X" unicode="X" horiz-adv-x="1091" 
d="M1181 1404l-497 -649l325 -755h-196l-258 598l-463 -598h-175l572 733l-293 671h197l221 -520l391 520h176z" />
    <glyph glyph-name="Y" unicode="Y" horiz-adv-x="1040" 
d="M1228 1404l-600 -813l-96 -591h-176l96 591l-336 813h205l266 -647l477 647h164z" />
    <glyph glyph-name="Z" unicode="Z" horiz-adv-x="1105" 
d="M976 151l-24 -151h-990l22 147l937 1106h-727l25 151h934l-19 -116l-954 -1137h796z" />
    <glyph glyph-name="bracketleft" unicode="[" horiz-adv-x="561" 
d="M280 1404h365l-19 -110h-223l-254 -1533h223l-16 -111h-364z" />
    <glyph glyph-name="backslash" unicode="\" horiz-adv-x="1169" 
d="M198 1404h139l625 -1404h-139z" />
    <glyph glyph-name="bracketright" unicode="]" horiz-adv-x="561" 
d="M208 1404h365l-285 -1754h-363l18 111h222l250 1533h-223z" />
    <glyph glyph-name="asciicircum" unicode="^" horiz-adv-x="987" 
d="M544 1210l-278 -682h-123l354 876h94l355 -876h-123z" />
    <glyph glyph-name="underscore" unicode="_" horiz-adv-x="1024" 
d="M1024 -133v-127h-1024v127h1024z" />
    <glyph glyph-name="grave" unicode="`" horiz-adv-x="1062" 
d="M403 1382l63 121l377 -232l-45 -82z" />
    <glyph glyph-name="a" unicode="a" horiz-adv-x="1116" 
d="M303 772l-146 63c10.667 24 23.5 45.833 38.5 65.5s32.167 38.167 51.5 55.5c44 38 93.833 65.5 149.5 82.5s117.167 25.5 184.5 25.5c129.333 0 231.333 -25.667 306 -77s112 -132 112 -242v-45c0 -0.666992 -21 -117 -63 -349c-18.667 -100 -31 -172.167 -37 -216.5
s-9.66699 -89.166 -11 -134.499h-155c0 34.667 1.33301 68.834 4 102.501s6.66699 66.167 12 97.5c-17.333 -26 -36.166 -50.5 -56.499 -73.5s-40.5 -42.167 -60.5 -57.5c-35.333 -28 -75.5 -49.833 -120.5 -65.5s-92.833 -23.5 -143.5 -23.5
c-46 0 -89.5 6.83301 -130.5 20.5s-76.5 35.167 -106.5 64.5c-28 26.667 -50.167 59 -66.5 97s-24.5 80 -24.5 126c0 54.667 11.167 103 33.5 145s54.166 78.333 95.499 109c50 36.667 111.333 63.667 184 81s167 26 283 26c38.667 0 71.834 -0.833008 99.501 -2.5
s56.167 -4.5 85.5 -8.5c5.33301 22 9.33301 43.167 12 63.5s4 38.166 4 53.499c0 33.333 -5 60.5 -15 81.5s-26 39.5 -48 55.5c-20.667 15.333 -45.167 26.666 -73.5 33.999s-65.5 11 -111.5 11c-38.667 0 -72.334 -4.16699 -101.001 -12.5s-57 -22.5 -85 -42.5
c-20 -14 -38.5 -30.167 -55.5 -48.5s-31.833 -38.833 -44.5 -61.5zM802 512c-32.667 3.33301 -65.666 5.83301 -98.999 7.5s-67 2.5 -101 2.5c-64 0 -118.333 -4.33301 -163 -13s-84 -23 -118 -43c-38 -22 -65.667 -48.667 -83 -80s-26 -66.666 -26 -105.999
c0 -25.333 4.16699 -48.333 12.5 -69s20.166 -38.667 35.499 -54c16.667 -16.667 36.5 -29.334 59.5 -38.001s48.833 -13 77.5 -13c54 0 107 14.167 159 42.5s99.333 70.833 142 127.5c26.667 36 48.667 73.5 66 112.5s30 80.167 38 123.5z" />
    <glyph glyph-name="b" unicode="b" horiz-adv-x="1155" 
d="M460 1404l-78 -521.998c18 23.333 37.833 45.166 59.5 65.499s42.834 37.5 63.501 51.5c31.333 20.667 66.166 36.667 104.499 48s77.5 17 117.5 17c102.667 0 186.334 -33.5 251.001 -100.5s97 -156.167 97 -267.5c0 -90 -14 -183.833 -42 -281.5
s-67.333 -180.834 -118 -249.501c-46.667 -62.667 -98.834 -109.167 -156.501 -139.5s-123.5 -45.5 -197.5 -45.5c-50 0 -96 8 -138 24s-80 41.667 -114 77c-14 14.667 -26.833 30.5 -38.5 47.5s-22.167 35.5 -31.5 55.5l-94 -184h-70l230 1404h155zM686 929.002
c-58 0 -110.332 -14.834 -156.999 -44.501s-86.667 -70.834 -120 -123.501c-30 -47.333 -54.167 -105.166 -72.5 -173.499s-27.5 -133.833 -27.5 -196.5c0 -32 3.66699 -63.667 11 -95s18.666 -58.333 33.999 -81c20.667 -32.667 48.667 -57.667 84 -75s72 -26 110 -26
c46.667 0 92.667 15.167 138 45.5s84 75.166 116 134.499c25.333 46.667 47 107.334 65 182.001s27 140.334 27 197.001c0 79.333 -18.333 141.833 -55 187.5s-87.667 68.5 -153 68.5z" />
    <glyph glyph-name="c" unicode="c" horiz-adv-x="999" 
d="M966 698l-155.004 -35.001c2 30 -0.333008 60.5 -7 91.5s-17.334 58.5 -32.001 82.5c-20 31.333 -44 54.5 -72 69.5s-60 22.5 -96 22.5c-47.333 0 -92.166 -11.167 -134.499 -33.5s-78.833 -56.166 -109.5 -101.499c-30 -44 -54.833 -103 -74.5 -177
s-29.5 -144.667 -29.5 -212c0 -36 3.5 -70 10.5 -102s17.833 -60 32.5 -84c20 -35.333 46.833 -61.666 80.5 -78.999s70.834 -26 111.501 -26c40 0 76.667 9.33301 110 28s63 45 89 79c14 18 27.833 39.5 41.5 64.5s24.834 49.167 33.501 72.5l127 -59
c-16.667 -44 -38.167 -85.667 -64.5 -125s-54.5 -72.333 -84.5 -99c-39.333 -34.667 -81.666 -59.167 -126.999 -73.5s-98.666 -21.5 -159.999 -21.5c-62.667 0 -115.334 9.33301 -158.001 28s-80.667 46.667 -114 84c-36 40 -63.167 87.5 -81.5 142.5
s-27.5 119.5 -27.5 193.5c0 88.667 11.5 170.167 34.5 244.5s55.833 140.166 98.5 197.499c51.333 67.333 109.333 116.5 174 147.5s134.334 46.5 209.001 46.5c60 0 113.333 -9.33301 160 -28s87 -46.667 121 -84c31.333 -34.667 54.833 -74.167 70.5 -118.5
s23.5 -89.5 23.5 -135.5z" />
    <glyph glyph-name="d" unicode="d" horiz-adv-x="1146" 
d="M1112 1404l-232 -1404h-143l24 190c-40.667 -70.667 -89.834 -123.334 -147.501 -158.001s-120.5 -52 -188.5 -52c-58 0 -108.333 10 -151 30s-79.667 49.333 -111 88c-33.333 41.333 -57.666 88.333 -72.999 141s-23 112 -23 178c0 122 20.667 231.167 62 327.5
s94.333 170.833 159 223.5c40.667 33.333 84 57.666 130 72.999s93.667 23 143 23c74 0 136.333 -16.5 187 -49.5s88.667 -79.167 114 -138.5h4l90 528h156zM585 929.002c-62 0 -116.665 -19.832 -163.998 -59.499s-85.333 -94.167 -114 -163.5
c-18.667 -44 -33.334 -92.667 -44.001 -146s-16 -107.666 -16 -162.999c0 -46.667 5.33301 -86.834 16 -120.501s26 -63.167 46 -88.5c20 -26 43.333 -44.833 70 -56.5s55.667 -17.5 87 -17.5c32.667 0 66.167 7 100.5 21s65.166 33.667 92.499 59
c26 24 49.5 54.167 70.5 90.5s39.167 77.166 54.5 122.499c12 36 21.167 73.333 27.5 112s9.5 77.667 9.5 117c0 91.333 -21.833 163 -65.5 215s-100.5 78 -170.5 78z" />
    <glyph glyph-name="e" unicode="e" horiz-adv-x="1101" 
d="M1015 499l-761.999 0.00195312c-2.66699 -14 -4.66699 -28.333 -6 -43s-2 -29.667 -2 -45c0 -26 2.5 -52 7.5 -78s12.167 -49 21.5 -69c22.667 -50.667 55.334 -88.334 98.001 -113.001s92.667 -37 150 -37c42 0 79.167 5.16699 111.5 15.5s62.5 27.166 90.5 50.499
c21.333 16.667 40.5 36.167 57.5 58.5s31.5 45.833 43.5 70.5l137 -70c-19.333 -33.333 -42.333 -65.166 -69 -95.499s-55.667 -56.5 -87 -78.5c-42 -30 -86.833 -51.667 -134.5 -65s-99.5 -20 -155.5 -20c-68.667 0 -129 10.333 -181 31s-97.667 51.667 -137 93
c-42 44.667 -73.667 97.334 -95 158.001s-32 124.667 -32 192c0 71.333 10.5 142.166 31.5 212.499s53.5 134.166 97.5 191.499c50.667 66 110 116.833 178 152.5s143.333 53.5 226 53.5c61.333 0 116.666 -9 165.999 -27s90.666 -42.333 123.999 -73
c43.333 -39.333 75.333 -88.833 96 -148.5s31 -133.167 31 -220.5c0 -15.333 -0.5 -31 -1.5 -47s-2.5 -32.333 -4.5 -49zM274.001 626.002h584v19.5v19.5c-1.33301 39.333 -6 73.833 -14 103.5s-20.667 55.834 -38 78.501c-20.667 28 -48.334 50 -83.001 66
s-74.334 24 -119.001 24c-40 0 -78 -7 -114 -21s-68.333 -34 -97 -60c-29.333 -26.667 -54.666 -59.834 -75.999 -99.501s-35.666 -83.167 -42.999 -130.5z" />
    <glyph glyph-name="f" unicode="f" horiz-adv-x="624" 
d="M806 1425l-19.999 -127c-11.333 1.33301 -22.333 2.33301 -33 3s-21.667 1 -33 1c-53.333 0 -96.166 -5.16699 -128.499 -15.5s-59.833 -25.5 -82.5 -45.5c-22 -20.667 -40 -47.167 -54 -79.5s-24.667 -71.5 -32 -117.5h265l-21 -127h-264l-150 -917h-155l149 917h-176
l21 127h176l16 70c14 57.333 29.5 101.5 46.5 132.5s39.167 59.167 66.5 84.5c38 34.667 81.333 59.667 130 75s109 23 181 23c17.333 0 34.166 -0.333008 50.499 -1s32.166 -1.66699 47.499 -3z" />
    <glyph glyph-name="g" unicode="g" horiz-adv-x="1075" 
d="M1126 1263l-8.00293 -137.002c-14 3.33301 -27.667 5.83301 -41 7.5s-26.333 2.5 -39 2.5c-22 0 -42.833 -2.33301 -62.5 -7s-37.167 -12 -52.5 -22c-16.667 -10.667 -32.167 -25.167 -46.5 -43.5s-25.5 -39.166 -33.5 -62.499c44.667 -28 78 -64.167 100 -108.5
s33 -92.166 33 -143.499s-8.5 -98.833 -25.5 -142.5s-40.5 -82.167 -70.5 -115.5c-39.333 -44 -88 -77.833 -146 -101.5s-121.333 -35.5 -190 -35.5c-34.667 0 -67 3.83301 -97 11.5s-59.667 19.5 -89 35.5c-40.667 -16 -73.667 -37 -99 -63s-38 -51.333 -38 -76
c0 -22 7.16699 -38.333 21.5 -49s39.166 -17 74.499 -19l160 -8c19.333 -1.33301 55.333 -2.66602 108 -3.99902s93 -3.33301 121 -6c48.667 -5.33301 90.334 -15.833 125.001 -31.5s62.667 -36.167 84 -61.5c18.667 -21.333 32.834 -46.5 42.501 -75.5
s14.5 -57.167 14.5 -84.5c0 -38.667 -9 -78 -27 -118s-43.667 -73.667 -77 -101c-37.333 -30.667 -88.833 -54.5 -154.5 -71.5s-147.5 -25.5 -245.5 -25.5c-90.667 0 -167.167 5 -229.5 15s-114.166 25.667 -155.499 47c-43.333 22 -76.833 50 -100.5 84s-35.5 70 -35.5 108
c0 51.333 17 96.333 51 135s82.333 69.334 145 92.001c-24 9.33301 -44 26.333 -60 51s-24 52.667 -24 84c0 49.333 17.667 92.5 53 129.5s90 71.5 164 103.5c-37.333 28 -65.5 63.333 -84.5 106s-28.5 90.667 -28.5 144c0 48.667 10.667 95.667 32 141s52.333 85 93 119
s86.667 58.833 138 74.5s106.333 23.5 165 23.5c32.667 0 61.834 -1.83301 87.501 -5.5s50.5 -9.83398 74.5 -18.501c8.66699 28 20 55.167 34 81.5s28.667 48.166 44 65.499c24.667 28 53 49 85 63s70.667 21 116 21c14 0 29 -0.666992 45 -2s32.333 -3.33301 49 -6z
M586.997 936.998c-36 0 -68.8301 -5.33301 -98.4971 -16s-55.5 -25.667 -77.5 -45c-26 -23.333 -45.833 -51.333 -59.5 -84s-20.5 -66.667 -20.5 -102c0 -66 21.5 -117.333 64.5 -154s96.833 -55 161.5 -55c43.333 0 81.666 8.16699 114.999 24.5s61.666 39.5 84.999 69.5
c17.333 22.667 30.166 47.334 38.499 74.001s12.5 60.667 12.5 102c0 55.333 -19.5 100.166 -58.5 134.499s-93.167 51.5 -162.5 51.5zM555 19.998l-115 4.00195c-68 2.66699 -112.5 5.16699 -133.5 7.5s-42.833 6.16602 -65.5 11.499
c-54.667 -24.667 -90.834 -47.334 -108.501 -68.001s-26.5 -45 -26.5 -73c0 -20 5.33301 -39 16 -57s25.667 -33.667 45 -47c32.667 -22.667 78.834 -39 138.501 -49s130.5 -15 212.5 -15c50 0 91 3.83301 123 11.5s62.667 19.5 92 35.5c26.667 15.333 46.667 32.5 60 51.5
s20 40.833 20 65.5c0 24 -5.66699 44 -17 60s-27 28.667 -47 38c-12.667 5.33301 -27.667 10 -45 14s-67 7.33301 -149 10z" />
    <glyph glyph-name="h" unicode="h" horiz-adv-x="1128" 
d="M462 1404l-90 -544.002c34 64 81.333 114 142 150s127.334 54 200.001 54c41.333 0 78.166 -5.5 110.499 -16.5s61.833 -27.833 88.5 -50.5c32 -28 56 -60.167 72 -96.5s24 -80.5 24 -132.5c0 -23.333 -0.833008 -46 -2.5 -68s-4.16699 -44 -7.5 -66l-105 -634h-155
l104 634c5.33301 29.333 8.83301 52.833 10.5 70.5s2.5 33.834 2.5 48.501c0 26 -2.33301 47.333 -7 64s-12.667 32.334 -24 47.001c-15.333 20 -35.5 35.833 -60.5 47.5s-53.5 17.5 -85.5 17.5c-37.333 0 -73.5 -8.16699 -108.5 -24.5s-67.5 -40.833 -97.5 -73.5
c-39.333 -41.333 -73.5 -94.833 -102.5 -160.5s-48.167 -126.167 -57.5 -181.5l-82 -489h-156l232 1404h155z" />
    <glyph glyph-name="i" unicode="i" horiz-adv-x="448" 
d="M401 1044l-170 -1044h-156l170 1044h156zM471 1409l-31 -181h-172l31 181h172z" />
    <glyph glyph-name="j" unicode="j" horiz-adv-x="473" 
d="M405 1044l-156 -950.001c-32.667 -198.667 -78 -323.667 -136 -375s-138.667 -77 -242 -77c-19.333 0 -39.333 1.16699 -60 3.5s-43 5.83301 -67 10.5l13 136c20.667 -5.33301 39.167 -9.16602 55.5 -11.499s32.5 -3.5 48.5 -3.5c67.333 0 117 16.167 149 48.5
s54.333 88.5 67 168.5l172 1050h156zM471 1409l-27 -181h-172l27 181h172z" />
    <glyph glyph-name="k" unicode="k" horiz-adv-x="1034" 
d="M462 1404l-149 -899l569 539h172l-379 -365l252 -679h-172l-211 569l-260 -248l-53 -321h-156l232 1404h155z" />
    <glyph glyph-name="l" unicode="l" horiz-adv-x="468" 
d="M462 1404l-231 -1404h-156l232 1404h155z" />
    <glyph glyph-name="m" unicode="m" horiz-adv-x="1691" 
d="M231 0l-155.998 -0.00488281l170 1044h144l-29 -172h6c28 58 68.167 104.5 120.5 139.5s113.166 52.5 182.499 52.5c38 0 73 -6.16699 105 -18.5s59.333 -29.166 82 -50.499c18 -17.333 34.5 -39.666 49.5 -66.999s26.5 -56.333 34.5 -87h4
c39.333 67.333 89.166 121.333 149.499 162s122.5 61 186.5 61c36.667 0 73.5 -6.83301 110.5 -20.5s67.5 -33.167 91.5 -58.5c25.333 -26.667 45 -60.167 59 -100.5s21 -82.166 21 -125.499c0 -29.333 -1.5 -60.666 -4.5 -93.999s-8.16699 -72.333 -15.5 -117l-90 -548
h-156l102 622c2.66699 16 4.66699 33 6 51s2 38 2 60c0 37.333 -2.66699 66.833 -8 88.5s-13.333 39.834 -24 54.501c-13.333 18 -30 31.333 -50 40s-42.333 13 -67 13c-42 0 -83.667 -12.5 -125 -37.5s-77.333 -61.5 -108 -109.5c-24 -36 -45 -80.5 -63 -133.5
s-31.333 -106.167 -40 -159.5l-80 -489h-155l106 610c4 22.667 7 44.834 9 66.501s3 43.167 3 64.5c0 24.667 -3 48.667 -9 72s-15 43.666 -27 60.999c-12.667 17.333 -28.834 30.833 -48.501 40.5s-43.167 14.5 -70.5 14.5c-30.667 0 -62.167 -8 -94.5 -24
s-63.166 -40 -92.499 -72c-34 -36.667 -63.333 -84.167 -88 -142.5s-43 -121.5 -55 -189.5z" />
    <glyph glyph-name="n" unicode="n" horiz-adv-x="1153" 
d="M231 0l-156 0.000976562l172 1044h144l-37 -215h4c45.333 77.333 97 135.833 155 175.5s126.333 59.5 205 59.5c44.667 0 85.834 -7.5 123.501 -22.5s71.167 -37.5 100.5 -67.5c30.667 -31.333 52.667 -65.5 66 -102.5s20 -78.5 20 -124.5c0 -24.667 -1.33301 -51 -4 -79
s-7 -59 -13 -93l-98 -575h-156l107 620c3.33301 21.333 5.83301 40.166 7.5 56.499s2.5 31.5 2.5 45.5c0 32.667 -4.33301 62.5 -13 89.5s-22 49.833 -40 68.5c-16 16.667 -34.333 29 -55 37s-44.667 12 -72 12c-53.333 0 -102.833 -13.5 -148.5 -40.5
s-87.167 -68.167 -124.5 -123.5c-22.667 -34 -44.334 -78 -65.001 -132s-35 -104.667 -43 -152z" />
    <glyph glyph-name="o" unicode="o" horiz-adv-x="1103" 
d="M616 1064c60 0 114.002 -9.16309 162.002 -27.4961s90.333 -46.5 127 -84.5c40.667 -42.667 70.667 -92.834 90 -150.501s29 -120.834 29 -189.501c0 -102 -17.5 -195.833 -52.5 -281.5s-82.5 -157.834 -142.5 -216.501c-48.667 -47.333 -99.334 -81.5 -152.001 -102.5
s-112 -31.5 -178 -31.5c-80 0 -146 12 -198 36s-95 59.333 -129 106c-30 40.667 -53 87.5 -69 140.5s-24 110.167 -24 171.5c0 101.333 17.667 195 53 281s82.666 157.333 141.999 214c47.333 45.333 98.833 79.166 154.5 101.499s118.167 33.5 187.5 33.5zM606.002 929.004
c-50 0 -94.1689 -10.666 -132.502 -31.999s-72.166 -51.666 -101.499 -90.999c-34 -45.333 -61.167 -104 -81.5 -176s-30.5 -142.333 -30.5 -211c0 -91.333 20.333 -165 61 -221s100 -84 178 -84c52 0 99.833 13.167 143.5 39.5s81.834 67.166 114.501 122.499
c26 43.333 46.833 98.166 62.5 164.499s23.5 130.833 23.5 193.5c0 86.667 -20.5 157.5 -61.5 212.5s-99.5 82.5 -175.5 82.5z" />
    <glyph glyph-name="p" unicode="p" horiz-adv-x="1142" 
d="M172 -339h-156.002l229 1383h142l-35 -203h4c42.667 72 96.5 127.167 161.5 165.5s133.167 57.5 204.5 57.5c51.333 0 96 -7.66699 134 -23s72 -37.666 102 -66.999c38 -36.667 65.667 -77.667 83 -123s26 -97 26 -155c0 -90 -14.167 -183.333 -42.5 -280
s-68.166 -180.334 -119.499 -251.001c-48 -66 -99.333 -113.333 -154 -142s-118 -43 -190 -43c-72.667 0 -135.667 15.167 -189 45.5s-93.666 74.833 -120.999 133.5l-4 2zM664.998 929c-48 0 -95.166 -14.166 -141.499 -42.499s-87.166 -70.166 -122.499 -125.499
c-30.667 -48 -55.334 -105 -74.001 -171s-28 -132.333 -28 -199c0 -85.333 21.333 -152.833 64 -202.5s99.667 -74.5 171 -74.5c44 0 89.5 15.333 136.5 46s86.833 76 119.5 136c25.333 47.333 47.666 108.666 66.999 183.999s29 141 29 197
c0 35.333 -4.33301 68.666 -13 99.999s-22.667 59 -42 83s-42.333 41.5 -69 52.5s-59 16.5 -97 16.5z" />
    <glyph glyph-name="q" unicode="q" horiz-adv-x="1128" 
d="M821 -339l-155.999 0.000976562l78 478h-4c-34.667 -52.667 -80.167 -92.334 -136.5 -119.001s-116.833 -40 -181.5 -40c-52.667 0 -100.5 9.83301 -143.5 29.5s-79.833 47.834 -110.5 84.501c-30.667 37.333 -54 81.333 -70 132s-24 109.667 -24 177
c0 89.333 9.5 168.5 28.5 237.5s45.833 131.833 80.5 188.5c48 79.333 105.167 138.333 171.5 177s137.5 58 213.5 58c57.333 0 106.833 -7.33301 148.5 -22s78.167 -37.334 109.5 -68.001c14.667 -14 27.667 -29.333 39 -46s20.666 -34 27.999 -52l84 168h74z
M591.001 929.001c-37.333 0 -74.1689 -8.66699 -110.502 -26s-69.166 -43.333 -98.499 -78c-38.667 -46 -69.834 -108.167 -93.501 -186.5s-35.5 -158.833 -35.5 -241.5c0 -40 4.5 -77.833 13.5 -113.5s22.5 -66.167 40.5 -91.5c18.667 -26 41.334 -45.5 68.001 -58.5
s55.667 -19.5 87 -19.5c58.667 0 113.334 19 164.001 57s91.667 88.667 123 152c21.333 43.333 38.333 93.666 51 150.999s19 112 19 164c0 90.667 -20 161.834 -60 213.501s-96 77.5 -168 77.5z" />
    <glyph glyph-name="r" unicode="r" horiz-adv-x="727" 
d="M231 0l-156.001 -0.000976562l172 1044h144l-41 -250h6c22.667 47.333 48.5 89.5 77.5 126.5s59.167 65.833 90.5 86.5c27.333 18 59 32 95 42s71 15 105 15c6.66699 0 13.334 -0.166992 20.001 -0.5s14.667 -1.5 24 -3.5l-13 -157h-13.5h-17.5
c-20.667 -0.666992 -39 -1.83398 -55 -3.50098s-31 -4.16699 -45 -7.5c-26 -6 -50 -15.167 -72 -27.5s-45 -30.166 -69 -53.499c-47.333 -47.333 -86.333 -103.166 -117 -167.499s-54.667 -148.5 -72 -252.5z" />
    <glyph glyph-name="s" unicode="s" horiz-adv-x="995" 
d="M923 819l-141 -55.9922c-3.33301 19.333 -9.33301 37.666 -18 54.999s-19.667 33.333 -33 48c-23.333 24.667 -50.333 42.667 -81 54s-66.667 17 -108 17c-35.333 0 -66.166 -3.5 -92.499 -10.5s-49.5 -17.833 -69.5 -32.5c-21.333 -15.333 -37.833 -34.333 -49.5 -57
s-17.5 -45.667 -17.5 -69c0 -16 3 -31.833 9 -47.5s15.333 -29.5 28 -41.5c15.333 -14.667 37.5 -27.334 66.5 -38.001s64.167 -19 105.5 -25l26 -4c81.333 -12.667 143.166 -28.334 185.499 -47.001s76.833 -43.334 103.5 -74.001c20.667 -23.333 36.5 -49 47.5 -77
s16.5 -58.333 16.5 -91c0 -64.667 -17.833 -123.334 -53.5 -176.001s-80.167 -92.334 -133.5 -119.001c-33.333 -16.667 -72.833 -28.834 -118.5 -36.501s-98.167 -11.5 -157.5 -11.5c-77.333 0 -140.833 7.83301 -190.5 23.5s-91.5 39.5 -125.5 71.5
c-25.333 24.667 -46.833 54.334 -64.5 89.001s-30.167 70 -37.5 106l147 47c6.66699 -26.667 16.834 -52.834 30.501 -78.501s29.5 -47.167 47.5 -64.5c24 -23.333 51.667 -40.5 83 -51.5s69.333 -16.5 114 -16.5c35.333 0 68.5 3.33301 99.5 10s57.833 15.667 80.5 27
c31.333 16 55.5 36.833 72.5 62.5s25.5 53.167 25.5 82.5c0 20 -4.16699 40 -12.5 60s-19.833 36.333 -34.5 49c-12 10 -28.333 18.667 -49 26s-66.334 17 -137.001 29l-25 4c-54.667 9.33301 -104.167 22.666 -148.5 39.999s-78.833 37.666 -103.5 60.999
c-24 22.667 -42.833 51 -56.5 85s-20.5 69.667 -20.5 107c0 46.667 9.83301 90.167 29.5 130.5s46.5 73.833 80.5 100.5c35.333 28.667 78 49.834 128 63.501s109 20.5 177 20.5c44 0 83.833 -3.5 119.5 -10.5s68.167 -18.5 97.5 -34.5c42 -21.333 76.167 -49 102.5 -83
s44.833 -73 55.5 -117z" />
    <glyph glyph-name="t" unicode="t" horiz-adv-x="653" 
d="M468 1323l-44.998 -279.002h236l-21 -127h-235l-84 -506c-10.667 -62.667 -16.667 -103 -18 -121s-2 -34.333 -2 -49c0 -22.667 2.33301 -40.667 7 -54s11.667 -24.666 21 -33.999c11.333 -10.667 25.833 -18.5 43.5 -23.5s38.834 -7.5 63.501 -7.5
c15.333 0 34.666 1 57.999 3s45.666 4.66699 66.999 8l-15 -131c-24 -4.66699 -46.833 -8.16699 -68.5 -10.5s-45.167 -3.5 -70.5 -3.5c-44 0 -79.667 3.33301 -107 10s-51 16.667 -71 30c-28.667 19.333 -50.834 44.833 -66.501 76.5s-23.5 71.834 -23.5 120.501v17
c0 5.33301 7.33301 52 22 140l88 535h-155l20 127h156l43 262z" />
    <glyph glyph-name="u" unicode="u" horiz-adv-x="1110" 
d="M393 1044l-82.001 -494.002c-23.333 -137.333 -35.333 -212.333 -36 -225s-1 -26.334 -1 -41.001c0 -32 3.5 -57.667 10.5 -77s17.167 -36 30.5 -50c14 -14 30.833 -24.667 50.5 -32s40.5 -11 62.5 -11c44 0 85.333 10.333 124 31s74.334 52.667 107.001 96
s62.167 98.5 88.5 165.5s44.5 130.833 54.5 191.5l76 446h156l-172 -1044h-144l35 229h-4c-18 -38.667 -40 -74.667 -66 -108s-52.333 -59.333 -79 -78c-30 -21.333 -64.167 -37.166 -102.5 -47.499s-75.833 -15.5 -112.5 -15.5c-38 0 -73.667 5.83301 -107 17.5
s-62 28.834 -86 51.501c-25.333 23.333 -45 52.833 -59 88.5s-21 79.834 -21 132.501c0 12 0.333008 24.5 1 37.5s8 61.167 22 144.5l98 592h156z" />
    <glyph glyph-name="v" unicode="v" horiz-adv-x="921" 
d="M978 1044l-522 -1044h-168l-207 1044h181l151 -850h4l418 850h143z" />
    <glyph glyph-name="w" unicode="w" horiz-adv-x="1378" 
d="M1429 1044l-471 -1044h-131l-107 776h-2l-338 -776h-131l-147 1044h164l96 -782l4 2l340 780h127l107 -778l2 -2l348 780h139z" />
    <glyph glyph-name="x" unicode="x" horiz-adv-x="917" 
d="M319 1044l166 -360l283 360h155l-377 -471l269 -573h-189l-194 421l-342 -421h-155l435 538l-239 506h188z" />
    <glyph glyph-name="y" unicode="y" horiz-adv-x="882" 
d="M819 1044l139 -0.00195312l-588 -1142c-23.333 -46 -46 -84.167 -68 -114.5s-44.333 -54.833 -67 -73.5c-29.333 -25.333 -60.666 -44 -93.999 -56s-70.333 -18 -111 -18c-21.333 0 -43.333 1.83301 -66 5.5s-44.667 8.83398 -66 15.501l21 129
c16 -5.33301 32 -9.16602 48 -11.499s32.333 -3.5 49 -3.5c29.333 0 54 2.83301 74 8.5s39 15.167 57 28.5c21.333 15.333 44.166 39.5 68.499 72.5s44.5 66.167 60.5 99.5l16 34l-198 1026h172l147 -803z" />
    <glyph glyph-name="z" unicode="z" horiz-adv-x="845" 
d="M876 1044l-12 -88l-703 -825h570l-19 -131h-763l19 126l677 787h-510l18 131h723z" />
    <glyph glyph-name="braceleft" unicode="{" horiz-adv-x="587" 
d="M722 1425l-20.0039 -122.997h-49c-24 0 -43 -2 -57 -6s-25.667 -10.333 -35 -19c-9.33301 -8 -17 -18.333 -23 -31s-12 -37 -18 -73l-56 -332c-5.33301 -32.667 -14.166 -64 -26.499 -94s-27.166 -57.333 -44.499 -82c-16 -22 -35.167 -44 -57.5 -66
s-45.5 -41.667 -69.5 -59v-2c35.333 -23.333 61.5 -53.5 78.5 -90.5s25.5 -81.167 25.5 -132.5c0 -15.333 -0.666992 -30.833 -2 -46.5s-3.33301 -31.5 -6 -47.5l-51 -317c-1.33301 -8.66699 -2.33301 -16.667 -3 -24s-1 -14.333 -1 -21c0 -14.667 1 -26.334 3 -35.001
s5.66699 -16 11 -22c6.66699 -8.66699 17 -15.667 31 -21s29 -8 45 -8h55l-20 -123h-95c-29.333 0 -57.166 4.16699 -83.499 12.5s-46.833 19.166 -61.5 32.499c-13.333 12.667 -23.833 29.167 -31.5 49.5s-11.5 43.5 -11.5 69.5c0 7.33301 1 19.666 3 36.999s5 39.333 9 66
l45 287c6.66699 39.333 10.5 64.833 11.5 76.5s1.5 22.5 1.5 32.5c0 31.333 -5.5 59.833 -16.5 85.5s-26.833 45.5 -47.5 59.5c-10 7.33301 -20.667 12.5 -32 15.5s-22.333 4.16699 -33 3.5l20 123c18 -1.33301 37.167 2.66699 57.5 12s39.5 22.333 57.5 39
c24 22.667 42.833 49.5 56.5 80.5s25.5 77.167 35.5 138.5l51 321c8.66699 54.667 20.167 95.5 34.5 122.5s34.833 49.833 61.5 68.5c21.333 14.667 44.833 25.5 70.5 32.5s54.834 10.5 87.501 10.5h100z" />
    <glyph glyph-name="bar" unicode="|" horiz-adv-x="1001" 
d="M548 1404v-1404h-123v1404h123z" />
    <glyph glyph-name="braceright" unicode="}" horiz-adv-x="587" 
d="M157 1425l112.997 -0.0078125c32 0 59.167 -4 81.5 -12s40.833 -19.667 55.5 -35c12 -12.667 20.833 -27.334 26.5 -44.001s8.5 -35.667 8.5 -57c0 -12 -0.666992 -24.667 -2 -38s-3.33301 -29.333 -6 -48l-52 -321c-6 -39.333 -9.5 -64.166 -10.5 -74.499
s-1.5 -20.5 -1.5 -30.5c0 -24 3.33301 -46.333 10 -67s17 -39 31 -55c12 -14 25.333 -24.667 40 -32s30.667 -11 48 -11l-20 -123c-22.667 0 -43 -3.83301 -61 -11.5s-35.333 -19.5 -52 -35.5c-23.333 -22.667 -42.5 -51 -57.5 -85s-27.167 -81 -36.5 -141l-51 -320
c-5.33301 -33.333 -14.5 -64.666 -27.5 -93.999s-27.833 -52.666 -44.5 -69.999c-20 -20.667 -46.667 -37.5 -80 -50.5s-69 -19.5 -107 -19.5h-95l21 123h55c15.333 0 30.666 2.83301 45.999 8.5s28.333 13.834 39 24.501c9.33301 9.33301 17.333 20.833 24 34.5
s12.334 34.834 17.001 63.501l55 333c6.66699 40.667 16.834 78.334 30.501 113.001s30.834 65.334 51.501 92.001c14.667 18.667 31.834 36.334 51.501 53.001s41.5 31 65.5 43v8c-35.333 28 -61.833 62.833 -79.5 104.5s-26.5 87.5 -26.5 137.5c0 6 0.333008 12.333 1 19
s2.33398 18 5.00098 34l55 332c3.33301 18 5.16602 29.833 5.49902 35.5s0.5 10.834 0.5 15.501c0 15.333 -1.66699 27.333 -5 36s-8.33301 16 -15 22c-7.33301 6 -17.5 10.833 -30.5 14.5s-27.5 5.5 -43.5 5.5h-53z" />
    <glyph glyph-name="asciitilde" unicode="~" horiz-adv-x="1198" 
d="M176 444l-84.0029 61.001c19.333 36 42.5 70.833 69.5 104.5s53.5 60.5 79.5 80.5c26 19.333 55.667 35 89 47s65 18 95 18c10 0 20.333 -0.666992 31 -2s22.334 -3.33301 35.001 -6c18.667 -4 37 -9.33301 55 -16s36 -14.334 54 -23.001l53 -27
c64 -32 107.5 -50.833 130.5 -56.5s46.5 -8.5 70.5 -8.5c22 0 43.167 3.33301 63.5 10s39.833 17 58.5 31c14 10 30 25 48 45s33.667 39 47 57l86 -57c-20 -33.333 -43.167 -65.5 -69.5 -96.5s-52.5 -56.167 -78.5 -75.5c-30 -23.333 -61.833 -41.166 -95.5 -53.499
s-66.5 -18.5 -98.5 -18.5c-20 0 -41.167 2.5 -63.5 7.5s-46.5 12.833 -72.5 23.5c-10 4 -20.5 8.66699 -31.5 14s-31.167 15.666 -60.5 30.999l-51 27c-28 14 -53.167 24 -75.5 30s-44.166 9 -65.499 9s-41.666 -3.5 -60.999 -10.5s-39.333 -18.5 -60 -34.5
c-15.333 -12.667 -32 -29.167 -50 -49.5s-34 -40.833 -48 -61.5z" />
    <glyph glyph-name="afii10051" horiz-adv-x="1398" 
d="M155 1404l975.003 -0.000976562l-27 -151h-419l-78 -481c50.667 18 104.167 32 160.5 42s111.166 15 164.499 15c74 0 137.833 -11.167 191.5 -33.5s96.5 -54.166 128.5 -95.499c21.333 -27.333 37.833 -60.833 49.5 -100.5s17.5 -84.834 17.5 -135.501
c0 -69.333 -11 -133.166 -33 -191.499s-56 -111.166 -102 -158.499s-96.5 -81.5 -151.5 -102.5s-116.5 -31.5 -184.5 -31.5c-38 0 -75.333 3.16699 -112 9.5s-72.334 15.166 -107.001 26.499l60 141c22.667 -8.66699 45.667 -15.167 69 -19.5s47.333 -6.5 72 -6.5
c45.333 0 87 6.66699 125 20s70 32.333 96 57c28 27.333 50 62 66 104s24 87.333 24 136c0 28.667 -2.83301 54.167 -8.5 76.5s-13.834 41.833 -24.501 58.5c-20 31.333 -47.5 54.833 -82.5 70.5s-81.167 23.5 -138.5 23.5c-51.333 0 -102.5 -4.16699 -153.5 -12.5
s-101.5 -21.833 -151.5 -40.5l-102 -624h-176l204 1253h-378z" />
    <glyph glyph-name="afii10051" unicode="&#x402;" horiz-adv-x="1398" 
d="M155 1404l975.003 -0.000976562l-27 -151h-419l-78 -481c50.667 18 104.167 32 160.5 42s111.166 15 164.499 15c74 0 137.833 -11.167 191.5 -33.5s96.5 -54.166 128.5 -95.499c21.333 -27.333 37.833 -60.833 49.5 -100.5s17.5 -84.834 17.5 -135.501
c0 -69.333 -11 -133.166 -33 -191.499s-56 -111.166 -102 -158.499s-96.5 -81.5 -151.5 -102.5s-116.5 -31.5 -184.5 -31.5c-38 0 -75.333 3.16699 -112 9.5s-72.334 15.166 -107.001 26.499l60 141c22.667 -8.66699 45.667 -15.167 69 -19.5s47.333 -6.5 72 -6.5
c45.333 0 87 6.66699 125 20s70 32.333 96 57c28 27.333 50 62 66 104s24 87.333 24 136c0 28.667 -2.83301 54.167 -8.5 76.5s-13.834 41.833 -24.501 58.5c-20 31.333 -47.5 54.833 -82.5 70.5s-81.167 23.5 -138.5 23.5c-51.333 0 -102.5 -4.16699 -153.5 -12.5
s-101.5 -21.833 -151.5 -40.5l-102 -624h-176l204 1253h-378z" />
    <glyph glyph-name="afii10052" horiz-adv-x="1035" 
d="M321 1404h836l-27 -151h-659l-205 -1253h-176zM991 1701l-393 -178l-45 82l377 217z" />
    <glyph glyph-name="afii10052" unicode="&#x403;" horiz-adv-x="1035" 
d="M321 1404h836l-27 -151h-659l-205 -1253h-176zM991 1701l-393 -178l-45 82l377 217z" />
    <glyph glyph-name="afii10061" horiz-adv-x="1252" 
d="M397 804l173.999 -0.00585938c53.333 0 96.833 7.83301 130.5 23.5s63.834 40.834 90.501 75.501c16 20.667 33.833 49 53.5 85s44.167 85.333 73.5 148l33 70c20.667 44 42.667 81.167 66 111.5s47.666 52.5 72.999 66.5c16.667 9.33301 35.834 16.5 57.501 21.5
s45.5 7.5 71.5 7.5c11.333 0 22.833 -0.666992 34.5 -2s24.167 -3.66602 37.5 -6.99902l-23 -139c-4.66699 1.33301 -9.5 2.33301 -14.5 3s-12.5 1 -22.5 1c-18.667 0 -35.167 -3.5 -49.5 -10.5s-28.5 -18.5 -42.5 -34.5c-6 -7.33301 -11.833 -15.333 -17.5 -24
s-29.834 -58 -72.501 -148l-35 -74c-20 -42 -39 -76.833 -57 -104.5s-35 -49.5 -51 -65.5c-16 -15.333 -32.833 -27.333 -50.5 -36s-36.5 -15 -56.5 -19v-6c59.333 -13.333 105.5 -43 138.5 -89s57.167 -119.333 72.5 -220l10 -68c10.667 -68.667 18 -113.167 22 -133.5
s8.33301 -35.833 13 -46.5c6.66699 -14.667 15.334 -25.5 26.001 -32.5s26 -10.5 46 -10.5c9.33301 0 16.666 0.166992 21.999 0.5s10.333 0.833008 15 1.5l-23 -137c-14.667 -6 -30.334 -10.833 -47.001 -14.5s-33 -5.5 -49 -5.5c-25.333 0 -47.833 4.33301 -67.5 13
s-36.167 21.334 -49.5 38.001c-15.333 18.667 -28.166 46.334 -38.499 83.001s-21.833 96.334 -34.5 179.001l-21 133c-8 50.667 -17.667 88.834 -29 114.501s-25.666 46.167 -42.999 61.5c-18 16 -40.167 27.833 -66.5 35.5s-69.5 11.5 -129.5 11.5h-193l-108 -661h-176
l229 1404h176zM1082 1700.99l-393 -178l-45 82l377 217z" />
    <glyph glyph-name="afii10061" unicode="&#x40c;" horiz-adv-x="1252" 
d="M397 804l173.999 -0.00585938c53.333 0 96.833 7.83301 130.5 23.5s63.834 40.834 90.501 75.501c16 20.667 33.833 49 53.5 85s44.167 85.333 73.5 148l33 70c20.667 44 42.667 81.167 66 111.5s47.666 52.5 72.999 66.5c16.667 9.33301 35.834 16.5 57.501 21.5
s45.5 7.5 71.5 7.5c11.333 0 22.833 -0.666992 34.5 -2s24.167 -3.66602 37.5 -6.99902l-23 -139c-4.66699 1.33301 -9.5 2.33301 -14.5 3s-12.5 1 -22.5 1c-18.667 0 -35.167 -3.5 -49.5 -10.5s-28.5 -18.5 -42.5 -34.5c-6 -7.33301 -11.833 -15.333 -17.5 -24
s-29.834 -58 -72.501 -148l-35 -74c-20 -42 -39 -76.833 -57 -104.5s-35 -49.5 -51 -65.5c-16 -15.333 -32.833 -27.333 -50.5 -36s-36.5 -15 -56.5 -19v-6c59.333 -13.333 105.5 -43 138.5 -89s57.167 -119.333 72.5 -220l10 -68c10.667 -68.667 18 -113.167 22 -133.5
s8.33301 -35.833 13 -46.5c6.66699 -14.667 15.334 -25.5 26.001 -32.5s26 -10.5 46 -10.5c9.33301 0 16.666 0.166992 21.999 0.5s10.333 0.833008 15 1.5l-23 -137c-14.667 -6 -30.334 -10.833 -47.001 -14.5s-33 -5.5 -49 -5.5c-25.333 0 -47.833 4.33301 -67.5 13
s-36.167 21.334 -49.5 38.001c-15.333 18.667 -28.166 46.334 -38.499 83.001s-21.833 96.334 -34.5 179.001l-21 133c-8 50.667 -17.667 88.834 -29 114.501s-25.666 46.167 -42.999 61.5c-18 16 -40.167 27.833 -66.5 35.5s-69.5 11.5 -129.5 11.5h-193l-108 -661h-176
l229 1404h176zM1082 1700.99l-393 -178l-45 82l377 217z" />
    <glyph glyph-name="afii10060" horiz-adv-x="1398" 
d="M155 1404l974.998 -0.00195312l-27 -151h-419l-78 -481c55.333 18 111.833 32 169.5 42s109.5 15 155.5 15c73.333 0 136.833 -8.66699 190.5 -26s96.167 -44.333 127.5 -81c22 -24.667 39 -56.334 51 -95.001s18 -82 18 -130c0 -9.33301 -0.333008 -19.166 -1 -29.499
s-2.33398 -22.166 -5.00098 -35.499l-69 -432h-176l63 389c2 12.667 3.5 25.167 4.5 37.5s1.5 24.833 1.5 37.5c0 29.333 -2.66699 54.833 -8 76.5s-13.666 39.834 -24.999 54.501c-18.667 26.667 -47.5 47 -86.5 61s-86.5 21 -142.5 21
c-47.333 0 -95.666 -4.33301 -144.999 -13s-98.666 -22 -147.999 -40l-102 -624h-176l204 1253h-378z" />
    <glyph glyph-name="afii10060" unicode="&#x40b;" horiz-adv-x="1398" 
d="M155 1404l974.998 -0.00195312l-27 -151h-419l-78 -481c55.333 18 111.833 32 169.5 42s109.5 15 155.5 15c73.333 0 136.833 -8.66699 190.5 -26s96.167 -44.333 127.5 -81c22 -24.667 39 -56.334 51 -95.001s18 -82 18 -130c0 -9.33301 -0.333008 -19.166 -1 -29.499
s-2.33398 -22.166 -5.00098 -35.499l-69 -432h-176l63 389c2 12.667 3.5 25.167 4.5 37.5s1.5 24.833 1.5 37.5c0 29.333 -2.66699 54.833 -8 76.5s-13.666 39.834 -24.999 54.501c-18.667 26.667 -47.5 47 -86.5 61s-86.5 21 -142.5 21
c-47.333 0 -95.666 -4.33301 -144.999 -13s-98.666 -22 -147.999 -40l-102 -624h-176l204 1253h-378z" />
    <glyph glyph-name="afii10145" horiz-adv-x="1327" 
d="M319 1404h176l-205 -1251h633l205 1251h176l-229 -1404h-441l-51 -307h-164l52 307h-381z" />
    <glyph glyph-name="afii10145" unicode="&#x40f;" horiz-adv-x="1327" 
d="M319 1404h176l-205 -1251h633l205 1251h176l-229 -1404h-441l-51 -307h-164l52 307h-381z" />
    <glyph glyph-name="afii10099" horiz-adv-x="1128" 
d="M462 1404l-25.999 -154.999h336l-21 -119h-336l-51 -317c42.667 68 96.5 121.167 161.5 159.5s136.167 57.5 213.5 57.5c53.333 0 99.166 -8.66699 137.499 -26s68.166 -41 89.499 -71c15.333 -20.667 26.666 -45.834 33.999 -75.501s11 -64.5 11 -104.5
c0 -14.667 -0.833008 -29.834 -2.5 -45.501s-4.16699 -34.5 -7.5 -56.5l-96 -586c-12.667 -74 -28.167 -134 -46.5 -180s-41.166 -85.333 -68.499 -118c-34 -40.667 -73.833 -71.667 -119.5 -93s-95.834 -32 -150.501 -32c-24 0 -49.5 2.16699 -76.5 6.5
s-56.167 11.166 -87.5 20.499l22 133c24 -8.66699 47.167 -15 69.5 -19s46.5 -6 72.5 -6c39.333 0 72.5 7 99.5 21s50.5 37 70.5 69c12 20.667 22.333 45 31 73s18 71 28 129l90 543c6 34.667 10 61.334 12 80.001s3 36.334 3 53.001c0 14.667 -2 29 -6 43
s-9.66699 27 -17 39c-13.333 22 -32.333 38.667 -57 50s-54 17 -88 17c-31.333 0 -60.166 -3.83301 -86.499 -11.5s-52.166 -19.5 -77.499 -35.5c-60 -36 -106.5 -82.5 -139.5 -139.5s-56.167 -126.5 -69.5 -208.5l-82 -499h-156l185 1130h-177l21 119h176l27 155h155z" />
    <glyph glyph-name="afii10099" unicode="&#x452;" horiz-adv-x="1128" 
d="M462 1404l-25.999 -154.999h336l-21 -119h-336l-51 -317c42.667 68 96.5 121.167 161.5 159.5s136.167 57.5 213.5 57.5c53.333 0 99.166 -8.66699 137.499 -26s68.166 -41 89.499 -71c15.333 -20.667 26.666 -45.834 33.999 -75.501s11 -64.5 11 -104.5
c0 -14.667 -0.833008 -29.834 -2.5 -45.501s-4.16699 -34.5 -7.5 -56.5l-96 -586c-12.667 -74 -28.167 -134 -46.5 -180s-41.166 -85.333 -68.499 -118c-34 -40.667 -73.833 -71.667 -119.5 -93s-95.834 -32 -150.501 -32c-24 0 -49.5 2.16699 -76.5 6.5
s-56.167 11.166 -87.5 20.499l22 133c24 -8.66699 47.167 -15 69.5 -19s46.5 -6 72.5 -6c39.333 0 72.5 7 99.5 21s50.5 37 70.5 69c12 20.667 22.333 45 31 73s18 71 28 129l90 543c6 34.667 10 61.334 12 80.001s3 36.334 3 53.001c0 14.667 -2 29 -6 43
s-9.66699 27 -17 39c-13.333 22 -32.333 38.667 -57 50s-54 17 -88 17c-31.333 0 -60.166 -3.83301 -86.499 -11.5s-52.166 -19.5 -77.499 -35.5c-60 -36 -106.5 -82.5 -139.5 -139.5s-56.167 -126.5 -69.5 -208.5l-82 -499h-156l185 1130h-177l21 119h176l27 155h155z" />
    <glyph glyph-name="afii10109" horiz-adv-x="1024" 
d="M331 606l140.001 -0.00292969c46.667 0 85.5 7.83301 116.5 23.5s60.833 49.5 89.5 101.5l17.5 31.5c6.33301 11.667 29.833 58.5 70.5 140.5c17.333 34 32.666 59.333 45.999 76s29 30.667 47 42c16 10.667 33.167 18.5 51.5 23.5s41.166 7.5 68.499 7.5
c9.33301 0 18.5 -0.333008 27.5 -1s18.5 -1.66699 28.5 -3l-17 -125c-3.33301 0.666992 -7 1.16699 -11 1.5s-8.33301 0.5 -13 0.5c-10 0 -19.5 -1.16699 -28.5 -3.5s-17.167 -5.83301 -24.5 -10.5c-9.33301 -5.33301 -17.5 -12 -24.5 -20s-15.5 -20.333 -25.5 -37
c-5.33301 -10.667 -10.5 -20.5 -15.5 -29.5s-21.5 -43.833 -49.5 -104.5c-15.333 -32 -30 -58.833 -44 -80.5s-28 -38.5 -42 -50.5c-9.33301 -7.33301 -21.333 -14.666 -36 -21.999s-29.334 -13.666 -44.001 -18.999c47.333 -15.333 82.833 -37.5 106.5 -66.5
s40.167 -70.833 49.5 -125.5l14 -88c4.66699 -30 9.83398 -55.5 15.501 -76.5s11.5 -35.833 17.5 -44.5c6 -10 13.833 -17.333 23.5 -22s21.5 -7 35.5 -7c6 0 11 0.166992 15 0.5s8 0.833008 12 1.5l-21 -122c-11.333 -2 -22.666 -3.5 -33.999 -4.5s-23 -1.5 -35 -1.5
c-30 0 -53.833 2.83301 -71.5 8.5s-32.167 14.167 -43.5 25.5c-12 12 -22 29.833 -30 53.5s-16.333 60.5 -25 110.5c-17.333 98.667 -29.666 158.334 -36.999 179.001s-16.333 38 -27 52c-14.667 20 -33.834 34.667 -57.501 44s-60.5 14 -110.5 14h-145l-80 -479h-156
l172 1044h156zM958.001 1382l-407 -193l-45 82l391 232z" />
    <glyph glyph-name="afii10109" unicode="&#x45c;" horiz-adv-x="1024" 
d="M331 606l140.001 -0.00292969c46.667 0 85.5 7.83301 116.5 23.5s60.833 49.5 89.5 101.5l17.5 31.5c6.33301 11.667 29.833 58.5 70.5 140.5c17.333 34 32.666 59.333 45.999 76s29 30.667 47 42c16 10.667 33.167 18.5 51.5 23.5s41.166 7.5 68.499 7.5
c9.33301 0 18.5 -0.333008 27.5 -1s18.5 -1.66699 28.5 -3l-17 -125c-3.33301 0.666992 -7 1.16699 -11 1.5s-8.33301 0.5 -13 0.5c-10 0 -19.5 -1.16699 -28.5 -3.5s-17.167 -5.83301 -24.5 -10.5c-9.33301 -5.33301 -17.5 -12 -24.5 -20s-15.5 -20.333 -25.5 -37
c-5.33301 -10.667 -10.5 -20.5 -15.5 -29.5s-21.5 -43.833 -49.5 -104.5c-15.333 -32 -30 -58.833 -44 -80.5s-28 -38.5 -42 -50.5c-9.33301 -7.33301 -21.333 -14.666 -36 -21.999s-29.334 -13.666 -44.001 -18.999c47.333 -15.333 82.833 -37.5 106.5 -66.5
s40.167 -70.833 49.5 -125.5l14 -88c4.66699 -30 9.83398 -55.5 15.501 -76.5s11.5 -35.833 17.5 -44.5c6 -10 13.833 -17.333 23.5 -22s21.5 -7 35.5 -7c6 0 11 0.166992 15 0.5s8 0.833008 12 1.5l-21 -122c-11.333 -2 -22.666 -3.5 -33.999 -4.5s-23 -1.5 -35 -1.5
c-30 0 -53.833 2.83301 -71.5 8.5s-32.167 14.167 -43.5 25.5c-12 12 -22 29.833 -30 53.5s-16.333 60.5 -25 110.5c-17.333 98.667 -29.666 158.334 -36.999 179.001s-16.333 38 -27 52c-14.667 20 -33.834 34.667 -57.501 44s-60.5 14 -110.5 14h-145l-80 -479h-156
l172 1044h156zM958.001 1382l-407 -193l-45 82l391 232z" />
    <glyph glyph-name="afii10108" horiz-adv-x="1128" 
d="M462 1404l-26 -155.001h336l-21 -119h-336l-51 -317c41.333 66 94.333 118.667 159 158s137.334 59 218.001 59c52 0 97 -8.5 135 -25.5s68 -40.833 90 -71.5c14.667 -20 25.834 -44.333 33.501 -73s11.5 -61.667 11.5 -99c0 -16 -0.833008 -32.833 -2.5 -50.5
s-4.16699 -37.5 -7.5 -59.5l-107 -651h-155l100 612c7.33301 44 11.666 72 12.999 84s2 23.667 2 35c0 20 -2 38 -6 54s-9.66699 30 -17 42c-13.333 22 -32.333 38.667 -57 50s-54 17 -88 17c-44.667 0 -87.334 -9.16699 -128.001 -27.5s-78.667 -45.166 -114 -80.499
c-34 -34.667 -61.667 -74.5 -83 -119.5s-37.333 -100.833 -48 -167.5l-82 -499h-156l185 1130h-177l21 119h176l27 155h155z" />
    <glyph glyph-name="afii10108" unicode="&#x45b;" horiz-adv-x="1128" 
d="M462 1404l-26 -155.001h336l-21 -119h-336l-51 -317c41.333 66 94.333 118.667 159 158s137.334 59 218.001 59c52 0 97 -8.5 135 -25.5s68 -40.833 90 -71.5c14.667 -20 25.834 -44.333 33.501 -73s11.5 -61.667 11.5 -99c0 -16 -0.833008 -32.833 -2.5 -50.5
s-4.16699 -37.5 -7.5 -59.5l-107 -651h-155l100 612c7.33301 44 11.666 72 12.999 84s2 23.667 2 35c0 20 -2 38 -6 54s-9.66699 30 -17 42c-13.333 22 -32.333 38.667 -57 50s-54 17 -88 17c-44.667 0 -87.334 -9.16699 -128.001 -27.5s-78.667 -45.166 -114 -80.499
c-34 -34.667 -61.667 -74.5 -83 -119.5s-37.333 -100.833 -48 -167.5l-82 -499h-156l185 1130h-177l21 119h176l27 155h155z" />
    <glyph glyph-name="afii10062" unicode="&#xa1;" horiz-adv-x="1167" 
d="M204 1404h201.001l254 -847h6l469 847h176l-583 -1038c-50.667 -89.333 -94.5 -157.666 -131.5 -204.999s-74.5 -84 -112.5 -110c-33.333 -23.333 -68.5 -40.333 -105.5 -51s-74.833 -16 -113.5 -16c-18 0 -37.5 1.33301 -58.5 4s-42.5 6.66699 -64.5 12l24 147
c18 -4 35.667 -7 53 -9s32.666 -3 45.999 -3c27.333 0 53.833 4.16699 79.5 12.5s49.5 21.166 71.5 38.499c23.333 18 46.5 43.167 69.5 75.5s42.167 64.5 57.5 96.5zM464.001 1753l156.001 -0.00195312c-1.33301 -18 0.666992 -34.333 6 -49s13.666 -27.667 24.999 -39
c14 -15.333 30.833 -26.833 50.5 -34.5s42.167 -11.5 67.5 -11.5c26.667 0 51.667 4 75 12s43.333 19.333 60 34c14 11.333 25.5 24.5 34.5 39.5s15.5 31.167 19.5 48.5h155c-10 -38 -25.333 -72.5 -46 -103.5s-44 -56.833 -70 -77.5
c-30.667 -23.333 -66.834 -41.666 -108.501 -54.999s-85.5 -20 -131.5 -20c-48.667 0 -92.167 7 -130.5 21s-69.166 32.667 -92.499 56c-22.667 22.667 -40 49.834 -52 81.501s-18 64.167 -18 97.5z" />
    <glyph glyph-name="afii10062" unicode="&#x40e;" horiz-adv-x="1167" 
d="M204 1404h201.001l254 -847h6l469 847h176l-583 -1038c-50.667 -89.333 -94.5 -157.666 -131.5 -204.999s-74.5 -84 -112.5 -110c-33.333 -23.333 -68.5 -40.333 -105.5 -51s-74.833 -16 -113.5 -16c-18 0 -37.5 1.33301 -58.5 4s-42.5 6.66699 -64.5 12l24 147
c18 -4 35.667 -7 53 -9s32.666 -3 45.999 -3c27.333 0 53.833 4.16699 79.5 12.5s49.5 21.166 71.5 38.499c23.333 18 46.5 43.167 69.5 75.5s42.167 64.5 57.5 96.5zM464.001 1753l156.001 -0.00195312c-1.33301 -18 0.666992 -34.333 6 -49s13.666 -27.667 24.999 -39
c14 -15.333 30.833 -26.833 50.5 -34.5s42.167 -11.5 67.5 -11.5c26.667 0 51.667 4 75 12s43.333 19.333 60 34c14 11.333 25.5 24.5 34.5 39.5s15.5 31.167 19.5 48.5h155c-10 -38 -25.333 -72.5 -46 -103.5s-44 -56.833 -70 -77.5
c-30.667 -23.333 -66.834 -41.666 -108.501 -54.999s-85.5 -20 -131.5 -20c-48.667 0 -92.167 7 -130.5 21s-69.166 32.667 -92.499 56c-22.667 22.667 -40 49.834 -52 81.501s-18 64.167 -18 97.5z" />
    <glyph glyph-name="afii10110" unicode="&#xa2;" horiz-adv-x="883" 
d="M819 1044l139 -0.00195312l-588 -1142c-23.333 -46 -46 -84.167 -68 -114.5s-44.333 -54.833 -67 -73.5c-29.333 -25.333 -60.666 -44 -93.999 -56s-70.333 -18 -111 -18c-21.333 0 -43.333 1.83301 -66 5.5s-44.667 8.83398 -66 15.501l21 129
c16 -5.33301 32 -9.16602 48 -11.499s32.333 -3.5 49 -3.5c29.333 0 54 2.83301 74 8.5s39 15.167 57 28.5c21.333 15.333 44.166 39.5 68.499 72.5s44.5 66.167 60.5 99.5l16 34l-198 1026h172l147 -803zM295 1427h135.002c0.666992 -15.333 3.66699 -30.5 9 -45.5
s12.666 -27.833 21.999 -38.5c12 -12.667 26.5 -22 43.5 -28s35.833 -9 56.5 -9c22 0 41 2.83301 57 8.5s31.333 15.167 46 28.5c12 10.667 22.167 23.167 30.5 37.5s14.5 29.833 18.5 46.5h139c-8 -35.333 -22 -67.833 -42 -97.5s-44.667 -54.5 -74 -74.5
c-25.333 -16.667 -53.5 -29.334 -84.5 -38.001s-63.833 -13 -98.5 -13c-35.333 0 -69.833 4.83301 -103.5 14.5s-61.167 23.834 -82.5 42.501c-20 17.333 -36.833 40.833 -50.5 70.5s-20.834 61.5 -21.501 95.5z" />
    <glyph glyph-name="afii10110" unicode="&#x45e;" horiz-adv-x="883" 
d="M819 1044l139 -0.00195312l-588 -1142c-23.333 -46 -46 -84.167 -68 -114.5s-44.333 -54.833 -67 -73.5c-29.333 -25.333 -60.666 -44 -93.999 -56s-70.333 -18 -111 -18c-21.333 0 -43.333 1.83301 -66 5.5s-44.667 8.83398 -66 15.501l21 129
c16 -5.33301 32 -9.16602 48 -11.499s32.333 -3.5 49 -3.5c29.333 0 54 2.83301 74 8.5s39 15.167 57 28.5c21.333 15.333 44.166 39.5 68.499 72.5s44.5 66.167 60.5 99.5l16 34l-198 1026h172l147 -803zM295 1427h135.002c0.666992 -15.333 3.66699 -30.5 9 -45.5
s12.666 -27.833 21.999 -38.5c12 -12.667 26.5 -22 43.5 -28s35.833 -9 56.5 -9c22 0 41 2.83301 57 8.5s31.333 15.167 46 28.5c12 10.667 22.167 23.167 30.5 37.5s14.5 29.833 18.5 46.5h139c-8 -35.333 -22 -67.833 -42 -97.5s-44.667 -54.5 -74 -74.5
c-25.333 -16.667 -53.5 -29.334 -84.5 -38.001s-63.833 -13 -98.5 -13c-35.333 0 -69.833 4.83301 -103.5 14.5s-61.167 23.834 -82.5 42.501c-20 17.333 -36.833 40.833 -50.5 70.5s-20.834 61.5 -21.501 95.5z" />
    <glyph glyph-name="afii10057" unicode="&#xa3;" horiz-adv-x="768" 
d="M573 1404l176.002 -0.000976562l-141 -874c-24 -146 -45.333 -242.5 -64 -289.5s-44 -88.5 -76 -124.5c-40.667 -45.333 -91.5 -79.333 -152.5 -102s-139.167 -34 -234.5 -34c-36 0 -66.333 1 -91 3s-50.667 5.66699 -78 11l19 155
c28 -5.33301 57.333 -9.66602 88 -12.999s56.334 -5 77.001 -5c46 0 89.167 7.33301 129.5 22s72.166 33.667 95.499 57c23.333 24.667 42.666 58.667 57.999 102s28.666 99 39.999 167z" />
    <glyph glyph-name="afii10057" unicode="&#x408;" horiz-adv-x="768" 
d="M573 1404l176.002 -0.000976562l-141 -874c-24 -146 -45.333 -242.5 -64 -289.5s-44 -88.5 -76 -124.5c-40.667 -45.333 -91.5 -79.333 -152.5 -102s-139.167 -34 -234.5 -34c-36 0 -66.333 1 -91 3s-50.667 5.66699 -78 11l19 155
c28 -5.33301 57.333 -9.66602 88 -12.999s56.334 -5 77.001 -5c46 0 89.167 7.33301 129.5 22s72.166 33.667 95.499 57c23.333 24.667 42.666 58.667 57.999 102s28.666 99 39.999 167z" />
    <glyph glyph-name="currency" unicode="&#xa4;" horiz-adv-x="1175" 
d="M182 391l106 106c-22 29.333 -38.333 61.333 -49 96s-16 69.667 -16 105s5.33301 70.333 16 105s27 66.667 49 96l-106 106l94 94l106 -106c28 24.667 59.167 42.334 93.5 53.001s71.5 16 111.5 16s77.333 -5.33301 112 -16s65.667 -28.334 93 -53.001l107 106l94 -94
l-107 -106c22.667 -29.333 39.334 -61.333 50.001 -96s16 -69.667 16 -105s-5.33301 -70.333 -16 -105s-27.334 -66.667 -50.001 -96l107 -106l-94 -95l-107 107c-29.333 -24 -61.333 -41.667 -96 -53s-71 -17 -109 -17s-74.167 5.66699 -108.5 17s-66.5 29 -96.5 53
l-106 -107zM358 698c0 -63.333 22.333 -117.5 67 -162.5s98.667 -67.5 162 -67.5s117.5 22.5 162.5 67.5s67.5 99.167 67.5 162.5s-22.5 117.333 -67.5 162s-99.167 67 -162.5 67s-117.333 -22.333 -162 -67s-67 -98.667 -67 -162z" />
    <glyph glyph-name="CyrHardG" unicode="&#xa5;" horiz-adv-x="1046" 
d="M321 1404h678l29 189h155l-55 -344h-657l-205 -1249h-176z" />
    <glyph glyph-name="CyrHardG" unicode="&#x490;" horiz-adv-x="1046" 
d="M321 1404h678l29 189h155l-55 -344h-657l-205 -1249h-176z" />
    <glyph glyph-name="brokenbar" unicode="&#xa6;" horiz-adv-x="974" 
d="M548 563v-563h-123v563h123zM548 1404v-563h-123v563h123z" />
    <glyph glyph-name="section" unicode="&#xa7;" horiz-adv-x="1351" 
d="M1230 1150l-156.999 -15.998c-16 48 -45.167 86 -87.5 114s-97.166 42 -164.499 42c-79.333 0 -142.5 -17.333 -189.5 -52s-70.5 -81.667 -70.5 -141c0 -36.667 13 -69.834 39 -99.501s57.333 -50.5 94 -62.5l108 -34c140 -45.333 223.333 -75.166 250 -89.499
s48.667 -29.833 66 -46.5c22.667 -21.333 39.5 -45.5 50.5 -72.5s16.5 -54.5 16.5 -82.5c0 -63.333 -20.833 -124 -62.5 -182s-95.834 -106.667 -162.501 -146c47.333 -21.333 85.166 -53.333 113.499 -96s42.5 -93.334 42.5 -152.001c0 -108 -50.333 -204.833 -151 -290.5
s-230 -128.5 -388 -128.5c-124.667 0 -224 27.167 -298 81.5s-121.333 128.5 -142 222.5l184 26c17.333 -61.333 51 -109 101 -143s110 -51 180 -51c97.333 0 177.166 25.167 239.499 75.5s93.5 108.833 93.5 175.5c0 41.333 -15.167 75.166 -45.5 101.499
s-84.5 50.5 -162.5 72.5l-156 43c-65.333 18 -113.5 34.167 -144.5 48.5s-57.833 31.5 -80.5 51.5c-24 20.667 -42.333 45 -55 73s-19 60.333 -19 97c0 66 21.833 129.5 65.5 190.5s104.5 112.167 182.5 153.5c-44 24 -76.833 56 -98.5 96s-32.5 81.667 -32.5 125
c0 100 39.833 186.833 119.5 260.5s191.167 110.5 334.5 110.5c112.667 0 201.834 -24.5 267.501 -73.5s105.5 -116.167 119.5 -201.5zM827.001 718.002l-186.001 64c-56 -23.333 -103.167 -55.833 -141.5 -97.5s-57.5 -85.834 -57.5 -132.501
c0 -37.333 15.5 -70.5 46.5 -99.5s88.5 -55.833 172.5 -80.5l170 -49c28 13.333 54 29.833 78 49.5s45.667 42.834 65 69.501c14.667 20 24.834 37.667 30.501 53s8.5 31 8.5 47c0 39.333 -11.5 72 -34.5 98s-73.5 52 -151.5 78z" />
    <glyph glyph-name="afii10023" unicode="&#xa8;" horiz-adv-x="1148" 
d="M1210 1404l-27 -151h-712l-74 -447h565l-25 -143h-563l-84 -512h734l-25 -151h-909l231 1404h889zM718 1710l-26 -195h-191l27 195h190zM1093 1710l-26 -195h-191l27 195h190z" />
    <glyph glyph-name="afii10023" unicode="&#x401;" horiz-adv-x="1148" 
d="M1210 1404l-27 -151h-712l-74 -447h565l-25 -143h-563l-84 -512h734l-25 -151h-909l231 1404h889zM718 1710l-26 -195h-191l27 195h190zM1093 1710l-26 -195h-191l27 195h190z" />
    <glyph glyph-name="copyright" unicode="&#xa9;" horiz-adv-x="1648" 
d="M114 702c0 205.333 72.167 380.166 216.5 524.499s319.5 216.5 525.5 216.5c205.333 0 380.166 -72.167 524.499 -216.5s216.5 -319.166 216.5 -524.499s-72.167 -380 -216.5 -524s-319.166 -216 -524.499 -216c-206 0 -381.167 72 -525.5 216s-216.5 318.667 -216.5 524
zM221 702c0 -174 62.167 -323.333 186.5 -448s273.833 -187 448.5 -187c174 0 323.167 62.333 447.5 187s186.5 274 186.5 448s-62.167 323.333 -186.5 448s-273.5 187 -447.5 187c-174.667 0 -324.167 -62.333 -448.5 -187s-186.5 -274 -186.5 -448zM1224 874
l-118.998 -28.999c1.33301 23.333 -2.83398 50.5 -12.501 81.5s-23.167 56.5 -40.5 76.5c-16.667 20 -37.667 36 -63 48s-53.333 18 -84 18c-38 0 -72.833 -9.33301 -104.5 -28s-59.834 -46.334 -84.501 -83.001c-26.667 -40.667 -48.334 -91 -65.001 -151
s-25 -117.667 -25 -173c0 -43.333 5.5 -83 16.5 -119s27.5 -65 49.5 -87c16.667 -17.333 36.667 -31 60 -41s47.666 -15 72.999 -15s49.833 4.5 73.5 13.5s45.5 22.167 65.5 39.5c11.333 10 20.833 19.667 28.5 29s30.167 49.666 67.5 120.999l111 -41
c-42 -83.333 -71.667 -134.166 -89 -152.499s-37.666 -35.166 -60.999 -50.499c-30 -20 -61 -34.833 -93 -44.5s-68.333 -14.5 -109 -14.5c-32.667 0 -63.334 4 -92.001 12s-54.667 19 -78 33c-48.667 29.333 -87.5 72.333 -116.5 129s-43.5 123.667 -43.5 201
c0 76.667 12 148 36 214s57.667 124.333 101 175c39.333 45.333 83 78.833 131 100.5s96.667 32.5 146 32.5c32.667 0 67.334 -5.16699 104.001 -15.5s68 -24.833 94 -43.5c34 -24.667 62.333 -58.334 85 -101.001s35.334 -87.667 38.001 -135z" />
    <glyph glyph-name="afii10053" unicode="&#xaa;" horiz-adv-x="1222" 
d="M1253 1013l-176 -30.002c-12 82 -44.667 150.833 -98 206.5s-121.666 83.5 -204.999 83.5c-60 0 -114 -12 -162 -36s-91 -58.333 -129 -103c-37.333 -43.333 -68.333 -94.166 -93 -152.499s-41.667 -116.833 -51 -175.5h515l-27 -151h-518
c-4 -22 -7.16699 -45.667 -9.5 -71s-3.5 -53.666 -3.5 -84.999c0 -50 5.83301 -97.167 17.5 -141.5s27.834 -81.166 48.501 -110.499c24.667 -35.333 57.5 -63.5 98.5 -84.5s88.167 -31.5 141.5 -31.5c52 0 100.333 10.333 145 31s87 51 127 91
c23.333 23.333 44.666 48.333 63.999 75s36.333 54.334 51 83.001l172 -35c-22 -52.667 -50.167 -102 -84.5 -148s-73.833 -86.667 -118.5 -122c-56.667 -44.667 -116 -76.834 -178 -96.501s-126.333 -29.5 -193 -29.5c-76 0 -141.333 11.167 -196 33.5
s-102.667 55.166 -144 98.499c-46 48.667 -79.333 104.167 -100 166.5s-31 137.166 -31 224.499c0 158 23.833 306.833 71.5 446.5s116.834 249.834 207.501 330.501c56.667 50 118.167 86.667 184.5 110s137.166 35 212.499 35c78 0 146.167 -12.333 204.5 -37
s106.166 -58.667 143.499 -102c26.667 -31.333 50 -71.333 70 -120s34.333 -99.667 43 -153z" />
    <glyph glyph-name="afii10053" unicode="&#x404;" horiz-adv-x="1222" 
d="M1253 1013l-176 -30.002c-12 82 -44.667 150.833 -98 206.5s-121.666 83.5 -204.999 83.5c-60 0 -114 -12 -162 -36s-91 -58.333 -129 -103c-37.333 -43.333 -68.333 -94.166 -93 -152.499s-41.667 -116.833 -51 -175.5h515l-27 -151h-518
c-4 -22 -7.16699 -45.667 -9.5 -71s-3.5 -53.666 -3.5 -84.999c0 -50 5.83301 -97.167 17.5 -141.5s27.834 -81.166 48.501 -110.499c24.667 -35.333 57.5 -63.5 98.5 -84.5s88.167 -31.5 141.5 -31.5c52 0 100.333 10.333 145 31s87 51 127 91
c23.333 23.333 44.666 48.333 63.999 75s36.333 54.334 51 83.001l172 -35c-22 -52.667 -50.167 -102 -84.5 -148s-73.833 -86.667 -118.5 -122c-56.667 -44.667 -116 -76.834 -178 -96.501s-126.333 -29.5 -193 -29.5c-76 0 -141.333 11.167 -196 33.5
s-102.667 55.166 -144 98.499c-46 48.667 -79.333 104.167 -100 166.5s-31 137.166 -31 224.499c0 158 23.833 306.833 71.5 446.5s116.834 249.834 207.501 330.501c56.667 50 118.167 86.667 184.5 110s137.166 35 212.499 35c78 0 146.167 -12.333 204.5 -37
s106.166 -58.667 143.499 -102c26.667 -31.333 50 -71.333 70 -120s34.333 -99.667 43 -153z" />
    <glyph glyph-name="guillemotleft" unicode="&#xab;" horiz-adv-x="718" 
d="M243 522l62 -295h-90l-132 295l222 295h90zM512 522l61 -295h-90l-131 295l221 295h90z" />
    <glyph glyph-name="logicalnot" unicode="&#xac;" horiz-adv-x="1265" 
d="M1189 790v-553h-133v420h-927v133h1060z" />
    <glyph glyph-name="registered" unicode="&#xae;" horiz-adv-x="1648" 
d="M114 702c0 205.333 72.167 380.166 216.5 524.499s319.5 216.5 525.5 216.5c205.333 0 380.166 -72.167 524.499 -216.5s216.5 -319.166 216.5 -524.499s-72.167 -380 -216.5 -524s-319.166 -216 -524.499 -216c-206 0 -381.167 72 -525.5 216s-216.5 318.667 -216.5 524
zM221 702c0 -174 62.167 -323.333 186.5 -448s273.833 -187 448.5 -187c174 0 323.167 62.333 447.5 187s186.5 274 186.5 448s-62.167 323.333 -186.5 448s-273.5 187 -447.5 187c-174.667 0 -324.167 -62.333 -448.5 -187s-186.5 -274 -186.5 -448zM907 657
l-242 -0.000976562l-61 -371h-131l143 860h289c63.333 0 112.833 -4.16699 148.5 -12.5s67.167 -22.5 94.5 -42.5c30.667 -22 53.5 -47.833 68.5 -77.5s22.5 -61.167 22.5 -94.5c0 -36 -7 -69.667 -21 -101s-33.667 -58.333 -59 -81
c-17.333 -15.333 -36 -27.666 -56 -36.999s-42.333 -17 -67 -23l129 -391h-139zM681 754.999l220.002 0.00195312c41.333 0 77.166 5.66699 107.499 17s53.166 27.666 68.499 48.999c8.66699 12.667 15.5 27.167 20.5 43.5s7.5 33.166 7.5 50.499
c0 23.333 -3.66699 43 -11 59s-18.666 29.667 -33.999 41c-15.333 12 -33.333 20.833 -54 26.5s-48.334 8.5 -83.001 8.5h-192z" />
    <glyph glyph-name="afii10056" unicode="&#xaf;" horiz-adv-x="567" 
d="M509 1404l-231 -1404h-176l231 1404h176zM708 1712l-33 -195h-174l33 195h174zM403 1712l-33 -195h-174l33 195h174z" />
    <glyph glyph-name="afii10056" unicode="&#x407;" horiz-adv-x="567" 
d="M509 1404l-231 -1404h-176l231 1404h176zM708 1712l-33 -195h-174l33 195h174zM403 1712l-33 -195h-174l33 195h174z" />
    <glyph glyph-name="degree" unicode="&#xb0;" horiz-adv-x="839" 
d="M471 1425c84 0 156.167 -30.167 216.5 -90.5s90.5 -132.5 90.5 -216.5c0 -84.667 -30.167 -157 -90.5 -217s-132.5 -90 -216.5 -90c-85.333 0 -158 30 -218 90s-90 132.333 -90 217s30 157 90 217s132.667 90 218 90zM471 1302c-50.667 0 -94.167 -18.167 -130.5 -54.5
s-54.5 -79.5 -54.5 -129.5c0 -50.667 18.167 -94.167 54.5 -130.5s79.833 -54.5 130.5 -54.5c50 0 93.167 18.167 129.5 54.5s54.5 79.833 54.5 130.5c0 50 -18.167 93.167 -54.5 129.5s-79.5 54.5 -129.5 54.5z" />
    <glyph glyph-name="plusminus" unicode="&#xb1;" horiz-adv-x="1325" 
d="M616 1294h133v-463h463v-133h-463v-463h-133v463h-463v133h463v463zM153 0v133h1059v-133h-1059z" />
    <glyph glyph-name="afii10055" unicode="&#xb2;" horiz-adv-x="518" 
d="M497 1404l-231 -1404h-176l231 1404h176z" />
    <glyph glyph-name="afii10055" unicode="&#x406;" horiz-adv-x="518" 
d="M497 1404l-231 -1404h-176l231 1404h176z" />
    <glyph glyph-name="afii10103" unicode="&#xb3;" horiz-adv-x="448" 
d="M403 1044l-172 -1044h-156l172 1044h156zM473 1404l-31 -180h-172l31 180h172z" />
    <glyph glyph-name="afii10103" unicode="&#x456;" horiz-adv-x="448" 
d="M403 1044l-172 -1044h-156l172 1044h156zM473 1404l-31 -180h-172l31 180h172z" />
    <glyph glyph-name="cyrhardg" unicode="&#xb4;" horiz-adv-x="798" 
d="M245 1044h506l21 141h129l-43 -272h-476l-149 -913h-158z" />
    <glyph glyph-name="cyrhardg" unicode="&#x491;" horiz-adv-x="798" 
d="M245 1044h506l21 141h129l-43 -272h-476l-149 -913h-158z" />
    <glyph glyph-name="mu" unicode="&#xb5;" horiz-adv-x="1110" 
d="M864 0h-145.998l35 206c-43.333 -72 -99.5 -127.667 -168.5 -167s-139.833 -59 -212.5 -59c-26 0 -53.333 4.16699 -82 12.5s-55.334 20.166 -80.001 35.499l-59 -367h-159l225 1383h159l-102 -637c-15.333 -96.667 -10.333 -169 15 -217s71.666 -72 138.999 -72
c78 0 152.167 32.333 222.5 97s114.833 155.334 133.5 272.001l90 557h160z" />
    <glyph glyph-name="paragraph" unicode="&#xb6;" horiz-adv-x="1185" 
d="M1226 1404l-24.002 -132.999h-119l-270 -1656h-134l271 1656h-166l-270 -1656h-134l136 825c-43.333 0.666992 -85.666 8.66699 -126.999 24s-77 36.666 -107 63.999c-37.333 34 -66.5 77.667 -87.5 131s-31.5 111.333 -31.5 174c0 86.667 20.333 172 61 256
s95.667 151 165 201c52 38 113.333 66.5 184 85.5s142.334 28.5 215.001 28.5h438z" />
    <glyph glyph-name="afii10071" unicode="&#xb8;" horiz-adv-x="1101" 
d="M1015 499l-761.999 0.00195312c-2.66699 -14 -4.66699 -28.333 -6 -43s-2 -29.667 -2 -45c0 -26 2.5 -52 7.5 -78s12.167 -49 21.5 -69c22.667 -50.667 55.334 -88.334 98.001 -113.001s92.667 -37 150 -37c42 0 79.167 5.16699 111.5 15.5s62.5 27.166 90.5 50.499
c21.333 16.667 40.5 36.167 57.5 58.5s31.5 45.833 43.5 70.5l137 -70c-19.333 -33.333 -42.333 -65.166 -69 -95.499s-55.667 -56.5 -87 -78.5c-42 -30 -86.833 -51.667 -134.5 -65s-99.5 -20 -155.5 -20c-68.667 0 -129 10.333 -181 31s-97.667 51.667 -137 93
c-42 44.667 -73.667 97.334 -95 158.001s-32 124.667 -32 192c0 71.333 10.5 142.166 31.5 212.499s53.5 134.166 97.5 191.499c50.667 66 110 116.833 178 152.5s143.333 53.5 226 53.5c61.333 0 116.666 -9 165.999 -27s90.666 -42.333 123.999 -73
c43.333 -39.333 75.333 -88.833 96 -148.5s31 -133.167 31 -220.5c0 -15.333 -0.5 -31 -1.5 -47s-2.5 -32.333 -4.5 -49zM274.001 626.002h584v19.5v19.5c-1.33301 39.333 -6 73.833 -14 103.5s-20.667 55.834 -38 78.501c-20.667 28 -48.334 50 -83.001 66
s-74.334 24 -119.001 24c-40 0 -78 -7 -114 -21s-68.333 -34 -97 -60c-29.333 -26.667 -54.666 -59.834 -75.999 -99.501s-35.666 -83.167 -42.999 -130.5zM583.001 1439l-26 -198h-195l27 198h194zM954.001 1439l-27 -198h-194l26 198h195z" />
    <glyph glyph-name="afii10071" unicode="&#x451;" horiz-adv-x="1101" 
d="M1015 499l-761.999 0.00195312c-2.66699 -14 -4.66699 -28.333 -6 -43s-2 -29.667 -2 -45c0 -26 2.5 -52 7.5 -78s12.167 -49 21.5 -69c22.667 -50.667 55.334 -88.334 98.001 -113.001s92.667 -37 150 -37c42 0 79.167 5.16699 111.5 15.5s62.5 27.166 90.5 50.499
c21.333 16.667 40.5 36.167 57.5 58.5s31.5 45.833 43.5 70.5l137 -70c-19.333 -33.333 -42.333 -65.166 -69 -95.499s-55.667 -56.5 -87 -78.5c-42 -30 -86.833 -51.667 -134.5 -65s-99.5 -20 -155.5 -20c-68.667 0 -129 10.333 -181 31s-97.667 51.667 -137 93
c-42 44.667 -73.667 97.334 -95 158.001s-32 124.667 -32 192c0 71.333 10.5 142.166 31.5 212.499s53.5 134.166 97.5 191.499c50.667 66 110 116.833 178 152.5s143.333 53.5 226 53.5c61.333 0 116.666 -9 165.999 -27s90.666 -42.333 123.999 -73
c43.333 -39.333 75.333 -88.833 96 -148.5s31 -133.167 31 -220.5c0 -15.333 -0.5 -31 -1.5 -47s-2.5 -32.333 -4.5 -49zM274.001 626.002h584v19.5v19.5c-1.33301 39.333 -6 73.833 -14 103.5s-20.667 55.834 -38 78.501c-20.667 28 -48.334 50 -83.001 66
s-74.334 24 -119.001 24c-40 0 -78 -7 -114 -21s-68.333 -34 -97 -60c-29.333 -26.667 -54.666 -59.834 -75.999 -99.501s-35.666 -83.167 -42.999 -130.5zM583.001 1439l-26 -198h-195l27 198h194zM954.001 1439l-27 -198h-194l26 198h195z" />
    <glyph glyph-name="afii61352" unicode="&#xb9;" horiz-adv-x="1992" 
d="M1206 1404l147 -0.000976562l-231 -1404h-172l-512 1224l-10 -51l-191 -1173h-147l231 1404h221l475 -1144c2 22 4.16699 43.333 6.5 64s4.5 35.334 6.5 44.001zM1787 1404c74.667 0 132.333 -24.333 173 -73s61 -115.667 61 -201c0 -62 -10.5 -123.167 -31.5 -183.5
s-51.5 -111.833 -91.5 -154.5c-31.333 -34 -66.666 -59.833 -105.999 -77.5s-81 -26.5 -125 -26.5c-76 0 -134.333 24.167 -175 72.5s-61 115.5 -61 201.5c0 62 10.833 123.833 32.5 185.5s51.167 112.5 88.5 152.5c30.667 32.667 66.167 58.167 106.5 76.5
s83.166 27.5 128.499 27.5zM1767 1298c-28.667 0 -56.832 -9.49805 -84.499 -28.498s-50.834 -45.833 -69.501 -80.5c-16.667 -30.667 -30 -70.334 -40 -119.001s-15 -91.334 -15 -128.001c0 -47.333 10.833 -83.833 32.5 -109.5s52.5 -38.5 92.5 -38.5
c64 0 115.167 34 153.5 102s57.5 146.667 57.5 236c0 56.667 -11.5 98.5 -34.5 125.5s-53.833 40.5 -92.5 40.5zM1378 555.001h532l-22 -119h-533z" />
    <glyph glyph-name="afii61352" unicode="&#x2116;" horiz-adv-x="1992" 
d="M1206 1404l147 -0.000976562l-231 -1404h-172l-512 1224l-10 -51l-191 -1173h-147l231 1404h221l475 -1144c2 22 4.16699 43.333 6.5 64s4.5 35.334 6.5 44.001zM1787 1404c74.667 0 132.333 -24.333 173 -73s61 -115.667 61 -201c0 -62 -10.5 -123.167 -31.5 -183.5
s-51.5 -111.833 -91.5 -154.5c-31.333 -34 -66.666 -59.833 -105.999 -77.5s-81 -26.5 -125 -26.5c-76 0 -134.333 24.167 -175 72.5s-61 115.5 -61 201.5c0 62 10.833 123.833 32.5 185.5s51.167 112.5 88.5 152.5c30.667 32.667 66.167 58.167 106.5 76.5
s83.166 27.5 128.499 27.5zM1767 1298c-28.667 0 -56.832 -9.49805 -84.499 -28.498s-50.834 -45.833 -69.501 -80.5c-16.667 -30.667 -30 -70.334 -40 -119.001s-15 -91.334 -15 -128.001c0 -47.333 10.833 -83.833 32.5 -109.5s52.5 -38.5 92.5 -38.5
c64 0 115.167 34 153.5 102s57.5 146.667 57.5 236c0 56.667 -11.5 98.5 -34.5 125.5s-53.833 40.5 -92.5 40.5zM1378 555.001h532l-22 -119h-533z" />
    <glyph glyph-name="afii10101" unicode="&#xba;" horiz-adv-x="997" 
d="M964 772l-144.997 -35.002c-3.33301 22.667 -9.33301 44.334 -18 65.001s-19 38.667 -31 54c-21.333 25.333 -45.666 43.833 -72.999 55.5s-57.666 17.5 -90.999 17.5c-37.333 0 -71.833 -5.33301 -103.5 -16s-60.167 -25.667 -85.5 -45
c-34.667 -27.333 -64.334 -63.833 -89.001 -109.5s-40 -95.167 -46 -148.5h369l-19 -127h-364c-4.66699 -21.333 -7.83398 -42.666 -9.50098 -63.999s-2.5 -43 -2.5 -65c0 -46 3.83301 -82.333 11.5 -109s20.167 -49.667 37.5 -69c16.667 -20 37 -35.333 61 -46
s51.333 -16 82 -16c42 0 81.167 7.33301 117.5 22s66.166 34 89.499 58c12 12.667 25.5 30.5 40.5 53.5s28.167 45.5 39.5 67.5l141 -29c-10 -32.667 -23.5 -63.167 -40.5 -91.5s-37.5 -55.166 -61.5 -80.499c-47.333 -48.667 -99.5 -83.167 -156.5 -103.5
s-123.167 -30.5 -198.5 -30.5c-50 0 -95.167 6.83301 -135.5 20.5s-75.5 35.167 -105.5 64.5c-33.333 32.667 -58.833 75 -76.5 127s-26.5 114.667 -26.5 188c0 108.667 14.667 209 44 301s72.666 169.333 129.999 232c46 49.333 97.167 86.833 153.5 112.5
s122.166 38.5 197.499 38.5c53.333 0 99.333 -6.33301 138 -19s73.667 -31.334 105 -56.001c34.667 -27.333 62.5 -59 83.5 -95s33.5 -76.667 37.5 -122z" />
    <glyph glyph-name="afii10101" unicode="&#x454;" horiz-adv-x="997" 
d="M964 772l-144.997 -35.002c-3.33301 22.667 -9.33301 44.334 -18 65.001s-19 38.667 -31 54c-21.333 25.333 -45.666 43.833 -72.999 55.5s-57.666 17.5 -90.999 17.5c-37.333 0 -71.833 -5.33301 -103.5 -16s-60.167 -25.667 -85.5 -45
c-34.667 -27.333 -64.334 -63.833 -89.001 -109.5s-40 -95.167 -46 -148.5h369l-19 -127h-364c-4.66699 -21.333 -7.83398 -42.666 -9.50098 -63.999s-2.5 -43 -2.5 -65c0 -46 3.83301 -82.333 11.5 -109s20.167 -49.667 37.5 -69c16.667 -20 37 -35.333 61 -46
s51.333 -16 82 -16c42 0 81.167 7.33301 117.5 22s66.166 34 89.499 58c12 12.667 25.5 30.5 40.5 53.5s28.167 45.5 39.5 67.5l141 -29c-10 -32.667 -23.5 -63.167 -40.5 -91.5s-37.5 -55.166 -61.5 -80.499c-47.333 -48.667 -99.5 -83.167 -156.5 -103.5
s-123.167 -30.5 -198.5 -30.5c-50 0 -95.167 6.83301 -135.5 20.5s-75.5 35.167 -105.5 64.5c-33.333 32.667 -58.833 75 -76.5 127s-26.5 114.667 -26.5 188c0 108.667 14.667 209 44 301s72.666 169.333 129.999 232c46 49.333 97.167 86.833 153.5 112.5
s122.166 38.5 197.499 38.5c53.333 0 99.333 -6.33301 138 -19s73.667 -31.334 105 -56.001c34.667 -27.333 62.5 -59 83.5 -95s33.5 -76.667 37.5 -122z" />
    <glyph glyph-name="guillemotright" unicode="&#xbb;" horiz-adv-x="718" 
d="M204 522l-61 295h90l131 -295l-221 -295h-90zM473 522l-62 295h90l131 -295l-221 -295h-90z" />
    <glyph glyph-name="afii10105" unicode="&#xbc;" horiz-adv-x="473" 
d="M405 1044l-156 -950.001c-32.667 -198.667 -78 -323.667 -136 -375s-138.667 -77 -242 -77c-19.333 0 -39.333 1.16699 -60 3.5s-43 5.83301 -67 10.5l13 136c20.667 -5.33301 39.167 -9.16602 55.5 -11.499s32.5 -3.5 48.5 -3.5c67.333 0 117 16.167 149 48.5
s54.333 88.5 67 168.5l172 1050h156zM471 1409l-27 -181h-172l27 181h172z" />
    <glyph glyph-name="afii10105" unicode="&#x458;" horiz-adv-x="473" 
d="M405 1044l-156 -950.001c-32.667 -198.667 -78 -323.667 -136 -375s-138.667 -77 -242 -77c-19.333 0 -39.333 1.16699 -60 3.5s-43 5.83301 -67 10.5l13 136c20.667 -5.33301 39.167 -9.16602 55.5 -11.499s32.5 -3.5 48.5 -3.5c67.333 0 117 16.167 149 48.5
s54.333 88.5 67 168.5l172 1050h156zM471 1409l-27 -181h-172l27 181h172z" />
    <glyph glyph-name="afii10054" unicode="&#xbd;" horiz-adv-x="1189" 
d="M1130 1105l-141 -63c-10 28.667 -23 55.167 -39 79.5s-33.667 45.5 -53 63.5c-32 29.333 -70.667 51.333 -116 66s-97.666 22 -156.999 22c-49.333 0 -93.333 -8.16699 -132 -24.5s-71 -38.833 -97 -67.5c-18.667 -20 -32.667 -41.667 -42 -65s-14 -46 -14 -68
c0 -56 22 -102.833 66 -140.5s106.667 -65.834 188 -84.501l107 -25c94 -21.333 166.5 -45.166 217.5 -71.499s91.167 -59.166 120.5 -98.499c20 -26.667 35.833 -59.167 47.5 -97.5s17.5 -79.5 17.5 -123.5c0 -62.667 -15.333 -122 -46 -178s-72 -103.667 -124 -143
c-47.333 -36.667 -99.666 -63.5 -156.999 -80.5s-127 -25.5 -209 -25.5c-84 0 -158.167 8.5 -222.5 25.5s-120.5 44.5 -168.5 82.5c-42.667 33.333 -78.334 74.166 -107.001 122.499s-49 98.833 -61 151.5l159 53c7.33301 -26 17.166 -51 29.499 -75
s27.833 -47.333 46.5 -70c39.333 -48 83.333 -83.167 132 -105.5s110 -33.5 184 -33.5c57.333 0 108 7 152 21s82.667 35.667 116 65c30 25.333 52.167 53.333 66.5 84s21.5 63.334 21.5 98.001c0 57.333 -16.833 102.666 -50.5 135.999s-121.167 67.666 -262.5 102.999
l-99 25c-65.333 16.667 -121 38.334 -167 65.001s-82.333 59 -109 97c-21.333 29.333 -37.333 63.333 -48 102s-16 77 -16 115c0 56 13.667 110.333 41 163s67 97.334 119 134.001c40 28 85.667 49.333 137 64s110 22 176 22s124 -5.83301 174 -17.5
s95.333 -29.834 136 -54.501c43.333 -26.667 81 -61 113 -103s55.667 -90.333 71 -145z" />
    <glyph glyph-name="afii10054" unicode="&#x405;" horiz-adv-x="1189" 
d="M1130 1105l-141 -63c-10 28.667 -23 55.167 -39 79.5s-33.667 45.5 -53 63.5c-32 29.333 -70.667 51.333 -116 66s-97.666 22 -156.999 22c-49.333 0 -93.333 -8.16699 -132 -24.5s-71 -38.833 -97 -67.5c-18.667 -20 -32.667 -41.667 -42 -65s-14 -46 -14 -68
c0 -56 22 -102.833 66 -140.5s106.667 -65.834 188 -84.501l107 -25c94 -21.333 166.5 -45.166 217.5 -71.499s91.167 -59.166 120.5 -98.499c20 -26.667 35.833 -59.167 47.5 -97.5s17.5 -79.5 17.5 -123.5c0 -62.667 -15.333 -122 -46 -178s-72 -103.667 -124 -143
c-47.333 -36.667 -99.666 -63.5 -156.999 -80.5s-127 -25.5 -209 -25.5c-84 0 -158.167 8.5 -222.5 25.5s-120.5 44.5 -168.5 82.5c-42.667 33.333 -78.334 74.166 -107.001 122.499s-49 98.833 -61 151.5l159 53c7.33301 -26 17.166 -51 29.499 -75
s27.833 -47.333 46.5 -70c39.333 -48 83.333 -83.167 132 -105.5s110 -33.5 184 -33.5c57.333 0 108 7 152 21s82.667 35.667 116 65c30 25.333 52.167 53.333 66.5 84s21.5 63.334 21.5 98.001c0 57.333 -16.833 102.666 -50.5 135.999s-121.167 67.666 -262.5 102.999
l-99 25c-65.333 16.667 -121 38.334 -167 65.001s-82.333 59 -109 97c-21.333 29.333 -37.333 63.333 -48 102s-16 77 -16 115c0 56 13.667 110.333 41 163s67 97.334 119 134.001c40 28 85.667 49.333 137 64s110 22 176 22s124 -5.83301 174 -17.5
s95.333 -29.834 136 -54.501c43.333 -26.667 81 -61 113 -103s55.667 -90.333 71 -145z" />
    <glyph glyph-name="afii10102" unicode="&#xbe;" horiz-adv-x="995" 
d="M923 819l-141 -55.9922c-3.33301 19.333 -9.33301 37.666 -18 54.999s-19.667 33.333 -33 48c-23.333 24.667 -50.333 42.667 -81 54s-66.667 17 -108 17c-35.333 0 -66.166 -3.5 -92.499 -10.5s-49.5 -17.833 -69.5 -32.5c-21.333 -15.333 -37.833 -34.333 -49.5 -57
s-17.5 -45.667 -17.5 -69c0 -16 3 -31.833 9 -47.5s15.333 -29.5 28 -41.5c15.333 -14.667 37.5 -27.334 66.5 -38.001s64.167 -19 105.5 -25l26 -4c81.333 -12.667 143.166 -28.334 185.499 -47.001s76.833 -43.334 103.5 -74.001c20.667 -23.333 36.5 -49 47.5 -77
s16.5 -58.333 16.5 -91c0 -64.667 -17.833 -123.334 -53.5 -176.001s-80.167 -92.334 -133.5 -119.001c-33.333 -16.667 -72.833 -28.834 -118.5 -36.501s-98.167 -11.5 -157.5 -11.5c-77.333 0 -140.833 7.83301 -190.5 23.5s-91.5 39.5 -125.5 71.5
c-25.333 24.667 -46.833 54.334 -64.5 89.001s-30.167 70 -37.5 106l147 47c6.66699 -26.667 16.834 -52.834 30.501 -78.501s29.5 -47.167 47.5 -64.5c24 -23.333 51.667 -40.5 83 -51.5s69.333 -16.5 114 -16.5c35.333 0 68.5 3.33301 99.5 10s57.833 15.667 80.5 27
c31.333 16 55.5 36.833 72.5 62.5s25.5 53.167 25.5 82.5c0 20 -4.16699 40 -12.5 60s-19.833 36.333 -34.5 49c-12 10 -28.333 18.667 -49 26s-66.334 17 -137.001 29l-25 4c-54.667 9.33301 -104.167 22.666 -148.5 39.999s-78.833 37.666 -103.5 60.999
c-24 22.667 -42.833 51 -56.5 85s-20.5 69.667 -20.5 107c0 46.667 9.83301 90.167 29.5 130.5s46.5 73.833 80.5 100.5c35.333 28.667 78 49.834 128 63.501s109 20.5 177 20.5c44 0 83.833 -3.5 119.5 -10.5s68.167 -18.5 97.5 -34.5c42 -21.333 76.167 -49 102.5 -83
s44.833 -73 55.5 -117z" />
    <glyph glyph-name="afii10102" unicode="&#x455;" horiz-adv-x="995" 
d="M923 819l-141 -55.9922c-3.33301 19.333 -9.33301 37.666 -18 54.999s-19.667 33.333 -33 48c-23.333 24.667 -50.333 42.667 -81 54s-66.667 17 -108 17c-35.333 0 -66.166 -3.5 -92.499 -10.5s-49.5 -17.833 -69.5 -32.5c-21.333 -15.333 -37.833 -34.333 -49.5 -57
s-17.5 -45.667 -17.5 -69c0 -16 3 -31.833 9 -47.5s15.333 -29.5 28 -41.5c15.333 -14.667 37.5 -27.334 66.5 -38.001s64.167 -19 105.5 -25l26 -4c81.333 -12.667 143.166 -28.334 185.499 -47.001s76.833 -43.334 103.5 -74.001c20.667 -23.333 36.5 -49 47.5 -77
s16.5 -58.333 16.5 -91c0 -64.667 -17.833 -123.334 -53.5 -176.001s-80.167 -92.334 -133.5 -119.001c-33.333 -16.667 -72.833 -28.834 -118.5 -36.501s-98.167 -11.5 -157.5 -11.5c-77.333 0 -140.833 7.83301 -190.5 23.5s-91.5 39.5 -125.5 71.5
c-25.333 24.667 -46.833 54.334 -64.5 89.001s-30.167 70 -37.5 106l147 47c6.66699 -26.667 16.834 -52.834 30.501 -78.501s29.5 -47.167 47.5 -64.5c24 -23.333 51.667 -40.5 83 -51.5s69.333 -16.5 114 -16.5c35.333 0 68.5 3.33301 99.5 10s57.833 15.667 80.5 27
c31.333 16 55.5 36.833 72.5 62.5s25.5 53.167 25.5 82.5c0 20 -4.16699 40 -12.5 60s-19.833 36.333 -34.5 49c-12 10 -28.333 18.667 -49 26s-66.334 17 -137.001 29l-25 4c-54.667 9.33301 -104.167 22.666 -148.5 39.999s-78.833 37.666 -103.5 60.999
c-24 22.667 -42.833 51 -56.5 85s-20.5 69.667 -20.5 107c0 46.667 9.83301 90.167 29.5 130.5s46.5 73.833 80.5 100.5c35.333 28.667 78 49.834 128 63.501s109 20.5 177 20.5c44 0 83.833 -3.5 119.5 -10.5s68.167 -18.5 97.5 -34.5c42 -21.333 76.167 -49 102.5 -83
s44.833 -73 55.5 -117z" />
    <glyph glyph-name="afii10104" unicode="&#xbf;" horiz-adv-x="569" 
d="M428 1044l-170 -1044h-156l170 1044h156zM659 1441l-35 -194h-174l35 194h174zM350 1441l-35 -194h-174l35 194h174z" />
    <glyph glyph-name="afii10104" unicode="&#x457;" horiz-adv-x="569" 
d="M428 1044l-170 -1044h-156l170 1044h156zM659 1441l-35 -194h-174l35 194h174zM350 1441l-35 -194h-174l35 194h174z" />
    <glyph glyph-name="afii10017" unicode="&#xc0;" horiz-adv-x="1159" 
d="M618 1404h201l237 -1404h-192l-66 407h-504l-194 -407h-159zM354 550h426l-107 666z" />
    <glyph glyph-name="afii10017" unicode="&#x410;" horiz-adv-x="1159" 
d="M618 1404h201l237 -1404h-192l-66 407h-504l-194 -407h-159zM354 550h426l-107 666z" />
    <glyph glyph-name="afii10018" unicode="&#xc1;" horiz-adv-x="1239" 
d="M1183 1404l-26.001 -150.998h-691l-71 -449h344c76.667 0 138.5 -6.33301 185.5 -19s87.5 -32 121.5 -58c38.667 -29.333 67.834 -65.333 87.501 -108s29.5 -96.334 29.5 -161.001c0 -64 -13.5 -126.667 -40.5 -188s-63.5 -113.333 -109.5 -156s-96 -72.334 -150 -89.001
s-125.333 -25 -214 -25h-559l227 1404h866zM369.999 653.002l-82.001 -502h326c62 0 112.5 5.16699 151.5 15.5s71.833 25.5 98.5 45.5c33.333 25.333 60 59 80 101s30 85 30 129c0 71.333 -22.167 124.333 -66.5 159s-112.166 52 -203.499 52h-334z" />
    <glyph glyph-name="afii10018" unicode="&#x411;" horiz-adv-x="1239" 
d="M1183 1404l-26.001 -150.998h-691l-71 -449h344c76.667 0 138.5 -6.33301 185.5 -19s87.5 -32 121.5 -58c38.667 -29.333 67.834 -65.333 87.501 -108s29.5 -96.334 29.5 -161.001c0 -64 -13.5 -126.667 -40.5 -188s-63.5 -113.333 -109.5 -156s-96 -72.334 -150 -89.001
s-125.333 -25 -214 -25h-559l227 1404h866zM369.999 653.002l-82.001 -502h326c62 0 112.5 5.16699 151.5 15.5s71.833 25.5 98.5 45.5c33.333 25.333 60 59 80 101s30 85 30 129c0 71.333 -22.167 124.333 -66.5 159s-112.166 52 -203.499 52h-334z" />
    <glyph glyph-name="afii10019" unicode="&#xc2;" horiz-adv-x="1310" 
d="M319 1404l500.001 0.00195312c59.333 0 112.166 -5 158.499 -15s87.5 -26 123.5 -48c50 -30.667 86.5 -68.5 109.5 -113.5s34.5 -100.167 34.5 -165.5c0 -80.667 -24.667 -149.667 -74 -207s-114.333 -97.333 -195 -120l2 -4c30.667 -8.66699 59.167 -21.167 85.5 -37.5
s47.833 -34.833 64.5 -55.5c20.667 -24.667 37.5 -56.834 50.5 -96.501s19.5 -78.5 19.5 -116.5c0 -52 -11 -105.833 -33 -161.5s-52.667 -102.834 -92 -141.501c-41.333 -40 -91 -70.333 -149 -91s-134 -31 -228 -31h-606zM471.001 1253l-74.0029 -454.997h315
c71.333 0 127.166 5.83301 167.499 17.5s75.5 30.5 105.5 56.5c24.667 21.333 43.334 46.666 56.001 75.999s19 64 19 104c0 29.333 -5.16699 56.166 -15.5 80.499s-26.166 45.5 -47.499 63.5c-21.333 17.333 -50.666 31.166 -87.999 41.499s-79.666 15.5 -126.999 15.5
h-311zM373.998 655.005l-86.001 -504h359c118 0 207.833 24 269.5 72s92.5 114.667 92.5 200c0 36.667 -7.5 71.167 -22.5 103.5s-36.167 58.166 -63.5 77.499c-24 16.667 -54.167 29.334 -90.5 38.001s-75.166 13 -116.499 13h-342z" />
    <glyph glyph-name="afii10019" unicode="&#x412;" horiz-adv-x="1310" 
d="M319 1404l500.001 0.00195312c59.333 0 112.166 -5 158.499 -15s87.5 -26 123.5 -48c50 -30.667 86.5 -68.5 109.5 -113.5s34.5 -100.167 34.5 -165.5c0 -80.667 -24.667 -149.667 -74 -207s-114.333 -97.333 -195 -120l2 -4c30.667 -8.66699 59.167 -21.167 85.5 -37.5
s47.833 -34.833 64.5 -55.5c20.667 -24.667 37.5 -56.834 50.5 -96.501s19.5 -78.5 19.5 -116.5c0 -52 -11 -105.833 -33 -161.5s-52.667 -102.834 -92 -141.501c-41.333 -40 -91 -70.333 -149 -91s-134 -31 -228 -31h-606zM471.001 1253l-74.0029 -454.997h315
c71.333 0 127.166 5.83301 167.499 17.5s75.5 30.5 105.5 56.5c24.667 21.333 43.334 46.666 56.001 75.999s19 64 19 104c0 29.333 -5.16699 56.166 -15.5 80.499s-26.166 45.5 -47.499 63.5c-21.333 17.333 -50.666 31.166 -87.999 41.499s-79.666 15.5 -126.999 15.5
h-311zM373.998 655.005l-86.001 -504h359c118 0 207.833 24 269.5 72s92.5 114.667 92.5 200c0 36.667 -7.5 71.167 -22.5 103.5s-36.167 58.166 -63.5 77.499c-24 16.667 -54.167 29.334 -90.5 38.001s-75.166 13 -116.499 13h-342z" />
    <glyph glyph-name="afii10020" unicode="&#xc3;" horiz-adv-x="1009" 
d="M321 1404h836l-27 -151h-659l-205 -1253h-176z" />
    <glyph glyph-name="afii10020" unicode="&#x413;" horiz-adv-x="1009" 
d="M321 1404h836l-27 -151h-659l-205 -1253h-176z" />
    <glyph glyph-name="afii10021" unicode="&#xc4;" horiz-adv-x="1304" 
d="M501 1404l762.002 -0.00195312l-207 -1253h152l-76 -466h-164l51 315h-950l-51 -315h-163l76 466h79c71.333 96.667 135.666 200.334 192.999 311.001s111.666 245.334 162.999 404.001c32 99.333 54.5 175.333 67.5 228s35.5 156 67.5 310zM1060 1253
l-430.002 0.000976562c-47.333 -199.333 -75 -311 -83 -335l-25 -77c-40 -124.667 -70.667 -211.834 -92 -261.501s-48.666 -106.5 -81.999 -170.5c-28.667 -54 -54.667 -100.5 -78 -139.5s-48.666 -78.5 -75.999 -118.5h686z" />
    <glyph glyph-name="afii10021" unicode="&#x414;" horiz-adv-x="1304" 
d="M501 1404l762.002 -0.00195312l-207 -1253h152l-76 -466h-164l51 315h-950l-51 -315h-163l76 466h79c71.333 96.667 135.666 200.334 192.999 311.001s111.666 245.334 162.999 404.001c32 99.333 54.5 175.333 67.5 228s35.5 156 67.5 310zM1060 1253
l-430.002 0.000976562c-47.333 -199.333 -75 -311 -83 -335l-25 -77c-40 -124.667 -70.667 -211.834 -92 -261.501s-48.666 -106.5 -81.999 -170.5c-28.667 -54 -54.667 -100.5 -78 -139.5s-48.666 -78.5 -75.999 -118.5h686z" />
    <glyph glyph-name="afii10022" unicode="&#xc5;" horiz-adv-x="1148" 
d="M1210 1404l-27 -151h-712l-74 -447h567l-24 -143h-566l-84 -512h734l-25 -151h-909l231 1404h889z" />
    <glyph glyph-name="afii10022" unicode="&#x415;" horiz-adv-x="1148" 
d="M1210 1404l-27 -151h-712l-74 -447h567l-24 -143h-566l-84 -512h734l-25 -151h-909l231 1404h889z" />
    <glyph glyph-name="afii10024" unicode="&#xc6;" horiz-adv-x="1812" 
d="M1853 1404l-20.9961 -140.999c-5.33301 2 -10.5 3.5 -15.5 4.5s-9.83301 1.5 -14.5 1.5c-20 0 -38.333 -4.5 -55 -13.5s-32 -22.167 -46 -39.5c-46 -58.667 -87.833 -131 -125.5 -217s-74.834 -146.667 -111.501 -182c-17.333 -16.667 -35.5 -30.167 -54.5 -40.5
s-39.167 -18.166 -60.5 -23.499v-6c21.333 -4.66699 44.333 -13.667 69 -27s45.334 -29 62.001 -47c20.667 -20.667 38.167 -47.667 52.5 -81s26.166 -78 35.499 -134c3.33301 -18 6.5 -37.167 9.5 -57.5s6.16699 -44.166 9.5 -71.499c4 -35.333 6.83301 -58.833 8.5 -70.5
s3.5 -22.167 5.5 -31.5c5.33301 -28.667 14.166 -49.834 26.499 -63.501s32.833 -20.5 61.5 -20.5c5.33301 0 10.333 0.166992 15 0.5s9.33398 0.833008 14.001 1.5l-23 -139c-14 -4.66699 -27.833 -8.16699 -41.5 -10.5s-27.167 -3.5 -40.5 -3.5
c-26 0 -49.5 4.16699 -70.5 12.5s-39.167 21.833 -54.5 40.5c-12 14.667 -23 34.834 -33 60.501s-24 100.834 -42 225.501l-17 111c-12 84 -36 141.5 -72 172.5s-87 46.5 -153 46.5h-147l-109 -661h-176l108 661h-61c-77.333 0 -132 -3.66699 -164 -11
s-59.333 -18.666 -82 -33.999c-28 -18.667 -54.333 -47.167 -79 -85.5s-60.334 -110.833 -107.001 -217.5l-29 -66c-24 -55.333 -46.5 -99.166 -67.5 -131.499s-42.833 -57.5 -65.5 -75.5c-20 -15.333 -43.333 -27.166 -70 -35.499s-55.334 -12.5 -86.001 -12.5
c-14 0 -27 1.16699 -39 3.5s-24.333 5.83301 -37 10.5l22 139c4 -0.666992 8.16699 -1.16699 12.5 -1.5s9.5 -0.5 15.5 -0.5c31.333 0 57.333 10.5 78 31.5s57.334 91.833 110.001 212.5l35 79c20.667 47.333 42.5 88 65.5 122s48.167 62.333 75.5 85
c26.667 22 56 39.333 88 52s65.667 20 101 22v6c-20.667 6 -39.5 14.833 -56.5 26.5s-31.833 25.5 -44.5 41.5c-16.667 21.333 -30.834 48.666 -42.501 81.999s-23.167 77.666 -34.5 132.999l-23 108c-6 28.667 -12.667 51 -20 67s-16.333 28.667 -27 38
c-8 6.66699 -16.667 11.667 -26 15s-19.666 5 -30.999 5c-6 0 -12 -0.5 -18 -1.5s-11.667 -2.5 -17 -4.5l20 141c10.667 3.33301 21 5.66602 31 6.99902s20.333 2 31 2c35.333 0 66.666 -7.33301 93.999 -22s49.666 -36.667 66.999 -66c18 -30 27.833 -76.667 29.5 -140
s34.834 -157.333 99.501 -282c19.333 -36.667 41.833 -62.334 67.5 -77.001s66.834 -22 123.501 -22h84l98 600h176l-98 -600h88c43.333 0 82.333 8.16699 117 24.5s66.667 43.166 96 80.499c11.333 14 23.833 32.167 37.5 54.5s43.5 76.5 89.5 162.5l59 110
c21.333 38.667 41.166 68.667 59.499 90s38.166 38.666 59.499 51.999c18.667 11.333 39.167 20 61.5 26s46.833 9 73.5 9c11.333 0 22.333 -0.833008 33 -2.5s21.667 -3.83398 33 -6.50098z" />
    <glyph glyph-name="afii10024" unicode="&#x416;" horiz-adv-x="1812" 
d="M1853 1404l-20.9961 -140.999c-5.33301 2 -10.5 3.5 -15.5 4.5s-9.83301 1.5 -14.5 1.5c-20 0 -38.333 -4.5 -55 -13.5s-32 -22.167 -46 -39.5c-46 -58.667 -87.833 -131 -125.5 -217s-74.834 -146.667 -111.501 -182c-17.333 -16.667 -35.5 -30.167 -54.5 -40.5
s-39.167 -18.166 -60.5 -23.499v-6c21.333 -4.66699 44.333 -13.667 69 -27s45.334 -29 62.001 -47c20.667 -20.667 38.167 -47.667 52.5 -81s26.166 -78 35.499 -134c3.33301 -18 6.5 -37.167 9.5 -57.5s6.16699 -44.166 9.5 -71.499c4 -35.333 6.83301 -58.833 8.5 -70.5
s3.5 -22.167 5.5 -31.5c5.33301 -28.667 14.166 -49.834 26.499 -63.501s32.833 -20.5 61.5 -20.5c5.33301 0 10.333 0.166992 15 0.5s9.33398 0.833008 14.001 1.5l-23 -139c-14 -4.66699 -27.833 -8.16699 -41.5 -10.5s-27.167 -3.5 -40.5 -3.5
c-26 0 -49.5 4.16699 -70.5 12.5s-39.167 21.833 -54.5 40.5c-12 14.667 -23 34.834 -33 60.501s-24 100.834 -42 225.501l-17 111c-12 84 -36 141.5 -72 172.5s-87 46.5 -153 46.5h-147l-109 -661h-176l108 661h-61c-77.333 0 -132 -3.66699 -164 -11
s-59.333 -18.666 -82 -33.999c-28 -18.667 -54.333 -47.167 -79 -85.5s-60.334 -110.833 -107.001 -217.5l-29 -66c-24 -55.333 -46.5 -99.166 -67.5 -131.499s-42.833 -57.5 -65.5 -75.5c-20 -15.333 -43.333 -27.166 -70 -35.499s-55.334 -12.5 -86.001 -12.5
c-14 0 -27 1.16699 -39 3.5s-24.333 5.83301 -37 10.5l22 139c4 -0.666992 8.16699 -1.16699 12.5 -1.5s9.5 -0.5 15.5 -0.5c31.333 0 57.333 10.5 78 31.5s57.334 91.833 110.001 212.5l35 79c20.667 47.333 42.5 88 65.5 122s48.167 62.333 75.5 85
c26.667 22 56 39.333 88 52s65.667 20 101 22v6c-20.667 6 -39.5 14.833 -56.5 26.5s-31.833 25.5 -44.5 41.5c-16.667 21.333 -30.834 48.666 -42.501 81.999s-23.167 77.666 -34.5 132.999l-23 108c-6 28.667 -12.667 51 -20 67s-16.333 28.667 -27 38
c-8 6.66699 -16.667 11.667 -26 15s-19.666 5 -30.999 5c-6 0 -12 -0.5 -18 -1.5s-11.667 -2.5 -17 -4.5l20 141c10.667 3.33301 21 5.66602 31 6.99902s20.333 2 31 2c35.333 0 66.666 -7.33301 93.999 -22s49.666 -36.667 66.999 -66c18 -30 27.833 -76.667 29.5 -140
s34.834 -157.333 99.501 -282c19.333 -36.667 41.833 -62.334 67.5 -77.001s66.834 -22 123.501 -22h84l98 600h176l-98 -600h88c43.333 0 82.333 8.16699 117 24.5s66.667 43.166 96 80.499c11.333 14 23.833 32.167 37.5 54.5s43.5 76.5 89.5 162.5l59 110
c21.333 38.667 41.166 68.667 59.499 90s38.166 38.666 59.499 51.999c18.667 11.333 39.167 20 61.5 26s46.833 9 73.5 9c11.333 0 22.333 -0.833008 33 -2.5s21.667 -3.83398 33 -6.50098z" />
    <glyph glyph-name="afii10025" unicode="&#xc7;" horiz-adv-x="1234" 
d="M346 1011l-159.993 45c14.667 54.667 37.834 104.167 69.501 148.5s69.167 82.166 112.5 113.499c47.333 34.667 101.5 61.167 162.5 79.5s132.5 27.5 214.5 27.5c52 0 101.167 -5.16699 147.5 -15.5s86.5 -24.833 120.5 -43.5c56.667 -32 98.167 -71.5 124.5 -118.5
s39.5 -99.167 39.5 -156.5c0 -59.333 -10 -111.333 -30 -156s-49.667 -83.334 -89 -116.001c-18.667 -16 -40.834 -31.5 -66.501 -46.5s-51.167 -27.5 -76.5 -37.5v-6c28.667 -7.33301 55.5 -18.666 80.5 -33.999s47.833 -35.666 68.5 -60.999
c24.667 -28.667 42.5 -59.667 53.5 -93s16.5 -70.333 16.5 -111c0 -78.667 -17 -147.5 -51 -206.5s-82.667 -109.167 -146 -150.5c-47.333 -31.333 -100.5 -54.666 -159.5 -69.999s-132.5 -23 -220.5 -23c-86.667 0 -156.834 9.16699 -210.501 27.5
s-102.5 45.833 -146.5 82.5c-38.667 32 -71.834 70.167 -99.501 114.5s-47.834 93.5 -60.501 147.5l164 45c10 -29.333 22.833 -57.666 38.5 -84.999s33.5 -51.666 53.5 -72.999c37.333 -38.667 78.666 -66.334 123.999 -83.001s96.333 -25 153 -25
c58 0 111 8.16699 159 24.5s90.667 42.166 128 77.499c29.333 28 51 58.167 65 90.5s21 67.166 21 104.499c0 38 -6.66699 71.833 -20 101.5s-32 54.5 -56 74.5c-24.667 20 -54.334 34.5 -89.001 43.5s-79.334 13.5 -134.001 13.5h-176l24 143h182c52.667 0 97.5 6 134.5 18
s69.5 29.333 97.5 52c29.333 24 52 51.667 68 83s24 66.333 24 105c0 38 -7.33301 70.667 -22 98s-36 50 -64 68c-22 14.667 -48.333 25.834 -79 33.501s-69.334 11.5 -116.001 11.5c-46 0 -88.833 -6.5 -128.5 -19.5s-76.5 -32.167 -110.5 -57.5
c-30.667 -22.667 -57.5 -49.334 -80.5 -80.001s-41.167 -65.667 -54.5 -105z" />
    <glyph glyph-name="afii10025" unicode="&#x417;" horiz-adv-x="1234" 
d="M346 1011l-159.993 45c14.667 54.667 37.834 104.167 69.501 148.5s69.167 82.166 112.5 113.499c47.333 34.667 101.5 61.167 162.5 79.5s132.5 27.5 214.5 27.5c52 0 101.167 -5.16699 147.5 -15.5s86.5 -24.833 120.5 -43.5c56.667 -32 98.167 -71.5 124.5 -118.5
s39.5 -99.167 39.5 -156.5c0 -59.333 -10 -111.333 -30 -156s-49.667 -83.334 -89 -116.001c-18.667 -16 -40.834 -31.5 -66.501 -46.5s-51.167 -27.5 -76.5 -37.5v-6c28.667 -7.33301 55.5 -18.666 80.5 -33.999s47.833 -35.666 68.5 -60.999
c24.667 -28.667 42.5 -59.667 53.5 -93s16.5 -70.333 16.5 -111c0 -78.667 -17 -147.5 -51 -206.5s-82.667 -109.167 -146 -150.5c-47.333 -31.333 -100.5 -54.666 -159.5 -69.999s-132.5 -23 -220.5 -23c-86.667 0 -156.834 9.16699 -210.501 27.5
s-102.5 45.833 -146.5 82.5c-38.667 32 -71.834 70.167 -99.501 114.5s-47.834 93.5 -60.501 147.5l164 45c10 -29.333 22.833 -57.666 38.5 -84.999s33.5 -51.666 53.5 -72.999c37.333 -38.667 78.666 -66.334 123.999 -83.001s96.333 -25 153 -25
c58 0 111 8.16699 159 24.5s90.667 42.166 128 77.499c29.333 28 51 58.167 65 90.5s21 67.166 21 104.499c0 38 -6.66699 71.833 -20 101.5s-32 54.5 -56 74.5c-24.667 20 -54.334 34.5 -89.001 43.5s-79.334 13.5 -134.001 13.5h-176l24 143h182c52.667 0 97.5 6 134.5 18
s69.5 29.333 97.5 52c29.333 24 52 51.667 68 83s24 66.333 24 105c0 38 -7.33301 70.667 -22 98s-36 50 -64 68c-22 14.667 -48.333 25.834 -79 33.501s-69.334 11.5 -116.001 11.5c-46 0 -88.833 -6.5 -128.5 -19.5s-76.5 -32.167 -110.5 -57.5
c-30.667 -22.667 -57.5 -49.334 -80.5 -80.001s-41.167 -65.667 -54.5 -105z" />
    <glyph glyph-name="afii10026" unicode="&#xc8;" horiz-adv-x="1370" 
d="M321 1404h175.999l-153 -936c-2 -12 -6.16699 -31.667 -12.5 -59l-14.5 -63c18.667 22 31.834 39 39.501 51s12.167 18.667 13.5 20l785 891l18 96h176l-231 -1404h-176l155 954c2.66699 15.333 6.16699 33.5 10.5 54.5s9.16602 43.167 14.499 66.5
c-15.333 -16.667 -27.666 -30.667 -36.999 -42s-16.333 -19.333 -21 -24l-778 -887l-20 -122h-176z" />
    <glyph glyph-name="afii10026" unicode="&#x418;" horiz-adv-x="1370" 
d="M321 1404h175.999l-153 -936c-2 -12 -6.16699 -31.667 -12.5 -59l-14.5 -63c18.667 22 31.834 39 39.501 51s12.167 18.667 13.5 20l785 891l18 96h176l-231 -1404h-176l155 954c2.66699 15.333 6.16699 33.5 10.5 54.5s9.16602 43.167 14.499 66.5
c-15.333 -16.667 -27.666 -30.667 -36.999 -42s-16.333 -19.333 -21 -24l-778 -887l-20 -122h-176z" />
    <glyph glyph-name="afii10027" unicode="&#xc9;" horiz-adv-x="1370" 
d="M321 1404h175.999l-153 -936c-2 -12 -6.16699 -31.667 -12.5 -59l-14.5 -63c18.667 22 31.834 39 39.501 51s12.167 18.667 13.5 20l785 891l18 96h176l-231 -1404h-176l155 954c2.66699 15.333 6.16699 33.5 10.5 54.5s9.16602 43.167 14.499 66.5
c-15.333 -16.667 -27.666 -30.667 -36.999 -42s-16.333 -19.333 -21 -24l-778 -887l-20 -122h-176zM529.999 1753l156 -0.00195312c-1.33301 -18 0.666992 -34.333 6 -49s13.333 -27.667 24 -39c14 -15.333 31 -26.833 51 -34.5s42.667 -11.5 68 -11.5
c26.667 0 51.667 4 75 12s43.333 19.333 60 34c14 11.333 25.333 24.5 34 39.5s15.334 31.167 20.001 48.5h155c-10 -38 -25.333 -72.5 -46 -103.5s-44.334 -56.833 -71.001 -77.5c-30.667 -23.333 -66.834 -41.666 -108.501 -54.999s-85.167 -20 -130.5 -20
c-48.667 0 -92.167 7 -130.5 21s-69.166 32.667 -92.499 56c-22.667 22.667 -40 49.834 -52 81.501s-18 64.167 -18 97.5z" />
    <glyph glyph-name="afii10027" unicode="&#x419;" horiz-adv-x="1370" 
d="M321 1404h175.999l-153 -936c-2 -12 -6.16699 -31.667 -12.5 -59l-14.5 -63c18.667 22 31.834 39 39.501 51s12.167 18.667 13.5 20l785 891l18 96h176l-231 -1404h-176l155 954c2.66699 15.333 6.16699 33.5 10.5 54.5s9.16602 43.167 14.499 66.5
c-15.333 -16.667 -27.666 -30.667 -36.999 -42s-16.333 -19.333 -21 -24l-778 -887l-20 -122h-176zM529.999 1753l156 -0.00195312c-1.33301 -18 0.666992 -34.333 6 -49s13.333 -27.667 24 -39c14 -15.333 31 -26.833 51 -34.5s42.667 -11.5 68 -11.5
c26.667 0 51.667 4 75 12s43.333 19.333 60 34c14 11.333 25.333 24.5 34 39.5s15.334 31.167 20.001 48.5h155c-10 -38 -25.333 -72.5 -46 -103.5s-44.334 -56.833 -71.001 -77.5c-30.667 -23.333 -66.834 -41.666 -108.501 -54.999s-85.167 -20 -130.5 -20
c-48.667 0 -92.167 7 -130.5 21s-69.166 32.667 -92.499 56c-22.667 22.667 -40 49.834 -52 81.501s-18 64.167 -18 97.5z" />
    <glyph glyph-name="afii10028" unicode="&#xca;" horiz-adv-x="1251" 
d="M397 804l173.999 -0.00585938c53.333 0 96.833 7.83301 130.5 23.5s63.834 40.834 90.501 75.501c16 20.667 33.833 49 53.5 85s44.167 85.333 73.5 148l33 70c20.667 44 42.667 81.167 66 111.5s47.666 52.5 72.999 66.5c16.667 9.33301 35.834 16.5 57.501 21.5
s45.5 7.5 71.5 7.5c11.333 0 22.833 -0.666992 34.5 -2s24.167 -3.66602 37.5 -6.99902l-23 -139c-4.66699 1.33301 -9.5 2.33301 -14.5 3s-12.5 1 -22.5 1c-18.667 0 -35.167 -3.5 -49.5 -10.5s-28.5 -18.5 -42.5 -34.5c-6 -7.33301 -11.833 -15.333 -17.5 -24
s-29.834 -58 -72.501 -148l-35 -74c-20 -42 -39 -76.833 -57 -104.5s-35 -49.5 -51 -65.5c-16 -15.333 -32.833 -27.333 -50.5 -36s-36.5 -15 -56.5 -19v-6c59.333 -13.333 105.5 -43 138.5 -89s57.167 -119.333 72.5 -220l10 -68c10.667 -68.667 18 -113.167 22 -133.5
s8.33301 -35.833 13 -46.5c6.66699 -14.667 15.334 -25.5 26.001 -32.5s26 -10.5 46 -10.5c9.33301 0 16.666 0.166992 21.999 0.5s10.333 0.833008 15 1.5l-23 -137c-14.667 -6 -30.334 -10.833 -47.001 -14.5s-33 -5.5 -49 -5.5c-25.333 0 -47.833 4.33301 -67.5 13
s-36.167 21.334 -49.5 38.001c-15.333 18.667 -28.166 46.334 -38.499 83.001s-21.833 96.334 -34.5 179.001l-21 133c-8 50.667 -17.667 88.834 -29 114.501s-25.666 46.167 -42.999 61.5c-18 16 -40.167 27.833 -66.5 35.5s-69.5 11.5 -129.5 11.5h-193l-108 -661h-176
l229 1404h176z" />
    <glyph glyph-name="afii10028" unicode="&#x41a;" horiz-adv-x="1251" 
d="M397 804l173.999 -0.00585938c53.333 0 96.833 7.83301 130.5 23.5s63.834 40.834 90.501 75.501c16 20.667 33.833 49 53.5 85s44.167 85.333 73.5 148l33 70c20.667 44 42.667 81.167 66 111.5s47.666 52.5 72.999 66.5c16.667 9.33301 35.834 16.5 57.501 21.5
s45.5 7.5 71.5 7.5c11.333 0 22.833 -0.666992 34.5 -2s24.167 -3.66602 37.5 -6.99902l-23 -139c-4.66699 1.33301 -9.5 2.33301 -14.5 3s-12.5 1 -22.5 1c-18.667 0 -35.167 -3.5 -49.5 -10.5s-28.5 -18.5 -42.5 -34.5c-6 -7.33301 -11.833 -15.333 -17.5 -24
s-29.834 -58 -72.501 -148l-35 -74c-20 -42 -39 -76.833 -57 -104.5s-35 -49.5 -51 -65.5c-16 -15.333 -32.833 -27.333 -50.5 -36s-36.5 -15 -56.5 -19v-6c59.333 -13.333 105.5 -43 138.5 -89s57.167 -119.333 72.5 -220l10 -68c10.667 -68.667 18 -113.167 22 -133.5
s8.33301 -35.833 13 -46.5c6.66699 -14.667 15.334 -25.5 26.001 -32.5s26 -10.5 46 -10.5c9.33301 0 16.666 0.166992 21.999 0.5s10.333 0.833008 15 1.5l-23 -137c-14.667 -6 -30.334 -10.833 -47.001 -14.5s-33 -5.5 -49 -5.5c-25.333 0 -47.833 4.33301 -67.5 13
s-36.167 21.334 -49.5 38.001c-15.333 18.667 -28.166 46.334 -38.499 83.001s-21.833 96.334 -34.5 179.001l-21 133c-8 50.667 -17.667 88.834 -29 114.501s-25.666 46.167 -42.999 61.5c-18 16 -40.167 27.833 -66.5 35.5s-69.5 11.5 -129.5 11.5h-193l-108 -661h-176
l229 1404h176z" />
    <glyph glyph-name="afii10029" unicode="&#xcb;" horiz-adv-x="1273" 
d="M495 1404l758 0.00292969l-232 -1404h-176l205 1253h-422c-54 -250 -81.5 -376.833 -82.5 -380.5s-2.83301 -10.834 -5.5 -21.501c-61.333 -250 -110 -416.833 -146 -500.5s-80.667 -152.834 -134 -207.501c-46 -46.667 -96 -81.834 -150 -105.501
s-105.667 -36.167 -155 -37.5h-12.5h-13.5l26 165h4.5h4.5c23.333 0.666992 46.5 4.83398 69.5 12.501s45.833 19.167 68.5 34.5c55.333 38.667 101.833 98.167 139.5 178.5s84.5 240.166 140.5 479.499c30.667 127.333 51.5 222.333 62.5 285s22.5 120.667 34.5 174z" />
    <glyph glyph-name="afii10029" unicode="&#x41b;" horiz-adv-x="1273" 
d="M495 1404l758 0.00292969l-232 -1404h-176l205 1253h-422c-54 -250 -81.5 -376.833 -82.5 -380.5s-2.83301 -10.834 -5.5 -21.501c-61.333 -250 -110 -416.833 -146 -500.5s-80.667 -152.834 -134 -207.501c-46 -46.667 -96 -81.834 -150 -105.501
s-105.667 -36.167 -155 -37.5h-12.5h-13.5l26 165h4.5h4.5c23.333 0.666992 46.5 4.83398 69.5 12.501s45.833 19.167 68.5 34.5c55.333 38.667 101.833 98.167 139.5 178.5s84.5 240.166 140.5 479.499c30.667 127.333 51.5 222.333 62.5 285s22.5 120.667 34.5 174z" />
    <glyph glyph-name="afii10030" unicode="&#xcc;" horiz-adv-x="1701" 
d="M321 1404h250l237 -1124l5 -4l602 1128h266l-232 -1404h-176l201 1226l-6 2l-649 -1228h-119l-260 1224l-2 2l-201 -1226h-147z" />
    <glyph glyph-name="afii10030" unicode="&#x41c;" horiz-adv-x="1701" 
d="M321 1404h250l237 -1124l5 -4l602 1128h266l-232 -1404h-176l201 1226l-6 2l-649 -1228h-119l-260 1224l-2 2l-201 -1226h-147z" />
    <glyph glyph-name="afii10031" unicode="&#xcd;" horiz-adv-x="1349" 
d="M321 1404h176l-98 -585h655l99 585h176l-232 -1404h-176l111 667h-656l-110 -667h-176z" />
    <glyph glyph-name="afii10031" unicode="&#x41d;" horiz-adv-x="1349" 
d="M321 1404h176l-98 -585h655l99 585h176l-232 -1404h-176l111 667h-656l-110 -667h-176z" />
    <glyph glyph-name="afii10032" unicode="&#xce;" horiz-adv-x="1343" 
d="M786 1425c56 0 105.666 -6.49902 148.999 -19.499s85 -33.167 125 -60.5c74.667 -51.333 131.667 -119 171 -203s59 -184.333 59 -301s-16.667 -233.334 -50 -350.001s-81 -214.334 -143 -293.001c-57.333 -72.667 -123.666 -127.167 -198.999 -163.5
s-162 -54.5 -260 -54.5c-86 0 -161.5 14.5 -226.5 43.5s-119.167 69.5 -162.5 121.5c-44.667 54 -78 116.5 -100 187.5s-33 148.5 -33 232.5c0 124.667 17.667 244.167 53 358.5s82 208.5 140 282.5c56.667 72.667 122.5 127.334 197.5 164.001s168.167 55 279.5 55z
M754.999 1273c-64.667 0 -121.5 -14.1631 -170.5 -42.4961s-94.5 -72.833 -136.5 -133.5c-44.667 -64.667 -79.667 -144 -105 -238s-38 -190 -38 -288c0 -62.667 6.5 -119.334 19.5 -170.001s33.167 -96.334 60.5 -137.001c29.333 -44 63.5 -77.167 102.5 -99.5
s88.5 -33.5 148.5 -33.5c71.333 0 133 14.5 185 43.5s97.667 73.167 137 132.5c42.667 64.667 77.167 145.667 103.5 243s39.5 189.666 39.5 276.999c0 67.333 -6.33301 126.166 -19 176.499s-33 95.833 -61 136.5c-32 48 -69 82.167 -111 102.5s-93.667 30.5 -155 30.5z
" />
    <glyph glyph-name="afii10032" unicode="&#x41e;" horiz-adv-x="1343" 
d="M786 1425c56 0 105.666 -6.49902 148.999 -19.499s85 -33.167 125 -60.5c74.667 -51.333 131.667 -119 171 -203s59 -184.333 59 -301s-16.667 -233.334 -50 -350.001s-81 -214.334 -143 -293.001c-57.333 -72.667 -123.666 -127.167 -198.999 -163.5
s-162 -54.5 -260 -54.5c-86 0 -161.5 14.5 -226.5 43.5s-119.167 69.5 -162.5 121.5c-44.667 54 -78 116.5 -100 187.5s-33 148.5 -33 232.5c0 124.667 17.667 244.167 53 358.5s82 208.5 140 282.5c56.667 72.667 122.5 127.334 197.5 164.001s168.167 55 279.5 55z
M754.999 1273c-64.667 0 -121.5 -14.1631 -170.5 -42.4961s-94.5 -72.833 -136.5 -133.5c-44.667 -64.667 -79.667 -144 -105 -238s-38 -190 -38 -288c0 -62.667 6.5 -119.334 19.5 -170.001s33.167 -96.334 60.5 -137.001c29.333 -44 63.5 -77.167 102.5 -99.5
s88.5 -33.5 148.5 -33.5c71.333 0 133 14.5 185 43.5s97.667 73.167 137 132.5c42.667 64.667 77.167 145.667 103.5 243s39.5 189.666 39.5 276.999c0 67.333 -6.33301 126.166 -19 176.499s-33 95.833 -61 136.5c-32 48 -69 82.167 -111 102.5s-93.667 30.5 -155 30.5z
" />
    <glyph glyph-name="afii10033" unicode="&#xcf;" horiz-adv-x="1329" 
d="M321 1404h987l-231 -1404h-176l204 1253h-634l-205 -1253h-176z" />
    <glyph glyph-name="afii10033" unicode="&#x41f;" horiz-adv-x="1329" 
d="M321 1404h987l-231 -1404h-176l204 1253h-634l-205 -1253h-176z" />
    <glyph glyph-name="afii10034" unicode="&#xd0;" horiz-adv-x="1189" 
d="M321 1404l446.999 -0.000976562c84 0 155 -8.83301 213 -26.5s105 -43.5 141 -77.5c31.333 -30 56.166 -70 74.499 -120s27.5 -105 27.5 -165c0 -65.333 -13.167 -128.166 -39.5 -188.499s-64.833 -110.833 -115.5 -151.5c-49.333 -38.667 -107.166 -66.667 -173.499 -84
s-151.166 -26 -254.499 -26h-283l-96 -565h-172zM467.999 1253l-82.999 -537h296c74 0 130.667 7.83301 170 23.5s74.333 40.167 105 73.5c27.333 30 47.5 62.167 60.5 96.5s19.5 71.5 19.5 111.5c0 37.333 -5 70.5 -15 99.5s-25 52.5 -45 70.5
c-20.667 20 -48.834 35.333 -84.501 46s-88.5 16 -158.5 16h-265z" />
    <glyph glyph-name="afii10034" unicode="&#x420;" horiz-adv-x="1189" 
d="M321 1404l446.999 -0.000976562c84 0 155 -8.83301 213 -26.5s105 -43.5 141 -77.5c31.333 -30 56.166 -70 74.499 -120s27.5 -105 27.5 -165c0 -65.333 -13.167 -128.166 -39.5 -188.499s-64.833 -110.833 -115.5 -151.5c-49.333 -38.667 -107.166 -66.667 -173.499 -84
s-151.166 -26 -254.499 -26h-283l-96 -565h-172zM467.999 1253l-82.999 -537h296c74 0 130.667 7.83301 170 23.5s74.333 40.167 105 73.5c27.333 30 47.5 62.167 60.5 96.5s19.5 71.5 19.5 111.5c0 37.333 -5 70.5 -15 99.5s-25 52.5 -45 70.5
c-20.667 20 -48.834 35.333 -84.501 46s-88.5 16 -158.5 16h-265z" />
    <glyph glyph-name="afii10035" unicode="&#xd1;" horiz-adv-x="1220" 
d="M1251 962l-156.003 -37.002c-5.33301 98.667 -35.333 181.334 -90 248.001s-129.667 100 -225 100c-67.333 0 -128.166 -16.167 -182.499 -48.5s-102.166 -78.833 -143.499 -139.5c-46 -68 -82.667 -154.167 -110 -258.5s-41 -201.166 -41 -290.499
c0 -58 8 -112.833 24 -164.5s39.333 -96.5 70 -134.5c29.333 -36.667 62.833 -63.5 100.5 -80.5s79.167 -25.5 124.5 -25.5c82.667 0 158.5 26.167 227.5 78.5s122.833 132.5 161.5 240.5l144 -55c-14 -36.667 -30.5 -72.5 -49.5 -107.5s-40.167 -67.5 -63.5 -97.5
c-54 -68.667 -116.5 -120.834 -187.5 -156.501s-151.167 -53.5 -240.5 -53.5c-91.333 0 -169.666 18.833 -234.999 56.5s-120 91.5 -164 161.5c-34.667 55.333 -60.167 114.333 -76.5 177s-24.5 132.667 -24.5 210c0 106 16.667 212.5 50 319.5s83 202.5 149 286.5
c62.667 80.667 132.167 139.834 208.5 177.501s161.833 56.5 256.5 56.5c79.333 0 149.833 -13.833 211.5 -41.5s113.167 -67.167 154.5 -118.5c32 -39.333 57.333 -85.5 76 -138.5s29 -107.833 31 -164.5z" />
    <glyph glyph-name="afii10035" unicode="&#x421;" horiz-adv-x="1220" 
d="M1251 962l-156.003 -37.002c-5.33301 98.667 -35.333 181.334 -90 248.001s-129.667 100 -225 100c-67.333 0 -128.166 -16.167 -182.499 -48.5s-102.166 -78.833 -143.499 -139.5c-46 -68 -82.667 -154.167 -110 -258.5s-41 -201.166 -41 -290.499
c0 -58 8 -112.833 24 -164.5s39.333 -96.5 70 -134.5c29.333 -36.667 62.833 -63.5 100.5 -80.5s79.167 -25.5 124.5 -25.5c82.667 0 158.5 26.167 227.5 78.5s122.833 132.5 161.5 240.5l144 -55c-14 -36.667 -30.5 -72.5 -49.5 -107.5s-40.167 -67.5 -63.5 -97.5
c-54 -68.667 -116.5 -120.834 -187.5 -156.501s-151.167 -53.5 -240.5 -53.5c-91.333 0 -169.666 18.833 -234.999 56.5s-120 91.5 -164 161.5c-34.667 55.333 -60.167 114.333 -76.5 177s-24.5 132.667 -24.5 210c0 106 16.667 212.5 50 319.5s83 202.5 149 286.5
c62.667 80.667 132.167 139.834 208.5 177.501s161.833 56.5 256.5 56.5c79.333 0 149.833 -13.833 211.5 -41.5s113.167 -67.167 154.5 -118.5c32 -39.333 57.333 -85.5 76 -138.5s29 -107.833 31 -164.5z" />
    <glyph glyph-name="afii10036" unicode="&#xd2;" horiz-adv-x="989" 
d="M155 1404h971l-27 -151h-397l-205 -1253h-176l205 1253h-397z" />
    <glyph glyph-name="afii10036" unicode="&#x422;" horiz-adv-x="989" 
d="M155 1404h971l-27 -151h-397l-205 -1253h-176l205 1253h-397z" />
    <glyph glyph-name="afii10037" unicode="&#xd3;" horiz-adv-x="1167" 
d="M204 1404h201.001l254 -847h6l469 847h176l-583 -1038c-50.667 -89.333 -94.5 -157.666 -131.5 -204.999s-74.5 -84 -112.5 -110c-33.333 -23.333 -68.5 -40.333 -105.5 -51s-74.833 -16 -113.5 -16c-18 0 -37.5 1.33301 -58.5 4s-42.5 6.66699 -64.5 12l24 147
c18 -4 35.667 -7 53 -9s32.666 -3 45.999 -3c27.333 0 53.833 4.16699 79.5 12.5s49.5 21.166 71.5 38.499c23.333 18 46.5 43.167 69.5 75.5s42.167 64.5 57.5 96.5z" />
    <glyph glyph-name="afii10037" unicode="&#x423;" horiz-adv-x="1167" 
d="M204 1404h201.001l254 -847h6l469 847h176l-583 -1038c-50.667 -89.333 -94.5 -157.666 -131.5 -204.999s-74.5 -84 -112.5 -110c-33.333 -23.333 -68.5 -40.333 -105.5 -51s-74.833 -16 -113.5 -16c-18 0 -37.5 1.33301 -58.5 4s-42.5 6.66699 -64.5 12l24 147
c18 -4 35.667 -7 53 -9s32.666 -3 45.999 -3c27.333 0 53.833 4.16699 79.5 12.5s49.5 21.166 71.5 38.499c23.333 18 46.5 43.167 69.5 75.5s42.167 64.5 57.5 96.5z" />
    <glyph glyph-name="afii10038" unicode="&#xd4;" horiz-adv-x="1548" 
d="M849 1443l170 0.000976562l-30 -196c100 1.33301 187.333 -12.334 262 -41.001s134 -71.667 178 -129c28 -36.667 49.667 -79 65 -127s23 -101.333 23 -160c0 -88.667 -16 -170.667 -48 -246s-79.333 -140 -142 -194c-64.667 -55.333 -141.667 -95.666 -231 -120.999
s-182.333 -37 -279 -35l-37 -214h-170l37 214c-103.333 1.33301 -192.5 16.166 -267.5 44.499s-134.167 71.5 -177.5 129.5c-28 38.667 -49.333 84.334 -64 137.001s-22 102 -22 148c0 91.333 16.5 174.166 49.5 248.499s80.167 137.5 141.5 189.5
c60.667 51.333 133 90 217 116s182.333 39.333 295 40zM675 342.001l125 757.001c-56 2 -111.333 -3.33301 -166 -16s-101 -29.667 -139 -51c-66 -38 -116.333 -91.333 -151 -160s-52 -140.334 -52 -215.001c0 -59.333 11.167 -110.833 33.5 -154.5
s57.833 -79.5 106.5 -107.5c31.333 -18.667 67.5 -32.5 108.5 -41.5s85.833 -12.833 134.5 -11.5zM958 1099l-125 -757.002c106 1.33301 191.833 15.5 257.5 42.5s119.167 66.5 160.5 118.5c28 36 50 77.833 66 125.5s24 96.834 24 147.501c0 66 -12 121.5 -36 166.5
s-56.333 79.5 -97 103.5c-28 16.667 -65 29.834 -111 39.501s-92.333 14.167 -139 13.5z" />
    <glyph glyph-name="afii10038" unicode="&#x424;" horiz-adv-x="1548" 
d="M849 1443l170 0.000976562l-30 -196c100 1.33301 187.333 -12.334 262 -41.001s134 -71.667 178 -129c28 -36.667 49.667 -79 65 -127s23 -101.333 23 -160c0 -88.667 -16 -170.667 -48 -246s-79.333 -140 -142 -194c-64.667 -55.333 -141.667 -95.666 -231 -120.999
s-182.333 -37 -279 -35l-37 -214h-170l37 214c-103.333 1.33301 -192.5 16.166 -267.5 44.499s-134.167 71.5 -177.5 129.5c-28 38.667 -49.333 84.334 -64 137.001s-22 102 -22 148c0 91.333 16.5 174.166 49.5 248.499s80.167 137.5 141.5 189.5
c60.667 51.333 133 90 217 116s182.333 39.333 295 40zM675 342.001l125 757.001c-56 2 -111.333 -3.33301 -166 -16s-101 -29.667 -139 -51c-66 -38 -116.333 -91.333 -151 -160s-52 -140.334 -52 -215.001c0 -59.333 11.167 -110.833 33.5 -154.5
s57.833 -79.5 106.5 -107.5c31.333 -18.667 67.5 -32.5 108.5 -41.5s85.833 -12.833 134.5 -11.5zM958 1099l-125 -757.002c106 1.33301 191.833 15.5 257.5 42.5s119.167 66.5 160.5 118.5c28 36 50 77.833 66 125.5s24 96.834 24 147.501c0 66 -12 121.5 -36 166.5
s-56.333 79.5 -97 103.5c-28 16.667 -65 29.834 -111 39.501s-92.333 14.167 -139 13.5z" />
    <glyph glyph-name="afii10039" unicode="&#xd5;" horiz-adv-x="1091" 
d="M1181 1404l-497 -649l325 -755h-196l-258 598l-463 -598h-175l572 733l-293 671h197l221 -520l391 520h176z" />
    <glyph glyph-name="afii10039" unicode="&#x425;" horiz-adv-x="1091" 
d="M1181 1404l-497 -649l325 -755h-196l-258 598l-463 -598h-175l572 733l-293 671h197l221 -520l391 520h176z" />
    <glyph glyph-name="afii10040" unicode="&#xd6;" horiz-adv-x="1370" 
d="M321 1404h176l-207 -1253h635l207 1253h176l-207 -1253h160l-76 -458h-164l52 307h-983z" />
    <glyph glyph-name="afii10040" unicode="&#x426;" horiz-adv-x="1370" 
d="M321 1404h176l-207 -1253h635l207 1253h176l-207 -1253h160l-76 -458h-164l52 307h-983z" />
    <glyph glyph-name="afii10041" unicode="&#xd7;" horiz-adv-x="1247" 
d="M247 1404l176 -0.000976562l-67 -415c-4 -22.667 -6.33301 -38.667 -7 -48s-1 -18 -1 -26c0 -31.333 4.83301 -57 14.5 -77s24.5 -36.667 44.5 -50c18 -12 40.5 -20.833 67.5 -26.5s61.167 -8.5 102.5 -8.5c58 0 119.167 2.33301 183.5 7s126.166 11.334 185.499 20.001
l104 624h176l-231 -1404h-176l104 628c-51.333 -9.33301 -101.5 -16 -150.5 -20s-105.167 -6 -168.5 -6c-88 0 -157.667 5.83301 -209 17.5s-93 29.5 -125 53.5c-34 25.333 -59.667 59.5 -77 102.5s-26 90.833 -26 143.5c0 4 0.333008 8.16699 1 12.5
s3.33398 20.5 8.00098 48.5z" />
    <glyph glyph-name="afii10041" unicode="&#x427;" horiz-adv-x="1247" 
d="M247 1404l176 -0.000976562l-67 -415c-4 -22.667 -6.33301 -38.667 -7 -48s-1 -18 -1 -26c0 -31.333 4.83301 -57 14.5 -77s24.5 -36.667 44.5 -50c18 -12 40.5 -20.833 67.5 -26.5s61.167 -8.5 102.5 -8.5c58 0 119.167 2.33301 183.5 7s126.166 11.334 185.499 20.001
l104 624h176l-231 -1404h-176l104 628c-51.333 -9.33301 -101.5 -16 -150.5 -20s-105.167 -6 -168.5 -6c-88 0 -157.667 5.83301 -209 17.5s-93 29.5 -125 53.5c-34 25.333 -59.667 59.5 -77 102.5s-26 90.833 -26 143.5c0 4 0.333008 8.16699 1 12.5
s3.33398 20.5 8.00098 48.5z" />
    <glyph glyph-name="afii10042" unicode="&#xd8;" horiz-adv-x="1841" 
d="M321 1404h176l-207 -1253h486l207 1253h176l-207 -1253h485l207 1253h176l-231 -1404h-1499z" />
    <glyph glyph-name="afii10042" unicode="&#x428;" horiz-adv-x="1841" 
d="M321 1404h176l-207 -1253h486l207 1253h176l-207 -1253h485l207 1253h176l-231 -1404h-1499z" />
    <glyph glyph-name="afii10043" unicode="&#xd9;" horiz-adv-x="1882" 
d="M321 1404h176l-207 -1253h486l207 1253h176l-207 -1253h485l207 1253h176l-207 -1253h160l-76 -458h-164l52 307h-1495z" />
    <glyph glyph-name="afii10043" unicode="&#x429;" horiz-adv-x="1882" 
d="M321 1404h176l-207 -1253h486l207 1253h176l-207 -1253h485l207 1253h176l-207 -1253h160l-76 -458h-164l52 307h-1495z" />
    <glyph glyph-name="afii10044" unicode="&#xda;" horiz-adv-x="1382" 
d="M122 1404l576 0.000976562l-100 -600h303c77.333 0 139.5 -6.5 186.5 -19.5s87.833 -33.167 122.5 -60.5c36 -28 63.333 -62.5 82 -103.5s28 -93.167 28 -156.5c0 -68.667 -12.667 -133.167 -38 -193.5s-62.333 -112.5 -111 -156.5
c-41.333 -36.667 -88.833 -64.834 -142.5 -84.501s-111.167 -29.5 -172.5 -29.5h-568l207 1249h-401zM575 653.001l-88.002 -502.001h285c88.667 0 158.834 12.333 210.501 37s89.834 62.334 114.501 113.001c10 20 18.333 43 25 69s10 48.667 10 68
c0 34 -4.83301 64.5 -14.5 91.5s-23.167 48.833 -40.5 65.5c-19.333 19.333 -42.333 33.833 -69 43.5s-66 14.5 -118 14.5h-315z" />
    <glyph glyph-name="afii10044" unicode="&#x42a;" horiz-adv-x="1382" 
d="M122 1404l576 0.000976562l-100 -600h303c77.333 0 139.5 -6.5 186.5 -19.5s87.833 -33.167 122.5 -60.5c36 -28 63.333 -62.5 82 -103.5s28 -93.167 28 -156.5c0 -68.667 -12.667 -133.167 -38 -193.5s-62.333 -112.5 -111 -156.5
c-41.333 -36.667 -88.833 -64.834 -142.5 -84.501s-111.167 -29.5 -172.5 -29.5h-568l207 1249h-401zM575 653.001l-88.002 -502.001h285c88.667 0 158.834 12.333 210.501 37s89.834 62.334 114.501 113.001c10 20 18.333 43 25 69s10 48.667 10 68
c0 34 -4.83301 64.5 -14.5 91.5s-23.167 48.833 -40.5 65.5c-19.333 19.333 -42.333 33.833 -69 43.5s-66 14.5 -118 14.5h-315z" />
    <glyph glyph-name="afii10045" unicode="&#xdb;" horiz-adv-x="1648" 
d="M319 1404l175.999 0.000976562l-100 -600h303c76 0 138.333 -6.5 187 -19.5s90 -33.167 124 -60.5c36.667 -28 64.667 -63.333 84 -106s29 -96 29 -160s-13.5 -126.667 -40.5 -188s-63.5 -113.333 -109.5 -156c-45.333 -42.667 -95.166 -72.334 -149.499 -89.001
s-125.833 -25 -214.5 -25h-518zM373.999 653.001l-86.001 -502h285c62 0 112.333 5.16699 151 15.5s71.667 25.5 99 45.5c35.333 26.667 62.5 60.5 81.5 101.5s28.5 83.833 28.5 128.5c0 36.667 -4.66699 67.667 -14 93s-24.333 47 -45 65
c-20.667 17.333 -47.167 30.5 -79.5 39.5s-76.166 13.5 -131.499 13.5h-289zM1452 1404h176l-244 -1404h-176z" />
    <glyph glyph-name="afii10045" unicode="&#x42b;" horiz-adv-x="1648" 
d="M319 1404l175.999 0.000976562l-100 -600h303c76 0 138.333 -6.5 187 -19.5s90 -33.167 124 -60.5c36.667 -28 64.667 -63.333 84 -106s29 -96 29 -160s-13.5 -126.667 -40.5 -188s-63.5 -113.333 -109.5 -156c-45.333 -42.667 -95.166 -72.334 -149.499 -89.001
s-125.833 -25 -214.5 -25h-518zM373.999 653.001l-86.001 -502h285c62 0 112.333 5.16699 151 15.5s71.667 25.5 99 45.5c35.333 26.667 62.5 60.5 81.5 101.5s28.5 83.833 28.5 128.5c0 36.667 -4.66699 67.667 -14 93s-24.333 47 -45 65
c-20.667 17.333 -47.167 30.5 -79.5 39.5s-76.166 13.5 -131.499 13.5h-289zM1452 1404h176l-244 -1404h-176z" />
    <glyph glyph-name="afii10046" unicode="&#xdc;" horiz-adv-x="1177" 
d="M321 1404l176 0.000976562l-100 -600h303c74.667 0 137.167 -6.5 187.5 -19.5s92.166 -33.167 125.499 -60.5c36 -28 63.5 -64.833 82.5 -110.5s28.5 -97.5 28.5 -155.5c0 -66.667 -13.5 -130 -40.5 -190s-64.167 -111.333 -111.5 -154
c-40.667 -36.667 -87.167 -64.834 -139.5 -84.501s-116.166 -29.5 -191.499 -29.5h-551zM376 653.001l-88.001 -501.999h285c61.333 0 111.833 5.33301 151.5 16s73.167 25.667 100.5 45c34 25.333 60.5 57.666 79.5 96.999s28.5 85 28.5 137c0 38 -5.16699 69.333 -15.5 94
s-26.166 46 -47.499 64c-19.333 16 -43 28.167 -71 36.5s-63.667 12.5 -107 12.5h-316z" />
    <glyph glyph-name="afii10046" unicode="&#x42c;" horiz-adv-x="1177" 
d="M321 1404l176 0.000976562l-100 -600h303c74.667 0 137.167 -6.5 187.5 -19.5s92.166 -33.167 125.499 -60.5c36 -28 63.5 -64.833 82.5 -110.5s28.5 -97.5 28.5 -155.5c0 -66.667 -13.5 -130 -40.5 -190s-64.167 -111.333 -111.5 -154
c-40.667 -36.667 -87.167 -64.834 -139.5 -84.501s-116.166 -29.5 -191.499 -29.5h-551zM376 653.001l-88.001 -501.999h285c61.333 0 111.833 5.33301 151.5 16s73.167 25.667 100.5 45c34 25.333 60.5 57.666 79.5 96.999s28.5 85 28.5 137c0 38 -5.16699 69.333 -15.5 94
s-26.166 46 -47.499 64c-19.333 16 -43 28.167 -71 36.5s-63.667 12.5 -107 12.5h-316z" />
    <glyph glyph-name="afii10047" unicode="&#xdd;" horiz-adv-x="1224" 
d="M305 978l-155.996 36.999c18.667 52 43.5 101 74.5 147s66.167 86.667 105.5 122c56.667 50 116 86 178 108s129 33 201 33c76 0 144.167 -12 204.5 -36s110.833 -61.333 151.5 -112c35.333 -42.667 62 -95.834 80 -159.501s27 -135.167 27 -214.5
c0 -99.333 -14.333 -207.5 -43 -324.5s-66.334 -217.167 -113.001 -300.5c-57.333 -102.667 -130.166 -178 -218.499 -226s-190.166 -72 -305.499 -72c-63.333 0 -119.666 8.16699 -168.999 24.5s-92 39.166 -128 68.499c-42.667 35.333 -77.334 80 -104.001 134
s-43.334 109.667 -50.001 167l164 35c4.66699 -29.333 12.667 -58.166 24 -86.499s25.333 -54.166 42 -77.499c27.333 -37.333 61 -65.666 101 -84.999s91 -29 153 -29c62.667 0 118.667 13.667 168 41s95 71 137 131c31.333 44 58.666 97.167 81.999 159.5
s39.666 127.166 48.999 194.499h-512l25 143h512c2 15.333 3.5 31.833 4.5 49.5s1.5 36.834 1.5 57.501c0 46.667 -4.66699 91.5 -14 134.5s-23.333 78.5 -42 106.5c-24.667 38.667 -59 69.167 -103 91.5s-93.333 33.5 -148 33.5c-48.667 0 -93 -8.33301 -133 -25
s-77.667 -41 -113 -73c-28.667 -26.667 -54.334 -57 -77.001 -91s-41.334 -69.333 -56.001 -106z" />
    <glyph glyph-name="afii10047" unicode="&#x42d;" horiz-adv-x="1224" 
d="M305 978l-155.996 36.999c18.667 52 43.5 101 74.5 147s66.167 86.667 105.5 122c56.667 50 116 86 178 108s129 33 201 33c76 0 144.167 -12 204.5 -36s110.833 -61.333 151.5 -112c35.333 -42.667 62 -95.834 80 -159.501s27 -135.167 27 -214.5
c0 -99.333 -14.333 -207.5 -43 -324.5s-66.334 -217.167 -113.001 -300.5c-57.333 -102.667 -130.166 -178 -218.499 -226s-190.166 -72 -305.499 -72c-63.333 0 -119.666 8.16699 -168.999 24.5s-92 39.166 -128 68.499c-42.667 35.333 -77.334 80 -104.001 134
s-43.334 109.667 -50.001 167l164 35c4.66699 -29.333 12.667 -58.166 24 -86.499s25.333 -54.166 42 -77.499c27.333 -37.333 61 -65.666 101 -84.999s91 -29 153 -29c62.667 0 118.667 13.667 168 41s95 71 137 131c31.333 44 58.666 97.167 81.999 159.5
s39.666 127.166 48.999 194.499h-512l25 143h512c2 15.333 3.5 31.833 4.5 49.5s1.5 36.834 1.5 57.501c0 46.667 -4.66699 91.5 -14 134.5s-23.333 78.5 -42 106.5c-24.667 38.667 -59 69.167 -103 91.5s-93.333 33.5 -148 33.5c-48.667 0 -93 -8.33301 -133 -25
s-77.667 -41 -113 -73c-28.667 -26.667 -54.334 -57 -77.001 -91s-41.334 -69.333 -56.001 -106z" />
    <glyph glyph-name="afii10048" unicode="&#xde;" horiz-adv-x="1806" 
d="M376 808h247.998c35.333 185.333 105.666 333.5 210.999 444.5s240 166.5 404 166.5c160.667 0 287.5 -53 380.5 -159s139.5 -253 139.5 -441c0 -234 -56.667 -433.333 -170 -598s-271.666 -247 -474.999 -247c-191.333 0 -329.666 67.333 -414.999 202
s-117.666 297.667 -96.999 489h-250l-107 -665h-176l227 1404h177zM1251 1267c-148.667 0 -266.333 -68.833 -353 -206.5s-130 -296.167 -130 -475.5c0 -153.333 29.5 -268.5 88.5 -345.5s141.167 -115.5 246.5 -115.5c144.667 0 260.167 67.833 346.5 203.5
s129.5 298.167 129.5 487.5c0 151.333 -32.167 264.5 -96.5 339.5s-141.5 112.5 -231.5 112.5z" />
    <glyph glyph-name="afii10048" unicode="&#x42e;" horiz-adv-x="1806" 
d="M376 808h247.998c35.333 185.333 105.666 333.5 210.999 444.5s240 166.5 404 166.5c160.667 0 287.5 -53 380.5 -159s139.5 -253 139.5 -441c0 -234 -56.667 -433.333 -170 -598s-271.666 -247 -474.999 -247c-191.333 0 -329.666 67.333 -414.999 202
s-117.666 297.667 -96.999 489h-250l-107 -665h-176l227 1404h177zM1251 1267c-148.667 0 -266.333 -68.833 -353 -206.5s-130 -296.167 -130 -475.5c0 -153.333 29.5 -268.5 88.5 -345.5s141.167 -115.5 246.5 -115.5c144.667 0 260.167 67.833 346.5 203.5
s129.5 298.167 129.5 487.5c0 151.333 -32.167 264.5 -96.5 339.5s-141.5 112.5 -231.5 112.5z" />
    <glyph glyph-name="afii10049" unicode="&#xdf;" horiz-adv-x="1251" 
d="M1226 1404l-228.996 -1404h-176l98 608h-287l-446 -608h-216l484 641c-25.333 4.66699 -49.5 12 -72.5 22s-43.167 21 -60.5 33c-38.667 27.333 -68.834 62.666 -90.501 105.999s-32.5 96 -32.5 158c0 76 14.667 144.333 44 205s70.666 110.334 123.999 149.001
c39.333 29.333 85.166 51.666 137.499 66.999s117.166 23 194.499 23h528zM1028 1253l-308.001 -0.000976562c-56.667 0 -101.167 -4 -133.5 -12s-62.833 -21.667 -91.5 -41c-37.333 -25.333 -64.666 -56.5 -81.999 -93.5s-26 -81.833 -26 -134.5
c0 -31.333 4.5 -60.166 13.5 -86.499s22.167 -47.833 39.5 -64.5c22 -22 51.5 -37.833 88.5 -47.5s88.833 -14.5 155.5 -14.5h262z" />
    <glyph glyph-name="afii10049" unicode="&#x42f;" horiz-adv-x="1251" 
d="M1226 1404l-228.996 -1404h-176l98 608h-287l-446 -608h-216l484 641c-25.333 4.66699 -49.5 12 -72.5 22s-43.167 21 -60.5 33c-38.667 27.333 -68.834 62.666 -90.501 105.999s-32.5 96 -32.5 158c0 76 14.667 144.333 44 205s70.666 110.334 123.999 149.001
c39.333 29.333 85.166 51.666 137.499 66.999s117.166 23 194.499 23h528zM1028 1253l-308.001 -0.000976562c-56.667 0 -101.167 -4 -133.5 -12s-62.833 -21.667 -91.5 -41c-37.333 -25.333 -64.666 -56.5 -81.999 -93.5s-26 -81.833 -26 -134.5
c0 -31.333 4.5 -60.166 13.5 -86.499s22.167 -47.833 39.5 -64.5c22 -22 51.5 -37.833 88.5 -47.5s88.833 -14.5 155.5 -14.5h262z" />
    <glyph glyph-name="afii10065" unicode="&#xe0;" horiz-adv-x="1116" 
d="M303 772l-146 63c10.667 24 23.5 45.833 38.5 65.5s32.167 38.167 51.5 55.5c44 38 93.833 65.5 149.5 82.5s117.167 25.5 184.5 25.5c129.333 0 231.333 -25.667 306 -77s112 -132 112 -242v-45c0 -0.666992 -21 -117 -63 -349c-18.667 -100 -31 -172.167 -37 -216.5
s-9.66699 -89.166 -11 -134.499h-155c0 34.667 1.33301 68.834 4 102.501s6.66699 66.167 12 97.5c-17.333 -26 -36.166 -50.5 -56.499 -73.5s-40.5 -42.167 -60.5 -57.5c-35.333 -28 -75.5 -49.833 -120.5 -65.5s-92.833 -23.5 -143.5 -23.5
c-46 0 -89.5 6.83301 -130.5 20.5s-76.5 35.167 -106.5 64.5c-28 26.667 -50.167 59 -66.5 97s-24.5 80 -24.5 126c0 54.667 11.167 103 33.5 145s54.166 78.333 95.499 109c50 36.667 111.333 63.667 184 81s167 26 283 26c38.667 0 71.834 -0.833008 99.501 -2.5
s56.167 -4.5 85.5 -8.5c5.33301 22 9.33301 43.167 12 63.5s4 38.166 4 53.499c0 33.333 -5 60.5 -15 81.5s-26 39.5 -48 55.5c-20.667 15.333 -45.167 26.666 -73.5 33.999s-65.5 11 -111.5 11c-38.667 0 -72.334 -4.16699 -101.001 -12.5s-57 -22.5 -85 -42.5
c-20 -14 -38.5 -30.167 -55.5 -48.5s-31.833 -38.833 -44.5 -61.5zM802 512c-32.667 3.33301 -65.666 5.83301 -98.999 7.5s-67 2.5 -101 2.5c-64 0 -118.333 -4.33301 -163 -13s-84 -23 -118 -43c-38 -22 -65.667 -48.667 -83 -80s-26 -66.666 -26 -105.999
c0 -25.333 4.16699 -48.333 12.5 -69s20.166 -38.667 35.499 -54c16.667 -16.667 36.5 -29.334 59.5 -38.001s48.833 -13 77.5 -13c54 0 107 14.167 159 42.5s99.333 70.833 142 127.5c26.667 36 48.667 73.5 66 112.5s30 80.167 38 123.5z" />
    <glyph glyph-name="afii10065" unicode="&#x430;" horiz-adv-x="1116" 
d="M303 772l-146 63c10.667 24 23.5 45.833 38.5 65.5s32.167 38.167 51.5 55.5c44 38 93.833 65.5 149.5 82.5s117.167 25.5 184.5 25.5c129.333 0 231.333 -25.667 306 -77s112 -132 112 -242v-45c0 -0.666992 -21 -117 -63 -349c-18.667 -100 -31 -172.167 -37 -216.5
s-9.66699 -89.166 -11 -134.499h-155c0 34.667 1.33301 68.834 4 102.501s6.66699 66.167 12 97.5c-17.333 -26 -36.166 -50.5 -56.499 -73.5s-40.5 -42.167 -60.5 -57.5c-35.333 -28 -75.5 -49.833 -120.5 -65.5s-92.833 -23.5 -143.5 -23.5
c-46 0 -89.5 6.83301 -130.5 20.5s-76.5 35.167 -106.5 64.5c-28 26.667 -50.167 59 -66.5 97s-24.5 80 -24.5 126c0 54.667 11.167 103 33.5 145s54.166 78.333 95.499 109c50 36.667 111.333 63.667 184 81s167 26 283 26c38.667 0 71.834 -0.833008 99.501 -2.5
s56.167 -4.5 85.5 -8.5c5.33301 22 9.33301 43.167 12 63.5s4 38.166 4 53.499c0 33.333 -5 60.5 -15 81.5s-26 39.5 -48 55.5c-20.667 15.333 -45.167 26.666 -73.5 33.999s-65.5 11 -111.5 11c-38.667 0 -72.334 -4.16699 -101.001 -12.5s-57 -22.5 -85 -42.5
c-20 -14 -38.5 -30.167 -55.5 -48.5s-31.833 -38.833 -44.5 -61.5zM802 512c-32.667 3.33301 -65.666 5.83301 -98.999 7.5s-67 2.5 -101 2.5c-64 0 -118.333 -4.33301 -163 -13s-84 -23 -118 -43c-38 -22 -65.667 -48.667 -83 -80s-26 -66.666 -26 -105.999
c0 -25.333 4.16699 -48.333 12.5 -69s20.166 -38.667 35.499 -54c16.667 -16.667 36.5 -29.334 59.5 -38.001s48.833 -13 77.5 -13c54 0 107 14.167 159 42.5s99.333 70.833 142 127.5c26.667 36 48.667 73.5 66 112.5s30 80.167 38 123.5z" />
    <glyph glyph-name="afii10066" unicode="&#xe1;" horiz-adv-x="1101" 
d="M1132 1425l-28.9971 -148c-35.333 -16.667 -77 -31.334 -125 -44.001s-119.667 -28 -215 -46c-96 -18 -161.5 -32.833 -196.5 -44.5s-66.167 -26.167 -93.5 -43.5c-50 -30 -94.167 -72.833 -132.5 -128.5s-63.833 -110.5 -76.5 -164.5h8
c15.333 26.667 33.166 51.5 53.499 74.5s42.166 42.833 65.499 59.5c32.667 23.333 70 41.333 112 54s88.667 19 140 19c44.667 0 87 -5.83301 127 -17.5s75.333 -28.167 106 -49.5c47.333 -34 83.833 -79.167 109.5 -135.5s38.5 -121.833 38.5 -196.5
c0 -79.333 -11.167 -157.833 -33.5 -235.5s-56.5 -148.167 -102.5 -211.5c-48.667 -67.333 -104.834 -115.333 -168.501 -144s-135.167 -43 -214.5 -43s-147 12.333 -203 37s-103 66.667 -141 126c-27.333 42 -46.666 87.167 -57.999 135.5s-17 109.5 -17 183.5
c0 78.667 8.16699 158.334 24.5 239.001s40.166 158.667 71.499 234c44.667 108 102 192 172 252s169.667 104.333 299 133c76.667 17.333 150.667 32 222 44s121 22 149 30zM614.003 878c-42.667 0 -82 -7.83398 -118 -23.501s-67.667 -37.167 -95 -64.5
c-40.667 -41.333 -73.334 -98.5 -98.001 -171.5s-37 -148.167 -37 -225.5c0 -42 5 -80.333 15 -115s23.333 -62.667 40 -84c19.333 -24 44.5 -43.333 75.5 -58s64.5 -22 100.5 -22c59.333 0 111.666 15.5 156.999 46.5s83.333 76.167 114 135.5c22 44 40 97 54 159
s21 117.667 21 167c0 38.667 -5 73.5 -15 104.5s-24.667 57.5 -44 79.5c-19.333 22.667 -43.166 40.334 -71.499 53.001s-61.166 19 -98.499 19z" />
    <glyph glyph-name="afii10066" unicode="&#x431;" horiz-adv-x="1101" 
d="M1132 1425l-28.9971 -148c-35.333 -16.667 -77 -31.334 -125 -44.001s-119.667 -28 -215 -46c-96 -18 -161.5 -32.833 -196.5 -44.5s-66.167 -26.167 -93.5 -43.5c-50 -30 -94.167 -72.833 -132.5 -128.5s-63.833 -110.5 -76.5 -164.5h8
c15.333 26.667 33.166 51.5 53.499 74.5s42.166 42.833 65.499 59.5c32.667 23.333 70 41.333 112 54s88.667 19 140 19c44.667 0 87 -5.83301 127 -17.5s75.333 -28.167 106 -49.5c47.333 -34 83.833 -79.167 109.5 -135.5s38.5 -121.833 38.5 -196.5
c0 -79.333 -11.167 -157.833 -33.5 -235.5s-56.5 -148.167 -102.5 -211.5c-48.667 -67.333 -104.834 -115.333 -168.501 -144s-135.167 -43 -214.5 -43s-147 12.333 -203 37s-103 66.667 -141 126c-27.333 42 -46.666 87.167 -57.999 135.5s-17 109.5 -17 183.5
c0 78.667 8.16699 158.334 24.5 239.001s40.166 158.667 71.499 234c44.667 108 102 192 172 252s169.667 104.333 299 133c76.667 17.333 150.667 32 222 44s121 22 149 30zM614.003 878c-42.667 0 -82 -7.83398 -118 -23.501s-67.667 -37.167 -95 -64.5
c-40.667 -41.333 -73.334 -98.5 -98.001 -171.5s-37 -148.167 -37 -225.5c0 -42 5 -80.333 15 -115s23.333 -62.667 40 -84c19.333 -24 44.5 -43.333 75.5 -58s64.5 -22 100.5 -22c59.333 0 111.666 15.5 156.999 46.5s83.333 76.167 114 135.5c22 44 40 97 54 159
s21 117.667 21 167c0 38.667 -5 73.5 -15 104.5s-24.667 57.5 -44 79.5c-19.333 22.667 -43.166 40.334 -71.499 53.001s-61.166 19 -98.499 19z" />
    <glyph glyph-name="afii10067" unicode="&#xe2;" horiz-adv-x="1116" 
d="M245 1044l472.999 0.00195312c42 0 81.167 -4.33301 117.5 -13s66.833 -21.334 91.5 -38.001c30 -20.667 52.833 -46.834 68.5 -78.501s23.5 -68.5 23.5 -110.5c0 -35.333 -5.83301 -68 -17.5 -98s-28.834 -56.667 -51.501 -80c-17.333 -18 -37.5 -33.667 -60.5 -47
s-47.167 -24.333 -72.5 -33c60.667 -17.333 105.5 -45.5 134.5 -84.5s43.5 -89.167 43.5 -150.5c0 -36 -6.33301 -70.5 -19 -103.5s-29.667 -62.167 -51 -87.5c-33.333 -40 -74.666 -70 -123.999 -90s-105.666 -30 -168.999 -30h-557zM381.999 917.002l-51 -308.999h258
c45.333 0 81.833 3.16699 109.5 9.5s51.5 16.166 71.5 29.499c24.667 16 43 36.167 55 60.5s18 52.5 18 84.5c0 24.667 -2.66699 43.5 -8 56.5s-13.333 24.167 -24 33.5c-14 12 -32 20.833 -54 26.5s-50 8.5 -84 8.5h-291zM310.999 481.003l-58 -355.002h326
c32 0 61 3.33301 87 10s48.333 16.334 67 29.001c22.667 16 42 38.333 58 67s24 59 24 91c0 28 -5 52.333 -15 73s-23.667 37.334 -41 50.001c-14 10 -33 18.333 -57 25s-48.667 10 -74 10h-317z" />
    <glyph glyph-name="afii10067" unicode="&#x432;" horiz-adv-x="1116" 
d="M245 1044l472.999 0.00195312c42 0 81.167 -4.33301 117.5 -13s66.833 -21.334 91.5 -38.001c30 -20.667 52.833 -46.834 68.5 -78.501s23.5 -68.5 23.5 -110.5c0 -35.333 -5.83301 -68 -17.5 -98s-28.834 -56.667 -51.501 -80c-17.333 -18 -37.5 -33.667 -60.5 -47
s-47.167 -24.333 -72.5 -33c60.667 -17.333 105.5 -45.5 134.5 -84.5s43.5 -89.167 43.5 -150.5c0 -36 -6.33301 -70.5 -19 -103.5s-29.667 -62.167 -51 -87.5c-33.333 -40 -74.666 -70 -123.999 -90s-105.666 -30 -168.999 -30h-557zM381.999 917.002l-51 -308.999h258
c45.333 0 81.833 3.16699 109.5 9.5s51.5 16.166 71.5 29.499c24.667 16 43 36.167 55 60.5s18 52.5 18 84.5c0 24.667 -2.66699 43.5 -8 56.5s-13.333 24.167 -24 33.5c-14 12 -32 20.833 -54 26.5s-50 8.5 -84 8.5h-291zM310.999 481.003l-58 -355.002h326
c32 0 61 3.33301 87 10s48.333 16.334 67 29.001c22.667 16 42 38.333 58 67s24 59 24 91c0 28 -5 52.333 -15 73s-23.667 37.334 -41 50.001c-14 10 -33 18.333 -57 25s-48.667 10 -74 10h-317z" />
    <glyph glyph-name="glyph146" unicode="&#xe3;" horiz-adv-x="798" 
d="M247 1044h633l-20 -131h-475l-152 -913h-158z" />
    <glyph glyph-name="glyph146" unicode="&#x433;" horiz-adv-x="798" 
d="M247 1044h633l-20 -131h-475l-152 -913h-158z" />
    <glyph glyph-name="afii10069" unicode="&#xe4;" horiz-adv-x="1056" 
d="M356 1044h614l-149 -918h106l-65 -390h-144l45 264h-698l-45 -264h-142l65 390h73c72.667 84.667 132.167 180.667 178.5 288s93.833 286 142.5 536zM794 917l-319 -0.000976562c-8 -50.667 -18.667 -104.667 -32 -162s-27.333 -110.666 -42 -159.999
c-18 -60 -38.5 -120 -61.5 -180s-43.5 -106.333 -61.5 -139c-1.33301 -2 -2.5 -3.83301 -3.5 -5.5l-88.5 -144.5h479z" />
    <glyph glyph-name="afii10069" unicode="&#x434;" horiz-adv-x="1056" 
d="M356 1044h614l-149 -918h106l-65 -390h-144l45 264h-698l-45 -264h-142l65 390h73c72.667 84.667 132.167 180.667 178.5 288s93.833 286 142.5 536zM794 917l-319 -0.000976562c-8 -50.667 -18.667 -104.667 -32 -162s-27.333 -110.666 -42 -159.999
c-18 -60 -38.5 -120 -61.5 -180s-43.5 -106.333 -61.5 -139c-1.33301 -2 -2.5 -3.83301 -3.5 -5.5l-88.5 -144.5h479z" />
    <glyph glyph-name="afii10070" unicode="&#xe5;" horiz-adv-x="1101" 
d="M1015 499l-761.999 0.00195312c-2.66699 -14 -4.66699 -28.333 -6 -43s-2 -29.667 -2 -45c0 -26 2.5 -52 7.5 -78s12.167 -49 21.5 -69c22.667 -50.667 55.334 -88.334 98.001 -113.001s92.667 -37 150 -37c42 0 79.167 5.16699 111.5 15.5s62.5 27.166 90.5 50.499
c21.333 16.667 40.5 36.167 57.5 58.5s31.5 45.833 43.5 70.5l137 -70c-19.333 -33.333 -42.333 -65.166 -69 -95.499s-55.667 -56.5 -87 -78.5c-42 -30 -86.833 -51.667 -134.5 -65s-99.5 -20 -155.5 -20c-68.667 0 -129 10.333 -181 31s-97.667 51.667 -137 93
c-42 44.667 -73.667 97.334 -95 158.001s-32 124.667 -32 192c0 71.333 10.5 142.166 31.5 212.499s53.5 134.166 97.5 191.499c50.667 66 110 116.833 178 152.5s143.333 53.5 226 53.5c61.333 0 116.666 -9 165.999 -27s90.666 -42.333 123.999 -73
c43.333 -39.333 75.333 -88.833 96 -148.5s31 -133.167 31 -220.5c0 -15.333 -0.5 -31 -1.5 -47s-2.5 -32.333 -4.5 -49zM274.001 626.002h584v19.5v19.5c-1.33301 39.333 -6 73.833 -14 103.5s-20.667 55.834 -38 78.501c-20.667 28 -48.334 50 -83.001 66
s-74.334 24 -119.001 24c-40 0 -78 -7 -114 -21s-68.333 -34 -97 -60c-29.333 -26.667 -54.666 -59.834 -75.999 -99.501s-35.666 -83.167 -42.999 -130.5z" />
    <glyph glyph-name="afii10070" unicode="&#x435;" horiz-adv-x="1101" 
d="M1015 499l-761.999 0.00195312c-2.66699 -14 -4.66699 -28.333 -6 -43s-2 -29.667 -2 -45c0 -26 2.5 -52 7.5 -78s12.167 -49 21.5 -69c22.667 -50.667 55.334 -88.334 98.001 -113.001s92.667 -37 150 -37c42 0 79.167 5.16699 111.5 15.5s62.5 27.166 90.5 50.499
c21.333 16.667 40.5 36.167 57.5 58.5s31.5 45.833 43.5 70.5l137 -70c-19.333 -33.333 -42.333 -65.166 -69 -95.499s-55.667 -56.5 -87 -78.5c-42 -30 -86.833 -51.667 -134.5 -65s-99.5 -20 -155.5 -20c-68.667 0 -129 10.333 -181 31s-97.667 51.667 -137 93
c-42 44.667 -73.667 97.334 -95 158.001s-32 124.667 -32 192c0 71.333 10.5 142.166 31.5 212.499s53.5 134.166 97.5 191.499c50.667 66 110 116.833 178 152.5s143.333 53.5 226 53.5c61.333 0 116.666 -9 165.999 -27s90.666 -42.333 123.999 -73
c43.333 -39.333 75.333 -88.833 96 -148.5s31 -133.167 31 -220.5c0 -15.333 -0.5 -31 -1.5 -47s-2.5 -32.333 -4.5 -49zM274.001 626.002h584v19.5v19.5c-1.33301 39.333 -6 73.833 -14 103.5s-20.667 55.834 -38 78.501c-20.667 28 -48.334 50 -83.001 66
s-74.334 24 -119.001 24c-40 0 -78 -7 -114 -21s-68.333 -34 -97 -60c-29.333 -26.667 -54.666 -59.834 -75.999 -99.501s-35.666 -83.167 -42.999 -130.5z" />
    <glyph glyph-name="afii10072" unicode="&#xe6;" horiz-adv-x="1443" 
d="M739 1044l146.991 -0.00292969l-71 -436h84c48.667 0 88.834 9.83301 120.501 29.5s60.167 52.834 85.5 99.501c20.667 36.667 40.667 78.167 60 124.5s37 80.5 53 102.5c21.333 30 46 51.833 74 65.5s65.333 20.5 112 20.5c7.33301 0 14.833 -0.5 22.5 -1.5
s16.834 -2.5 27.501 -4.5l-21 -123c-4 0.666992 -8.33301 1.16699 -13 1.5s-9.33398 0.5 -14.001 0.5c-28 0 -49.167 -7.16699 -63.5 -21.5s-28.5 -37.833 -42.5 -70.5l-20 -47c-26.667 -60 -42.667 -95.333 -48 -106s-10.666 -20.334 -15.999 -29.001
c-18.667 -30.667 -40.167 -53.667 -64.5 -69s-51.833 -23.666 -82.5 -24.999v-5c17.333 -4.66699 34.333 -12.167 51 -22.5s30.334 -21.833 41.001 -34.5s20.834 -31.167 30.501 -55.5s17.167 -49.5 22.5 -75.5l22 -117c11.333 -55.333 19.5 -87.833 24.5 -97.5
s10.5 -16.834 16.5 -21.501c4.66699 -2.66699 9.66699 -4.66699 15 -6s10.666 -2 15.999 -2c14 0 23.833 0.333008 29.5 1s10.834 1.66699 15.501 3l-20 -122c-10 -1.33301 -20.667 -2.66602 -32 -3.99902s-24 -2 -38 -2c-26.667 0 -48.167 2.5 -64.5 7.5
s-30.166 12.5 -41.499 22.5c-17.333 14.667 -32.166 39.667 -44.499 75s-22.833 85.333 -31.5 150l-6 45c-5.33301 36 -12.833 67.333 -22.5 94s-21.5 46.667 -35.5 60c-11.333 10.667 -25.166 18.834 -41.499 24.501s-44.166 8.5 -83.499 8.5h-100l-78 -481h-147l78 481
h-93c-35.333 0 -62.666 -2.66699 -81.999 -8s-37.666 -13.666 -54.999 -24.999c-19.333 -13.333 -37.333 -31.333 -54 -54s-32 -49 -46 -79l-90 -199c-6.66699 -13.333 -17.334 -29.333 -32.001 -48s-28.667 -32.667 -42 -42c-16.667 -12 -35.5 -20.333 -56.5 -25
s-45.833 -7 -74.5 -7c-12 0 -23.833 0.5 -35.5 1.5s-23.5 2.5 -35.5 4.5l21 124c5.33301 -1.33301 11 -2.33301 17 -3s13 -1 21 -1c24 0 42.333 6.5 55 19.5s40 65.167 82 156.5l31 68c4 8.66699 10.333 21 19 37s16 28.333 22 37c21.333 34 45.833 60.333 73.5 79
s57.5 29.667 89.5 33l2 5c-16 5.33301 -30.833 15.5 -44.5 30.5s-25.834 34.833 -36.501 59.5c-6.66699 14.667 -12.5 31.5 -17.5 50.5s-9.5 44.5 -13.5 76.5l-6 45c-3.33301 22 -8.33301 41.667 -15 59s-14.667 29.666 -24 36.999c-5.33301 4 -12.166 7 -20.499 9
s-17.833 3 -28.5 3c-4 0 -8 -0.333008 -12 -1s-8.33301 -1.66699 -13 -3l21 123c8.66699 2 17.334 3.5 26.001 4.5s17.667 1.5 27 1.5c37.333 0 67.333 -6.66699 90 -20s41 -36 55 -68c9.33301 -20.667 16.833 -55.167 22.5 -103.5s11.834 -86.166 18.501 -113.499
c11.333 -45.333 30.166 -79.5 56.499 -102.5s66.166 -34.5 119.499 -34.5h80z" />
    <glyph glyph-name="afii10072" unicode="&#x436;" horiz-adv-x="1443" 
d="M739 1044l146.991 -0.00292969l-71 -436h84c48.667 0 88.834 9.83301 120.501 29.5s60.167 52.834 85.5 99.501c20.667 36.667 40.667 78.167 60 124.5s37 80.5 53 102.5c21.333 30 46 51.833 74 65.5s65.333 20.5 112 20.5c7.33301 0 14.833 -0.5 22.5 -1.5
s16.834 -2.5 27.501 -4.5l-21 -123c-4 0.666992 -8.33301 1.16699 -13 1.5s-9.33398 0.5 -14.001 0.5c-28 0 -49.167 -7.16699 -63.5 -21.5s-28.5 -37.833 -42.5 -70.5l-20 -47c-26.667 -60 -42.667 -95.333 -48 -106s-10.666 -20.334 -15.999 -29.001
c-18.667 -30.667 -40.167 -53.667 -64.5 -69s-51.833 -23.666 -82.5 -24.999v-5c17.333 -4.66699 34.333 -12.167 51 -22.5s30.334 -21.833 41.001 -34.5s20.834 -31.167 30.501 -55.5s17.167 -49.5 22.5 -75.5l22 -117c11.333 -55.333 19.5 -87.833 24.5 -97.5
s10.5 -16.834 16.5 -21.501c4.66699 -2.66699 9.66699 -4.66699 15 -6s10.666 -2 15.999 -2c14 0 23.833 0.333008 29.5 1s10.834 1.66699 15.501 3l-20 -122c-10 -1.33301 -20.667 -2.66602 -32 -3.99902s-24 -2 -38 -2c-26.667 0 -48.167 2.5 -64.5 7.5
s-30.166 12.5 -41.499 22.5c-17.333 14.667 -32.166 39.667 -44.499 75s-22.833 85.333 -31.5 150l-6 45c-5.33301 36 -12.833 67.333 -22.5 94s-21.5 46.667 -35.5 60c-11.333 10.667 -25.166 18.834 -41.499 24.501s-44.166 8.5 -83.499 8.5h-100l-78 -481h-147l78 481
h-93c-35.333 0 -62.666 -2.66699 -81.999 -8s-37.666 -13.666 -54.999 -24.999c-19.333 -13.333 -37.333 -31.333 -54 -54s-32 -49 -46 -79l-90 -199c-6.66699 -13.333 -17.334 -29.333 -32.001 -48s-28.667 -32.667 -42 -42c-16.667 -12 -35.5 -20.333 -56.5 -25
s-45.833 -7 -74.5 -7c-12 0 -23.833 0.5 -35.5 1.5s-23.5 2.5 -35.5 4.5l21 124c5.33301 -1.33301 11 -2.33301 17 -3s13 -1 21 -1c24 0 42.333 6.5 55 19.5s40 65.167 82 156.5l31 68c4 8.66699 10.333 21 19 37s16 28.333 22 37c21.333 34 45.833 60.333 73.5 79
s57.5 29.667 89.5 33l2 5c-16 5.33301 -30.833 15.5 -44.5 30.5s-25.834 34.833 -36.501 59.5c-6.66699 14.667 -12.5 31.5 -17.5 50.5s-9.5 44.5 -13.5 76.5l-6 45c-3.33301 22 -8.33301 41.667 -15 59s-14.667 29.666 -24 36.999c-5.33301 4 -12.166 7 -20.499 9
s-17.833 3 -28.5 3c-4 0 -8 -0.333008 -12 -1s-8.33301 -1.66699 -13 -3l21 123c8.66699 2 17.334 3.5 26.001 4.5s17.667 1.5 27 1.5c37.333 0 67.333 -6.66699 90 -20s41 -36 55 -68c9.33301 -20.667 16.833 -55.167 22.5 -103.5s11.834 -86.166 18.501 -113.499
c11.333 -45.333 30.166 -79.5 56.499 -102.5s66.166 -34.5 119.499 -34.5h80z" />
    <glyph glyph-name="afii10073" unicode="&#xe7;" horiz-adv-x="1019" 
d="M231 753l-136.999 31.0049c22.667 88 75.834 156.667 159.501 206s188.167 74 313.5 74c39.333 0 77.333 -2.83301 114 -8.5s68.334 -14.167 95.001 -25.5c50 -22.667 87.667 -55.167 113 -97.5s38 -87.833 38 -136.5c0 -32 -5.5 -63.167 -16.5 -93.5
s-25.833 -56.5 -44.5 -78.5c-18.667 -21.333 -40.5 -39.333 -65.5 -54s-53.167 -24 -84.5 -28v-6c18.667 -2.66699 37 -7.83398 55 -15.501s34 -17.5 48 -29.5c21.333 -18.667 38.166 -42.667 50.499 -72s18.5 -62.666 18.5 -99.999c0 -54.667 -12.667 -104.5 -38 -149.5
s-62.333 -83.167 -111 -114.5c-38 -24.667 -81.667 -43.334 -131 -56.001s-108 -19 -176 -19c-72 0 -134.5 7.83301 -187.5 23.5s-98.5 40.834 -136.5 75.501c-28.667 26.667 -52.334 57.667 -71.001 93s-31 73.333 -37 114l137 35
c3.33301 -24.667 9.83301 -48.167 19.5 -70.5s20.834 -41.166 33.501 -56.499c22.667 -26.667 54 -48 94 -64s87 -24 141 -24c40.667 0 78.167 4.66699 112.5 14s64.5 23.666 90.5 42.999s45.833 42.166 59.5 68.499s20.5 56.166 20.5 89.499
c0 27.333 -5.33301 51.666 -16 72.999s-25 38.666 -43 51.999c-16 12 -35 20.833 -57 26.5s-60.333 8.5 -115 8.5h-133l22 127h154c29.333 0 57.666 2.5 84.999 7.5s49.333 11.833 66 20.5c25.333 13.333 45.666 32.166 60.999 56.499s23 53.5 23 87.5
c0 48 -17.833 86.167 -53.5 114.5s-89.5 42.5 -161.5 42.5c-44 0 -83.667 -4.66699 -119 -14s-68 -25 -98 -47c-22 -16 -40.667 -34 -56 -54s-27.333 -43 -36 -69z" />
    <glyph glyph-name="afii10073" unicode="&#x437;" horiz-adv-x="1019" 
d="M231 753l-136.999 31.0049c22.667 88 75.834 156.667 159.501 206s188.167 74 313.5 74c39.333 0 77.333 -2.83301 114 -8.5s68.334 -14.167 95.001 -25.5c50 -22.667 87.667 -55.167 113 -97.5s38 -87.833 38 -136.5c0 -32 -5.5 -63.167 -16.5 -93.5
s-25.833 -56.5 -44.5 -78.5c-18.667 -21.333 -40.5 -39.333 -65.5 -54s-53.167 -24 -84.5 -28v-6c18.667 -2.66699 37 -7.83398 55 -15.501s34 -17.5 48 -29.5c21.333 -18.667 38.166 -42.667 50.499 -72s18.5 -62.666 18.5 -99.999c0 -54.667 -12.667 -104.5 -38 -149.5
s-62.333 -83.167 -111 -114.5c-38 -24.667 -81.667 -43.334 -131 -56.001s-108 -19 -176 -19c-72 0 -134.5 7.83301 -187.5 23.5s-98.5 40.834 -136.5 75.501c-28.667 26.667 -52.334 57.667 -71.001 93s-31 73.333 -37 114l137 35
c3.33301 -24.667 9.83301 -48.167 19.5 -70.5s20.834 -41.166 33.501 -56.499c22.667 -26.667 54 -48 94 -64s87 -24 141 -24c40.667 0 78.167 4.66699 112.5 14s64.5 23.666 90.5 42.999s45.833 42.166 59.5 68.499s20.5 56.166 20.5 89.499
c0 27.333 -5.33301 51.666 -16 72.999s-25 38.666 -43 51.999c-16 12 -35 20.833 -57 26.5s-60.333 8.5 -115 8.5h-133l22 127h154c29.333 0 57.666 2.5 84.999 7.5s49.333 11.833 66 20.5c25.333 13.333 45.666 32.166 60.999 56.499s23 53.5 23 87.5
c0 48 -17.833 86.167 -53.5 114.5s-89.5 42.5 -161.5 42.5c-44 0 -83.667 -4.66699 -119 -14s-68 -25 -98 -47c-22 -16 -40.667 -34 -56 -54s-27.333 -43 -36 -69z" />
    <glyph glyph-name="afii10074" unicode="&#xe8;" horiz-adv-x="1110" 
d="M245 1044l155.998 0.00195312l-107 -649c-3.33301 -22 -6.33301 -38.167 -9 -48.5s-7 -30.5 -13 -60.5l10 13c2.66699 3.33301 6.33398 8.66602 11.001 15.999l8 11c2 2.66699 12 14 30 34l537 594l16 90h156l-170 -1044h-156l107 649c5.33301 32 9.33301 55.167 12 69.5
s5.33398 27.166 8.00098 38.499l-22.5 -33c-5.66699 -8 -17.167 -21.333 -34.5 -40l-537 -584l-16 -100h-156z" />
    <glyph glyph-name="afii10074" unicode="&#x438;" horiz-adv-x="1110" 
d="M245 1044l155.998 0.00195312l-107 -649c-3.33301 -22 -6.33301 -38.167 -9 -48.5s-7 -30.5 -13 -60.5l10 13c2.66699 3.33301 6.33398 8.66602 11.001 15.999l8 11c2 2.66699 12 14 30 34l537 594l16 90h156l-170 -1044h-156l107 649c5.33301 32 9.33301 55.167 12 69.5
s5.33398 27.166 8.00098 38.499l-22.5 -33c-5.66699 -8 -17.167 -21.333 -34.5 -40l-537 -584l-16 -100h-156z" />
    <glyph glyph-name="afii10075" unicode="&#xe9;" horiz-adv-x="1110" 
d="M247 1044l155.998 0.000976562l-109 -649c-2.66699 -17.333 -4.66699 -29.5 -6 -36.5s-3.33301 -15.833 -6 -26.5c-2.66699 -12 -4.66699 -20.5 -6 -25.5s-2.66602 -11.833 -3.99902 -20.5l10 13c2.66699 3.33301 6.33398 8.66602 11.001 15.999l9 12
c2 2.66699 11.667 13.667 29 33l539 594l16 90h156l-172 -1044h-156l109 649c6 37.333 10.167 62 12.5 74s4.83301 23.333 7.5 34l-22.5 -33c-5.66699 -8 -17.167 -21.333 -34.5 -40l-539 -584l-16 -100h-156zM398.998 1404l134.999 0.00195312
c-0.666992 -16 1.5 -31.333 6.5 -46s12.5 -27.334 22.5 -38.001c11.333 -12.667 25.5 -21.834 42.5 -27.501s36.167 -8.5 57.5 -8.5s40.166 2.83301 56.499 8.5s31.5 14.834 45.5 27.501c12 11.333 22.5 24.333 31.5 39s15.833 29.667 20.5 45h139
c-9.33301 -34.667 -24.166 -67 -44.499 -97s-45.166 -55 -74.499 -75c-24.667 -16.667 -52.5 -29.334 -83.5 -38.001s-63.833 -13 -98.5 -13c-36 0 -70.667 4.83301 -104 14.5s-61 24.167 -83 43.5c-21.333 18.667 -38.333 42.5 -51 71.5s-18.667 60.167 -18 93.5z" />
    <glyph glyph-name="afii10075" unicode="&#x439;" horiz-adv-x="1110" 
d="M247 1044l155.998 0.000976562l-109 -649c-2.66699 -17.333 -4.66699 -29.5 -6 -36.5s-3.33301 -15.833 -6 -26.5c-2.66699 -12 -4.66699 -20.5 -6 -25.5s-2.66602 -11.833 -3.99902 -20.5l10 13c2.66699 3.33301 6.33398 8.66602 11.001 15.999l9 12
c2 2.66699 11.667 13.667 29 33l539 594l16 90h156l-172 -1044h-156l109 649c6 37.333 10.167 62 12.5 74s4.83301 23.333 7.5 34l-22.5 -33c-5.66699 -8 -17.167 -21.333 -34.5 -40l-539 -584l-16 -100h-156zM398.998 1404l134.999 0.00195312
c-0.666992 -16 1.5 -31.333 6.5 -46s12.5 -27.334 22.5 -38.001c11.333 -12.667 25.5 -21.834 42.5 -27.501s36.167 -8.5 57.5 -8.5s40.166 2.83301 56.499 8.5s31.5 14.834 45.5 27.501c12 11.333 22.5 24.333 31.5 39s15.833 29.667 20.5 45h139
c-9.33301 -34.667 -24.166 -67 -44.499 -97s-45.166 -55 -74.499 -75c-24.667 -16.667 -52.5 -29.334 -83.5 -38.001s-63.833 -13 -98.5 -13c-36 0 -70.667 4.83301 -104 14.5s-61 24.167 -83 43.5c-21.333 18.667 -38.333 42.5 -51 71.5s-18.667 60.167 -18 93.5z" />
    <glyph glyph-name="glyph177" unicode="&#xea;" horiz-adv-x="1024" 
d="M331 606l140.001 -0.00292969c46.667 0 85.5 7.83301 116.5 23.5s60.833 49.5 89.5 101.5l17.5 31.5c6.33301 11.667 29.833 58.5 70.5 140.5c17.333 34 32.666 59.333 45.999 76s29 30.667 47 42c16 10.667 33.167 18.5 51.5 23.5s41.166 7.5 68.499 7.5
c9.33301 0 18.5 -0.333008 27.5 -1s18.5 -1.66699 28.5 -3l-17 -125c-3.33301 0.666992 -7 1.16699 -11 1.5s-8.33301 0.5 -13 0.5c-10 0 -19.5 -1.16699 -28.5 -3.5s-17.167 -5.83301 -24.5 -10.5c-9.33301 -5.33301 -17.5 -12 -24.5 -20s-15.5 -20.333 -25.5 -37
c-5.33301 -10.667 -10.5 -20.5 -15.5 -29.5s-21.5 -43.833 -49.5 -104.5c-15.333 -32 -30 -58.833 -44 -80.5s-28 -38.5 -42 -50.5c-9.33301 -7.33301 -21.333 -14.666 -36 -21.999s-29.334 -13.666 -44.001 -18.999c47.333 -15.333 82.833 -37.5 106.5 -66.5
s40.167 -70.833 49.5 -125.5l14 -88c4.66699 -30 9.83398 -55.5 15.501 -76.5s11.5 -35.833 17.5 -44.5c6 -10 13.833 -17.333 23.5 -22s21.5 -7 35.5 -7c6 0 11 0.166992 15 0.5s8 0.833008 12 1.5l-21 -122c-11.333 -2 -22.666 -3.5 -33.999 -4.5s-23 -1.5 -35 -1.5
c-30 0 -53.833 2.83301 -71.5 8.5s-32.167 14.167 -43.5 25.5c-12 12 -22 29.833 -30 53.5s-16.333 60.5 -25 110.5c-17.333 98.667 -29.666 158.334 -36.999 179.001s-16.333 38 -27 52c-14.667 20 -33.834 34.667 -57.501 44s-60.5 14 -110.5 14h-145l-80 -479h-156
l172 1044h156z" />
    <glyph glyph-name="glyph177" unicode="&#x43a;" horiz-adv-x="1024" 
d="M331 606l140.001 -0.00292969c46.667 0 85.5 7.83301 116.5 23.5s60.833 49.5 89.5 101.5l17.5 31.5c6.33301 11.667 29.833 58.5 70.5 140.5c17.333 34 32.666 59.333 45.999 76s29 30.667 47 42c16 10.667 33.167 18.5 51.5 23.5s41.166 7.5 68.499 7.5
c9.33301 0 18.5 -0.333008 27.5 -1s18.5 -1.66699 28.5 -3l-17 -125c-3.33301 0.666992 -7 1.16699 -11 1.5s-8.33301 0.5 -13 0.5c-10 0 -19.5 -1.16699 -28.5 -3.5s-17.167 -5.83301 -24.5 -10.5c-9.33301 -5.33301 -17.5 -12 -24.5 -20s-15.5 -20.333 -25.5 -37
c-5.33301 -10.667 -10.5 -20.5 -15.5 -29.5s-21.5 -43.833 -49.5 -104.5c-15.333 -32 -30 -58.833 -44 -80.5s-28 -38.5 -42 -50.5c-9.33301 -7.33301 -21.333 -14.666 -36 -21.999s-29.334 -13.666 -44.001 -18.999c47.333 -15.333 82.833 -37.5 106.5 -66.5
s40.167 -70.833 49.5 -125.5l14 -88c4.66699 -30 9.83398 -55.5 15.501 -76.5s11.5 -35.833 17.5 -44.5c6 -10 13.833 -17.333 23.5 -22s21.5 -7 35.5 -7c6 0 11 0.166992 15 0.5s8 0.833008 12 1.5l-21 -122c-11.333 -2 -22.666 -3.5 -33.999 -4.5s-23 -1.5 -35 -1.5
c-30 0 -53.833 2.83301 -71.5 8.5s-32.167 14.167 -43.5 25.5c-12 12 -22 29.833 -30 53.5s-16.333 60.5 -25 110.5c-17.333 98.667 -29.666 158.334 -36.999 179.001s-16.333 38 -27 52c-14.667 20 -33.834 34.667 -57.501 44s-60.5 14 -110.5 14h-145l-80 -479h-156
l172 1044h156z" />
    <glyph glyph-name="afii10077" unicode="&#xeb;" horiz-adv-x="1062" 
d="M987 1044l-170.001 -1044h-156l150 917h-328l-39 -193c-62 -306 -125.667 -502.5 -191 -589.5s-157.666 -131.833 -276.999 -134.5h-13.5h-13.5l23 141c56.667 4.66699 105 22.167 145 52.5s71.667 76.166 95 137.499c16 41.333 32.5 99 49.5 173s45.167 217 84.5 429
l20 111h621z" />
    <glyph glyph-name="afii10077" unicode="&#x43b;" horiz-adv-x="1062" 
d="M987 1044l-170.001 -1044h-156l150 917h-328l-39 -193c-62 -306 -125.667 -502.5 -191 -589.5s-157.666 -131.833 -276.999 -134.5h-13.5h-13.5l23 141c56.667 4.66699 105 22.167 145 52.5s71.667 76.166 95 137.499c16 41.333 32.5 99 49.5 173s45.167 217 84.5 429
l20 111h621z" />
    <glyph glyph-name="afii10078" unicode="&#xec;" horiz-adv-x="1392" 
d="M247 1044h217l191 -799h4l440 799h217l-172 -1044h-155l149 878v4l-491 -882h-80l-211 878h-4l-142 -878h-135z" />
    <glyph glyph-name="afii10078" unicode="&#x43c;" horiz-adv-x="1392" 
d="M247 1044h217l191 -799h4l440 799h217l-172 -1044h-155l149 878v4l-491 -882h-80l-211 878h-4l-142 -878h-135z" />
    <glyph glyph-name="afii10079" unicode="&#xed;" horiz-adv-x="1116" 
d="M245 1044h156l-72 -438h486l69 438h156l-170 -1044h-156l78 479h-483l-78 -479h-156z" />
    <glyph glyph-name="afii10079" unicode="&#x43d;" horiz-adv-x="1116" 
d="M245 1044h156l-72 -438h486l69 438h156l-170 -1044h-156l78 479h-483l-78 -479h-156z" />
    <glyph glyph-name="afii10080" unicode="&#xee;" horiz-adv-x="1103" 
d="M616 1064c60 0 114.002 -9.16309 162.002 -27.4961s90.333 -46.5 127 -84.5c40.667 -42.667 70.667 -92.834 90 -150.501s29 -120.834 29 -189.501c0 -102 -17.5 -195.833 -52.5 -281.5s-82.5 -157.834 -142.5 -216.501c-48.667 -47.333 -99.334 -81.5 -152.001 -102.5
s-112 -31.5 -178 -31.5c-80 0 -146 12 -198 36s-95 59.333 -129 106c-30 40.667 -53 87.5 -69 140.5s-24 110.167 -24 171.5c0 101.333 17.667 195 53 281s82.666 157.333 141.999 214c47.333 45.333 98.833 79.166 154.5 101.499s118.167 33.5 187.5 33.5zM606.002 929.004
c-50 0 -94.1689 -10.666 -132.502 -31.999s-72.166 -51.666 -101.499 -90.999c-34 -45.333 -61.167 -104 -81.5 -176s-30.5 -142.333 -30.5 -211c0 -91.333 20.333 -165 61 -221s100 -84 178 -84c52 0 99.833 13.167 143.5 39.5s81.834 67.166 114.501 122.499
c26 43.333 46.833 98.166 62.5 164.499s23.5 130.833 23.5 193.5c0 86.667 -20.5 157.5 -61.5 212.5s-99.5 82.5 -175.5 82.5z" />
    <glyph glyph-name="afii10080" unicode="&#x43e;" horiz-adv-x="1103" 
d="M616 1064c60 0 114.002 -9.16309 162.002 -27.4961s90.333 -46.5 127 -84.5c40.667 -42.667 70.667 -92.834 90 -150.501s29 -120.834 29 -189.501c0 -102 -17.5 -195.833 -52.5 -281.5s-82.5 -157.834 -142.5 -216.501c-48.667 -47.333 -99.334 -81.5 -152.001 -102.5
s-112 -31.5 -178 -31.5c-80 0 -146 12 -198 36s-95 59.333 -129 106c-30 40.667 -53 87.5 -69 140.5s-24 110.167 -24 171.5c0 101.333 17.667 195 53 281s82.666 157.333 141.999 214c47.333 45.333 98.833 79.166 154.5 101.499s118.167 33.5 187.5 33.5zM606.002 929.004
c-50 0 -94.1689 -10.666 -132.502 -31.999s-72.166 -51.666 -101.499 -90.999c-34 -45.333 -61.167 -104 -81.5 -176s-30.5 -142.333 -30.5 -211c0 -91.333 20.333 -165 61 -221s100 -84 178 -84c52 0 99.833 13.167 143.5 39.5s81.834 67.166 114.501 122.499
c26 43.333 46.833 98.166 62.5 164.499s23.5 130.833 23.5 193.5c0 86.667 -20.5 157.5 -61.5 212.5s-99.5 82.5 -175.5 82.5z" />
    <glyph glyph-name="afii10081" unicode="&#xef;" horiz-adv-x="1116" 
d="M245 1044h795l-170 -1044h-156l148 917h-484l-147 -917h-156z" />
    <glyph glyph-name="afii10081" unicode="&#x43f;" horiz-adv-x="1116" 
d="M245 1044h795l-170 -1044h-156l148 917h-484l-147 -917h-156z" />
    <glyph glyph-name="afii10082" unicode="&#xf0;" horiz-adv-x="1142" 
d="M172 -339h-156.001l229 1383h142l-35 -203h4c42.667 72 96.5 127.167 161.5 165.5s133.167 57.5 204.5 57.5c51.333 0 96 -7.66699 134 -23s72 -37.666 102 -66.999c38 -36.667 65.667 -77.667 83 -123s26 -97 26 -155c0 -90 -14.167 -183.333 -42.5 -280
s-68.166 -180.334 -119.499 -251.001c-48 -66 -99.333 -113.333 -154 -142s-118 -43 -190 -43c-78 0 -142.833 16.167 -194.5 48.5s-89.5 75.833 -113.5 130.5zM664.999 929c-48 0 -95.166 -14.166 -141.499 -42.499s-87.166 -70.166 -122.499 -125.499
c-30.667 -48 -55.334 -105 -74.001 -171s-28 -132.333 -28 -199c0 -85.333 21.333 -152.833 64 -202.5s99.667 -74.5 171 -74.5c44 0 89.5 15.333 136.5 46s86.833 76 119.5 136c25.333 47.333 47.666 108.666 66.999 183.999s29 141 29 197
c0 35.333 -4.33301 68.666 -13 99.999s-22.667 59 -42 83s-42.333 41.5 -69 52.5s-59 16.5 -97 16.5z" />
    <glyph glyph-name="afii10082" unicode="&#x440;" horiz-adv-x="1142" 
d="M172 -339h-156.001l229 1383h142l-35 -203h4c42.667 72 96.5 127.167 161.5 165.5s133.167 57.5 204.5 57.5c51.333 0 96 -7.66699 134 -23s72 -37.666 102 -66.999c38 -36.667 65.667 -77.667 83 -123s26 -97 26 -155c0 -90 -14.167 -183.333 -42.5 -280
s-68.166 -180.334 -119.499 -251.001c-48 -66 -99.333 -113.333 -154 -142s-118 -43 -190 -43c-78 0 -142.833 16.167 -194.5 48.5s-89.5 75.833 -113.5 130.5zM664.999 929c-48 0 -95.166 -14.166 -141.499 -42.499s-87.166 -70.166 -122.499 -125.499
c-30.667 -48 -55.334 -105 -74.001 -171s-28 -132.333 -28 -199c0 -85.333 21.333 -152.833 64 -202.5s99.667 -74.5 171 -74.5c44 0 89.5 15.333 136.5 46s86.833 76 119.5 136c25.333 47.333 47.666 108.666 66.999 183.999s29 141 29 197
c0 35.333 -4.33301 68.666 -13 99.999s-22.667 59 -42 83s-42.333 41.5 -69 52.5s-59 16.5 -97 16.5z" />
    <glyph glyph-name="afii10083" unicode="&#xf1;" horiz-adv-x="999" 
d="M966 698l-155.004 -35.001c2 30 -0.333008 60.5 -7 91.5s-17.334 58.5 -32.001 82.5c-20 31.333 -44 54.5 -72 69.5s-60 22.5 -96 22.5c-47.333 0 -92.166 -11.167 -134.499 -33.5s-78.833 -56.166 -109.5 -101.499c-30 -44 -54.833 -103 -74.5 -177
s-29.5 -144.667 -29.5 -212c0 -36 3.5 -70 10.5 -102s17.833 -60 32.5 -84c20 -35.333 46.833 -61.666 80.5 -78.999s70.834 -26 111.501 -26c40 0 76.667 9.33301 110 28s63 45 89 79c14 18 27.833 39.5 41.5 64.5s24.834 49.167 33.501 72.5l127 -59
c-16.667 -44 -38.167 -85.667 -64.5 -125s-54.5 -72.333 -84.5 -99c-39.333 -34.667 -81.666 -59.167 -126.999 -73.5s-98.666 -21.5 -159.999 -21.5c-62.667 0 -115.334 9.33301 -158.001 28s-80.667 46.667 -114 84c-36 40 -63.167 87.5 -81.5 142.5
s-27.5 119.5 -27.5 193.5c0 88.667 11.5 170.167 34.5 244.5s55.833 140.166 98.5 197.499c51.333 67.333 109.333 116.5 174 147.5s134.334 46.5 209.001 46.5c60 0 113.333 -9.33301 160 -28s87 -46.667 121 -84c31.333 -34.667 54.833 -74.167 70.5 -118.5
s23.5 -89.5 23.5 -135.5z" />
    <glyph glyph-name="afii10083" unicode="&#x441;" horiz-adv-x="999" 
d="M966 698l-155.004 -35.001c2 30 -0.333008 60.5 -7 91.5s-17.334 58.5 -32.001 82.5c-20 31.333 -44 54.5 -72 69.5s-60 22.5 -96 22.5c-47.333 0 -92.166 -11.167 -134.499 -33.5s-78.833 -56.166 -109.5 -101.499c-30 -44 -54.833 -103 -74.5 -177
s-29.5 -144.667 -29.5 -212c0 -36 3.5 -70 10.5 -102s17.833 -60 32.5 -84c20 -35.333 46.833 -61.666 80.5 -78.999s70.834 -26 111.501 -26c40 0 76.667 9.33301 110 28s63 45 89 79c14 18 27.833 39.5 41.5 64.5s24.834 49.167 33.501 72.5l127 -59
c-16.667 -44 -38.167 -85.667 -64.5 -125s-54.5 -72.333 -84.5 -99c-39.333 -34.667 -81.666 -59.167 -126.999 -73.5s-98.666 -21.5 -159.999 -21.5c-62.667 0 -115.334 9.33301 -158.001 28s-80.667 46.667 -114 84c-36 40 -63.167 87.5 -81.5 142.5
s-27.5 119.5 -27.5 193.5c0 88.667 11.5 170.167 34.5 244.5s55.833 140.166 98.5 197.499c51.333 67.333 109.333 116.5 174 147.5s134.334 46.5 209.001 46.5c60 0 113.333 -9.33301 160 -28s87 -46.667 121 -84c31.333 -34.667 54.833 -74.167 70.5 -118.5
s23.5 -89.5 23.5 -135.5z" />
    <glyph glyph-name="afii10084" unicode="&#xf2;" horiz-adv-x="806" 
d="M79 1044h820l-23 -127h-328l-149 -917h-156l150 917h-336z" />
    <glyph glyph-name="afii10084" unicode="&#x442;" horiz-adv-x="806" 
d="M79 1044h820l-23 -127h-328l-149 -917h-156l150 917h-336z" />
    <glyph glyph-name="glyph190" unicode="&#xf3;" horiz-adv-x="882" 
d="M819 1044l139 -0.00195312l-588 -1142c-23.333 -46 -46 -84.167 -68 -114.5s-44.333 -54.833 -67 -73.5c-29.333 -25.333 -60.666 -44 -93.999 -56s-70.333 -18 -111 -18c-21.333 0 -43.333 1.83301 -66 5.5s-44.667 8.83398 -66 15.501l21 129
c16 -5.33301 32 -9.16602 48 -11.499s32.333 -3.5 49 -3.5c29.333 0 54 2.83301 74 8.5s39 15.167 57 28.5c21.333 15.333 44.166 39.5 68.499 72.5s44.5 66.167 60.5 99.5l16 34l-198 1026h172l147 -803z" />
    <glyph glyph-name="glyph190" unicode="&#x443;" horiz-adv-x="882" 
d="M819 1044l139 -0.00195312l-588 -1142c-23.333 -46 -46 -84.167 -68 -114.5s-44.333 -54.833 -67 -73.5c-29.333 -25.333 -60.666 -44 -93.999 -56s-70.333 -18 -111 -18c-21.333 0 -43.333 1.83301 -66 5.5s-44.667 8.83398 -66 15.501l21 129
c16 -5.33301 32 -9.16602 48 -11.499s32.333 -3.5 49 -3.5c29.333 0 54 2.83301 74 8.5s39 15.167 57 28.5c21.333 15.333 44.166 39.5 68.499 72.5s44.5 66.167 60.5 99.5l16 34l-198 1026h172l147 -803z" />
    <glyph glyph-name="afii10086" unicode="&#xf4;" horiz-adv-x="1382" 
d="M620 -339l-156.001 0.00195312l58 339c-53.333 -2 -107.5 3.83301 -162.5 17.5s-101.167 34.167 -138.5 61.5c-47.333 34.667 -84.833 83 -112.5 145s-41.5 136.667 -41.5 224c0 93.333 16.833 179.166 50.5 257.499s77.5 142.833 131.5 193.5
c52.667 48 114.834 83.667 186.501 107s157.167 36 256.5 38l59 360h156l-60 -360c53.333 -1.33301 100 -5.83301 140 -13.5s74 -18.167 102 -31.5c73.333 -34.667 127.5 -85.834 162.5 -153.501s52.5 -149.5 52.5 -245.5c0 -94.667 -16.167 -180.667 -48.5 -258
s-76.833 -142.333 -133.5 -195c-54.667 -50.667 -121.5 -89 -200.5 -115s-160.5 -36.667 -244.5 -32zM816.999 913.002l-129.001 -781.998c68.667 -2.66699 130.834 7 186.501 29s101.834 54 138.501 96c37.333 41.333 66.5 93.166 87.5 155.499s31.5 126.5 31.5 192.5
c0 59.333 -8.83301 111.666 -26.5 156.999s-44.167 80.333 -79.5 105c-24.667 16.667 -56.334 29.167 -95.001 37.5s-76.667 11.5 -114 9.5zM551.998 131.004l128.999 782c-76.667 -2 -139.667 -13 -189 -33s-92.666 -50 -129.999 -90c-38 -40.667 -68 -91.167 -90 -151.5
s-33 -126.5 -33 -198.5c0 -65.333 9.33301 -119.333 28 -162s45 -76 79 -100c26 -18.667 58 -32 96 -40s74.667 -10.333 110 -7z" />
    <glyph glyph-name="afii10086" unicode="&#x444;" horiz-adv-x="1382" 
d="M620 -339l-156.001 0.00195312l58 339c-53.333 -2 -107.5 3.83301 -162.5 17.5s-101.167 34.167 -138.5 61.5c-47.333 34.667 -84.833 83 -112.5 145s-41.5 136.667 -41.5 224c0 93.333 16.833 179.166 50.5 257.499s77.5 142.833 131.5 193.5
c52.667 48 114.834 83.667 186.501 107s157.167 36 256.5 38l59 360h156l-60 -360c53.333 -1.33301 100 -5.83301 140 -13.5s74 -18.167 102 -31.5c73.333 -34.667 127.5 -85.834 162.5 -153.501s52.5 -149.5 52.5 -245.5c0 -94.667 -16.167 -180.667 -48.5 -258
s-76.833 -142.333 -133.5 -195c-54.667 -50.667 -121.5 -89 -200.5 -115s-160.5 -36.667 -244.5 -32zM816.999 913.002l-129.001 -781.998c68.667 -2.66699 130.834 7 186.501 29s101.834 54 138.501 96c37.333 41.333 66.5 93.166 87.5 155.499s31.5 126.5 31.5 192.5
c0 59.333 -8.83301 111.666 -26.5 156.999s-44.167 80.333 -79.5 105c-24.667 16.667 -56.334 29.167 -95.001 37.5s-76.667 11.5 -114 9.5zM551.998 131.004l128.999 782c-76.667 -2 -139.667 -13 -189 -33s-92.666 -50 -129.999 -90c-38 -40.667 -68 -91.167 -90 -151.5
s-33 -126.5 -33 -198.5c0 -65.333 9.33301 -119.333 28 -162s45 -76 79 -100c26 -18.667 58 -32 96 -40s74.667 -10.333 110 -7z" />
    <glyph glyph-name="afii10087" unicode="&#xf5;" horiz-adv-x="917" 
d="M319 1044l166 -360l283 360h155l-377 -471l269 -573h-189l-194 421l-342 -421h-155l435 538l-239 506h188z" />
    <glyph glyph-name="afii10087" unicode="&#x445;" horiz-adv-x="917" 
d="M319 1044l166 -360l283 360h155l-377 -471l269 -573h-189l-194 421l-342 -421h-155l435 538l-239 506h188z" />
    <glyph glyph-name="afii10088" unicode="&#xf6;" horiz-adv-x="1169" 
d="M247 1044h156l-152 -918h508l152 918h156l-152 -918h123l-68 -408h-143l47 282h-799z" />
    <glyph glyph-name="afii10088" unicode="&#x446;" horiz-adv-x="1169" 
d="M247 1044h156l-152 -918h508l152 918h156l-152 -918h123l-68 -408h-143l47 282h-799z" />
    <glyph glyph-name="afii10089" unicode="&#xf7;" horiz-adv-x="960" 
d="M892 1044l-171.998 -1044h-155l73 448c-34.667 -4.66699 -70.334 -8.16699 -107.001 -10.5s-74 -3.5 -112 -3.5c-110.667 0 -190.5 18.333 -239.5 55s-73.5 98.667 -73.5 186c0 12.667 0.666992 26.334 2 41.001s4 35.334 8 62.001l41 266h156l-47 -287
c-2 -12 -3.5 -23.667 -4.5 -35s-1.5 -22.666 -1.5 -33.999c0 -50 13.5 -83.667 40.5 -101s68.5 -26 124.5 -26c32 0 70.167 1.33301 114.5 4s84.166 6 119.499 10l78 469h155z" />
    <glyph glyph-name="afii10089" unicode="&#x447;" horiz-adv-x="960" 
d="M892 1044l-171.998 -1044h-155l73 448c-34.667 -4.66699 -70.334 -8.16699 -107.001 -10.5s-74 -3.5 -112 -3.5c-110.667 0 -190.5 18.333 -239.5 55s-73.5 98.667 -73.5 186c0 12.667 0.666992 26.334 2 41.001s4 35.334 8 62.001l41 266h156l-47 -287
c-2 -12 -3.5 -23.667 -4.5 -35s-1.5 -22.666 -1.5 -33.999c0 -50 13.5 -83.667 40.5 -101s68.5 -26 124.5 -26c32 0 70.167 1.33301 114.5 4s84.166 6 119.499 10l78 469h155z" />
    <glyph glyph-name="afii10090" unicode="&#xf8;" horiz-adv-x="1503" 
d="M245 1044h156l-150 -918h361l149 918h156l-149 -918h360l149 918h156l-170 -1044h-1188z" />
    <glyph glyph-name="afii10090" unicode="&#x448;" horiz-adv-x="1503" 
d="M245 1044h156l-150 -918h361l149 918h156l-149 -918h360l149 918h156l-170 -1044h-1188z" />
    <glyph glyph-name="afii10091" unicode="&#xf9;" horiz-adv-x="1497" 
d="M206 1044h156l-150 -918h361l149 918h156l-149 -918h360l150 918h155l-149 -918h123l-68 -406h-143l47 280h-1168z" />
    <glyph glyph-name="afii10091" unicode="&#x449;" horiz-adv-x="1497" 
d="M206 1044h156l-150 -918h361l149 918h156l-149 -918h360l150 918h155l-149 -918h123l-68 -406h-143l47 280h-1168z" />
    <glyph glyph-name="afii10092" unicode="&#xfa;" horiz-adv-x="1079" 
d="M503 1044l-65 -411.999h231c60 0 110 -4.5 150 -13.5s73.333 -23.5 100 -43.5c30 -22.667 52.5 -52.334 67.5 -89.001s22.5 -80 22.5 -130c0 -59.333 -12 -114.333 -36 -165s-57.667 -92.667 -101 -126c-30 -23.333 -63.5 -40 -100.5 -50s-90.833 -15 -161.5 -15h-432
l149 913h-305l21 131h460zM415 505.001l-61 -378.998h244c48 0 85 4.5 111 13.5s49 23.833 69 44.5c18.667 18.667 33.167 41.667 43.5 69s15.5 57.666 15.5 90.999c0 34 -5.5 63.167 -16.5 87.5s-26.5 42.166 -46.5 53.499c-12 6.66699 -29 11.667 -51 15s-47.333 5 -76 5
h-232z" />
    <glyph glyph-name="afii10092" unicode="&#x44a;" horiz-adv-x="1079" 
d="M503 1044l-65 -411.999h231c60 0 110 -4.5 150 -13.5s73.333 -23.5 100 -43.5c30 -22.667 52.5 -52.334 67.5 -89.001s22.5 -80 22.5 -130c0 -59.333 -12 -114.333 -36 -165s-57.667 -92.667 -101 -126c-30 -23.333 -63.5 -40 -100.5 -50s-90.833 -15 -161.5 -15h-432
l149 913h-305l21 131h460zM415 505.001l-61 -378.998h244c48 0 85 4.5 111 13.5s49 23.833 69 44.5c18.667 18.667 33.167 41.667 43.5 69s15.5 57.666 15.5 90.999c0 34 -5.5 63.167 -16.5 87.5s-26.5 42.166 -46.5 53.499c-12 6.66699 -29 11.667 -51 15s-47.333 5 -76 5
h-232z" />
    <glyph glyph-name="afii10093" unicode="&#xfb;" horiz-adv-x="1396" 
d="M247 1044l156 -0.00195312l-68 -412h236c64 0 115 -4.66699 153 -14s70.333 -23.666 97 -42.999c32 -24 55 -53.667 69 -89s21 -78.666 21 -129.999c0 -58.667 -11.167 -113.167 -33.5 -163.5s-56.833 -92.833 -103.5 -127.5c-31.333 -23.333 -65 -40 -101 -50
s-89.667 -15 -161 -15h-437zM315 504.998l-64.001 -379h248c50.667 0 88.5 4.5 113.5 13.5s47.167 23.833 66.5 44.5c19.333 19.333 34.166 42.333 44.499 69s15.5 57 15.5 91c0 34.667 -5.66699 64 -17 88s-27.666 41.667 -48.999 53
c-11.333 6 -28.166 10.833 -50.499 14.5s-46.5 5.5 -72.5 5.5h-235zM1165 1044h155l-172 -1044h-155z" />
    <glyph glyph-name="afii10093" unicode="&#x44b;" horiz-adv-x="1396" 
d="M247 1044l156 -0.00195312l-68 -412h236c64 0 115 -4.66699 153 -14s70.333 -23.666 97 -42.999c32 -24 55 -53.667 69 -89s21 -78.666 21 -129.999c0 -58.667 -11.167 -113.167 -33.5 -163.5s-56.833 -92.833 -103.5 -127.5c-31.333 -23.333 -65 -40 -101 -50
s-89.667 -15 -161 -15h-437zM315 504.998l-64.001 -379h248c50.667 0 88.5 4.5 113.5 13.5s47.167 23.833 66.5 44.5c19.333 19.333 34.166 42.333 44.499 69s15.5 57 15.5 91c0 34.667 -5.66699 64 -17 88s-27.666 41.667 -48.999 53
c-11.333 6 -28.166 10.833 -50.499 14.5s-46.5 5.5 -72.5 5.5h-235zM1165 1044h155l-172 -1044h-155z" />
    <glyph glyph-name="afii10094" unicode="&#xfc;" horiz-adv-x="972" 
d="M247 1044l155.999 -0.000976562l-68 -412h230c64 0 115 -4.66699 153 -14s70.333 -23.666 97 -42.999c29.333 -21.333 51.333 -48.333 66 -81s22 -76.667 22 -132c0 -67.333 -11.667 -125.5 -35 -174.5s-56.666 -89.833 -99.999 -122.5c-31.333 -23.333 -65 -40 -101 -50
s-90 -15 -162 -15h-430zM314.999 504.999l-64.001 -379.002h242c48 0 85 4.5 111 13.5s49 23.833 69 44.5c19.333 19.333 34.166 42.333 44.499 69s15.5 57 15.5 91c0 34.667 -5.33301 63.334 -16 86.001s-26.667 40.334 -48 53.001c-13.333 8 -29.666 13.667 -48.999 17
s-44.666 5 -75.999 5h-229z" />
    <glyph glyph-name="afii10094" unicode="&#x44c;" horiz-adv-x="972" 
d="M247 1044l155.999 -0.000976562l-68 -412h230c64 0 115 -4.66699 153 -14s70.333 -23.666 97 -42.999c29.333 -21.333 51.333 -48.333 66 -81s22 -76.667 22 -132c0 -67.333 -11.667 -125.5 -35 -174.5s-56.666 -89.833 -99.999 -122.5c-31.333 -23.333 -65 -40 -101 -50
s-90 -15 -162 -15h-430zM314.999 504.999l-64.001 -379.002h242c48 0 85 4.5 111 13.5s49 23.833 69 44.5c19.333 19.333 34.166 42.333 44.499 69s15.5 57 15.5 91c0 34.667 -5.33301 63.334 -16 86.001s-26.667 40.334 -48 53.001c-13.333 8 -29.666 13.667 -48.999 17
s-44.666 5 -75.999 5h-229z" />
    <glyph glyph-name="afii10095" unicode="&#xfd;" horiz-adv-x="1011" 
d="M237 733l-141.003 27.999c18 42.667 41.167 82.167 69.5 118.5s59.833 67.166 94.5 92.499c40 30 85.5 52.833 136.5 68.5s111.833 23.5 182.5 23.5c60.667 0 113.167 -9.33301 157.5 -28s81.166 -44.667 110.499 -78c28 -31.333 49.667 -71 65 -119s23 -106.667 23 -176
c0 -84.667 -11.333 -166.5 -34 -245.5s-53.667 -147.5 -93 -205.5c-51.333 -76.667 -112.166 -134.5 -182.499 -173.5s-152.166 -58.5 -245.499 -58.5c-62 0 -114.333 7.16699 -157 21.5s-79.667 34.833 -111 61.5c-30.667 26.667 -55.667 58.667 -75 96
s-31.666 77 -36.999 119l147 35c3.33301 -27.333 10.666 -52.666 21.999 -75.999s25 -43 41 -59c21.333 -20.667 46.333 -36.5 75 -47.5s62 -16.5 100 -16.5c46.667 0 88.667 8 126 24s71 39.333 101 70c32 33.333 59.667 75.833 83 127.5s37.333 100.834 42 147.501h-371
l21 127h368c1.33301 10 2.33301 21 3 33s1 25.667 1 41c0 32.667 -3.33301 63 -10 91s-17 52 -31 72c-17.333 26.667 -40.166 47 -68.499 61s-62.166 21 -101.499 21c-38.667 0 -75.167 -5 -109.5 -15s-63.833 -24 -88.5 -42c-22 -15.333 -43 -35.333 -63 -60
s-36.667 -51 -50 -79z" />
    <glyph glyph-name="afii10095" unicode="&#x44d;" horiz-adv-x="1011" 
d="M237 733l-141.003 27.999c18 42.667 41.167 82.167 69.5 118.5s59.833 67.166 94.5 92.499c40 30 85.5 52.833 136.5 68.5s111.833 23.5 182.5 23.5c60.667 0 113.167 -9.33301 157.5 -28s81.166 -44.667 110.499 -78c28 -31.333 49.667 -71 65 -119s23 -106.667 23 -176
c0 -84.667 -11.333 -166.5 -34 -245.5s-53.667 -147.5 -93 -205.5c-51.333 -76.667 -112.166 -134.5 -182.499 -173.5s-152.166 -58.5 -245.499 -58.5c-62 0 -114.333 7.16699 -157 21.5s-79.667 34.833 -111 61.5c-30.667 26.667 -55.667 58.667 -75 96
s-31.666 77 -36.999 119l147 35c3.33301 -27.333 10.666 -52.666 21.999 -75.999s25 -43 41 -59c21.333 -20.667 46.333 -36.5 75 -47.5s62 -16.5 100 -16.5c46.667 0 88.667 8 126 24s71 39.333 101 70c32 33.333 59.667 75.833 83 127.5s37.333 100.834 42 147.501h-371
l21 127h368c1.33301 10 2.33301 21 3 33s1 25.667 1 41c0 32.667 -3.33301 63 -10 91s-17 52 -31 72c-17.333 26.667 -40.166 47 -68.499 61s-62.166 21 -101.499 21c-38.667 0 -75.167 -5 -109.5 -15s-63.833 -24 -88.5 -42c-22 -15.333 -43 -35.333 -63 -60
s-36.667 -51 -50 -79z" />
    <glyph glyph-name="afii10096" unicode="&#xfe;" horiz-adv-x="1476" 
d="M331 608l165.998 -0.00195312c12.667 62.667 33.834 121.667 63.501 177s65.167 103.333 106.5 144c46.667 46.667 96.834 80.834 150.501 102.501s116.167 32.5 187.5 32.5c64 0 118.167 -9.16699 162.5 -27.5s83.833 -46.5 118.5 -84.5c36 -40 64 -88.833 84 -146.5
s30 -122.167 30 -193.5c0 -91.333 -15.833 -181.5 -47.5 -270.5s-79.167 -164.833 -142.5 -227.5c-48 -47.333 -98.5 -81.5 -151.5 -102.5s-111.833 -31.5 -176.5 -31.5c-81.333 0 -148.333 13.333 -201 40s-95.667 66.334 -129 119.001
c-24 38.667 -42.833 84.5 -56.5 137.5s-20.5 104.833 -20.5 155.5c0 8 0.166992 16 0.5 24s0.833008 16.333 1.5 25h-168l-78 -481h-156l170 1044h156zM1003 928.998c-47.333 0 -90.335 -8.33398 -129.002 -25.001s-74 -43.667 -106 -81
c-41.333 -47.333 -73.666 -109 -96.999 -185s-35 -149 -35 -219c0 -92 20.667 -165.833 62 -221.5s101.333 -83.5 180 -83.5c44.667 0 85.834 9.5 123.501 28.5s70.167 45.167 97.5 78.5c33.333 39.333 61.833 97 85.5 173s35.5 146.667 35.5 212
c0 50 -4.5 95.167 -13.5 135.5s-23.5 74.833 -43.5 103.5s-43.167 49.834 -69.5 63.501s-56.5 20.5 -90.5 20.5z" />
    <glyph glyph-name="afii10096" unicode="&#x44e;" horiz-adv-x="1476" 
d="M331 608l165.998 -0.00195312c12.667 62.667 33.834 121.667 63.501 177s65.167 103.333 106.5 144c46.667 46.667 96.834 80.834 150.501 102.501s116.167 32.5 187.5 32.5c64 0 118.167 -9.16699 162.5 -27.5s83.833 -46.5 118.5 -84.5c36 -40 64 -88.833 84 -146.5
s30 -122.167 30 -193.5c0 -91.333 -15.833 -181.5 -47.5 -270.5s-79.167 -164.833 -142.5 -227.5c-48 -47.333 -98.5 -81.5 -151.5 -102.5s-111.833 -31.5 -176.5 -31.5c-81.333 0 -148.333 13.333 -201 40s-95.667 66.334 -129 119.001
c-24 38.667 -42.833 84.5 -56.5 137.5s-20.5 104.833 -20.5 155.5c0 8 0.166992 16 0.5 24s0.833008 16.333 1.5 25h-168l-78 -481h-156l170 1044h156zM1003 928.998c-47.333 0 -90.335 -8.33398 -129.002 -25.001s-74 -43.667 -106 -81
c-41.333 -47.333 -73.666 -109 -96.999 -185s-35 -149 -35 -219c0 -92 20.667 -165.833 62 -221.5s101.333 -83.5 180 -83.5c44.667 0 85.834 9.5 123.501 28.5s70.167 45.167 97.5 78.5c33.333 39.333 61.833 97 85.5 173s35.5 146.667 35.5 212
c0 50 -4.5 95.167 -13.5 135.5s-23.5 74.833 -43.5 103.5s-43.167 49.834 -69.5 63.501s-56.5 20.5 -90.5 20.5z" />
    <glyph glyph-name="afii10097" unicode="&#xff;" horiz-adv-x="1036" 
d="M966 1044l-170.001 -1044h-155l69 434h-221l-293 -434h-186l323 460c-26.667 6 -52.667 16 -78 30s-45.666 30.667 -60.999 50c-16.667 20.667 -30 47.167 -40 79.5s-15 63.166 -15 92.499c0 43.333 10.167 87.166 30.5 131.499s49.833 81.833 88.5 112.5
c36 29.333 79.167 51.333 129.5 66s108.833 22 175.5 22h403zM787.999 917.002l-218.999 0.000976562c-43.333 0 -79 -3.83301 -107 -11.5s-52.333 -19.5 -73 -35.5c-24 -18.667 -42.333 -41.167 -55 -67.5s-19 -56.5 -19 -90.5c0 -26 3.83301 -48.333 11.5 -67
s20.167 -34.334 37.5 -47.001c17.333 -13.333 39.166 -22.833 65.499 -28.5s61.833 -8.5 106.5 -8.5h195z" />
    <glyph glyph-name="afii10097" unicode="&#x44f;" horiz-adv-x="1036" 
d="M966 1044l-170.001 -1044h-155l69 434h-221l-293 -434h-186l323 460c-26.667 6 -52.667 16 -78 30s-45.666 30.667 -60.999 50c-16.667 20.667 -30 47.167 -40 79.5s-15 63.166 -15 92.499c0 43.333 10.167 87.166 30.5 131.499s49.833 81.833 88.5 112.5
c36 29.333 79.167 51.333 129.5 66s108.833 22 175.5 22h403zM787.999 917.002l-218.999 0.000976562c-43.333 0 -79 -3.83301 -107 -11.5s-52.333 -19.5 -73 -35.5c-24 -18.667 -42.333 -41.167 -55 -67.5s-19 -56.5 -19 -90.5c0 -26 3.83301 -48.333 11.5 -67
s20.167 -34.334 37.5 -47.001c17.333 -13.333 39.166 -22.833 65.499 -28.5s61.833 -8.5 106.5 -8.5h195z" />
    <glyph glyph-name="afii10059" unicode="&#x152;" horiz-adv-x="2043" 
d="M323 1404h176l-98 -585h655l99 585h176l-95 -600h304c138 0 243.5 -29 316.5 -87s109.5 -144.333 109.5 -259c0 -133.333 -44.333 -243 -133 -329s-215 -129 -379 -129h-533l111 667h-656l-110 -667h-176zM1216 653l-82 -502h285c119.333 0 208.833 24.5 268.5 73.5
s89.5 121.5 89.5 217.5c0 66 -20.5 117.667 -61.5 155s-111.167 56 -210.5 56h-289z" />
    <glyph glyph-name="afii10059" unicode="&#x40a;" horiz-adv-x="2043" 
d="M323 1404h176l-98 -585h655l99 585h176l-95 -600h304c138 0 243.5 -29 316.5 -87s109.5 -144.333 109.5 -259c0 -133.333 -44.333 -243 -133 -329s-215 -129 -379 -129h-533l111 667h-656l-110 -667h-176zM1216 653l-82 -502h285c119.333 0 208.833 24.5 268.5 73.5
s89.5 121.5 89.5 217.5c0 66 -20.5 117.667 -61.5 155s-111.167 56 -210.5 56h-289z" />
    <glyph glyph-name="afii10107" unicode="&#x153;" horiz-adv-x="1630" 
d="M813 606l73 438.001h156l-68 -412h287c66 0 117.667 -7 155 -21s67 -33.667 89 -59c16.667 -18.667 29.667 -41.834 39 -69.501s14 -58.167 14 -91.5c0 -62.667 -13.167 -122.5 -39.5 -179.5s-63.833 -103.833 -112.5 -140.5c-30 -22.667 -63 -40.167 -99 -52.5
s-77.333 -18.5 -124 -18.5h-469l78 479h-483l-78 -479h-156l172 1044h156l-74 -438h484zM952 505.001l-61.998 -378.998h244c44 0 77.667 4 101 12s45.666 21.333 66.999 40c25.333 22 45.666 50 60.999 84s23 68.667 23 104c0 23.333 -4 44.166 -12 62.499
s-19.667 33.166 -35 44.499c-14 10 -33.333 17.833 -58 23.5s-51 8.5 -79 8.5h-250z" />
    <glyph glyph-name="afii10107" unicode="&#x45a;" horiz-adv-x="1630" 
d="M813 606l73 438.001h156l-68 -412h287c66 0 117.667 -7 155 -21s67 -33.667 89 -59c16.667 -18.667 29.667 -41.834 39 -69.501s14 -58.167 14 -91.5c0 -62.667 -13.167 -122.5 -39.5 -179.5s-63.833 -103.833 -112.5 -140.5c-30 -22.667 -63 -40.167 -99 -52.5
s-77.333 -18.5 -124 -18.5h-469l78 479h-483l-78 -479h-156l172 1044h156l-74 -438h484zM952 505.001l-61.998 -378.998h244c44 0 77.667 4 101 12s45.666 21.333 66.999 40c25.333 22 45.666 50 60.999 84s23 68.667 23 104c0 23.333 -4 44.166 -12 62.499
s-19.667 33.166 -35 44.499c-14 10 -33.333 17.833 -58 23.5s-51 8.5 -79 8.5h-250z" />
    <glyph glyph-name="afii10058" unicode="&#x160;" horiz-adv-x="1951" 
d="M1261 1404l-93.999 -599.999h303c138 0 243.5 -29 316.5 -87s109.5 -144.333 109.5 -259c0 -133.333 -44.167 -243 -132.5 -329s-214.833 -129 -379.5 -129h-533l209 1253h-424c-36 -173.333 -69 -320 -99 -440s-59.667 -226.667 -89 -320
c-40.667 -129.333 -86.167 -227 -136.5 -293s-109.833 -116.333 -178.5 -151c-27.333 -14 -56.333 -25.5 -87 -34.5s-61 -13.833 -91 -14.5h-12.5h-13.5l28 165h9c39.333 0 79.833 12.667 121.5 38s78.5 60.666 110.5 105.999c32 44.667 62.5 110.667 91.5 198
s62.167 208.333 99.5 363l58.5 256.5c16.333 75 30.166 142.5 41.499 202.5l14 75h758zM1146 653.001l-82 -502h285c120 0 209.833 24.5 269.5 73.5s89.5 121.5 89.5 217.5c0 66 -20.5 117.667 -61.5 155s-111.5 56 -211.5 56h-289z" />
    <glyph glyph-name="afii10058" unicode="&#x409;" horiz-adv-x="1951" 
d="M1261 1404l-93.999 -599.999h303c138 0 243.5 -29 316.5 -87s109.5 -144.333 109.5 -259c0 -133.333 -44.167 -243 -132.5 -329s-214.833 -129 -379.5 -129h-533l209 1253h-424c-36 -173.333 -69 -320 -99 -440s-59.667 -226.667 -89 -320
c-40.667 -129.333 -86.167 -227 -136.5 -293s-109.833 -116.333 -178.5 -151c-27.333 -14 -56.333 -25.5 -87 -34.5s-61 -13.833 -91 -14.5h-12.5h-13.5l28 165h9c39.333 0 79.833 12.667 121.5 38s78.5 60.666 110.5 105.999c32 44.667 62.5 110.667 91.5 198
s62.167 208.333 99.5 363l58.5 256.5c16.333 75 30.166 142.5 41.499 202.5l14 75h758zM1146 653.001l-82 -502h285c120 0 209.833 24.5 269.5 73.5s89.5 121.5 89.5 217.5c0 66 -20.5 117.667 -61.5 155s-111.5 56 -211.5 56h-289z" />
    <glyph glyph-name="afii10106" unicode="&#x161;" horiz-adv-x="1568" 
d="M374 1044l621 0.000976562l-68 -412h234c67.333 0 118.833 -5 154.5 -15s66.834 -26 93.501 -48c30 -25.333 52.167 -56 66.5 -92s21.5 -76.333 21.5 -121c0 -40 -5.66699 -78.833 -17 -116.5s-28.333 -71.834 -51 -102.501c-32 -44.667 -71.5 -78.667 -118.5 -102
s-108.5 -35 -184.5 -35h-459l150 917h-328c-13.333 -72 -32.833 -165 -58.5 -279s-45.834 -197.667 -60.501 -251c-26 -95.333 -59.5 -171.833 -100.5 -229.5s-94.167 -100.834 -159.5 -129.501c-18 -8 -34 -13.833 -48 -17.5s-51.667 -7.16699 -113 -10.5l23 141
c24 0 47.333 3.83301 70 11.5s44.667 18.834 66 33.501c36 24.667 65.333 58.667 88 102s50 135 82 275l17 76c4.66699 21.333 16.667 82 36 182zM905 505.001l-62 -379h244c49.333 0 86.333 4.5 111 13.5s47 23.833 67 44.5c20.667 20.667 36.167 44.834 46.5 72.501
s15.5 56.834 15.5 87.501c0 35.333 -4.66699 62.666 -14 81.999s-23.333 35.666 -42 48.999c-14.667 10 -32.167 17.5 -52.5 22.5s-47.833 7.5 -82.5 7.5h-231z" />
    <glyph glyph-name="afii10106" unicode="&#x459;" horiz-adv-x="1568" 
d="M374 1044l621 0.000976562l-68 -412h234c67.333 0 118.833 -5 154.5 -15s66.834 -26 93.501 -48c30 -25.333 52.167 -56 66.5 -92s21.5 -76.333 21.5 -121c0 -40 -5.66699 -78.833 -17 -116.5s-28.333 -71.834 -51 -102.501c-32 -44.667 -71.5 -78.667 -118.5 -102
s-108.5 -35 -184.5 -35h-459l150 917h-328c-13.333 -72 -32.833 -165 -58.5 -279s-45.834 -197.667 -60.501 -251c-26 -95.333 -59.5 -171.833 -100.5 -229.5s-94.167 -100.834 -159.5 -129.501c-18 -8 -34 -13.833 -48 -17.5s-51.667 -7.16699 -113 -10.5l23 141
c24 0 47.333 3.83301 70 11.5s44.667 18.834 66 33.501c36 24.667 65.333 58.667 88 102s50 135 82 275l17 76c4.66699 21.333 16.667 82 36 182zM905 505.001l-62 -379h244c49.333 0 86.333 4.5 111 13.5s47 23.833 67 44.5c20.667 20.667 36.167 44.834 46.5 72.501
s15.5 56.834 15.5 87.501c0 35.333 -4.66699 62.666 -14 81.999s-23.333 35.666 -42 48.999c-14.667 10 -32.167 17.5 -52.5 22.5s-47.833 7.5 -82.5 7.5h-231z" />
    <glyph glyph-name="afii10193" unicode="&#x178;" horiz-adv-x="1140" 
d="M245 1044h156l-150 -918h508l150 918h155l-170 -1044h-337l-45 -280h-144l45 280h-338z" />
    <glyph glyph-name="afii10193" unicode="&#x45f;" horiz-adv-x="1140" 
d="M245 1044h156l-150 -918h508l150 918h155l-170 -1044h-337l-45 -280h-144l45 280h-338z" />
    <glyph glyph-name="afii10100" unicode="&#x192;" horiz-adv-x="799" 
d="M247 1044h633l-20 -131h-475l-152 -913h-158zM843 1382l-407 -193l-45 82l391 232z" />
    <glyph glyph-name="afii10100" unicode="&#x453;" horiz-adv-x="799" 
d="M247 1044h633l-20 -131h-475l-152 -913h-158zM843 1382l-407 -193l-45 82l391 232z" />
    <glyph glyph-name="Accent" unicode="&#x2c6;" horiz-adv-x="1062" 
d="M978 1382l-407 -193l-45 82l391 232z" />
    <glyph glyph-name="accent" unicode="&#x2dc;" horiz-adv-x="1048" 
d="M1009 1701l-393 -178l-45 82l377 217z" />
    <glyph glyph-name="endash" unicode="&#x2013;" horiz-adv-x="1239" 
d="M1144 589l-20 -127h-1024l20 127h1024z" />
    <glyph glyph-name="emdash" unicode="&#x2014;" horiz-adv-x="2058" 
d="M1964 589l-21 -127h-1843l20 127h1844z" />
    <glyph glyph-name="quoteleft" unicode="&#x2018;" horiz-adv-x="493" 
d="M221 954l28 176l207 274h78l-160 -247h84l-33 -203h-204z" />
    <glyph glyph-name="quoteright" unicode="&#x2019;" horiz-adv-x="473" 
d="M493 1404l-29 -176l-206 -274h-78l159 248h-83l32 202h205z" />
    <glyph glyph-name="quotesinglbase" unicode="&#x201a;" horiz-adv-x="471" 
d="M286 202l-28 -176l-207 -273h-77l159 247h-84l32 202h205z" />
    <glyph glyph-name="quotedblleft" unicode="&#x201c;" horiz-adv-x="813" 
d="M534 956l29 176l207 272h77l-159 -245h84l-33 -203h-205zM225 956l28 176l207 272h78l-160 -245h84l-32 -203h-205z" />
    <glyph glyph-name="quotedblright" unicode="&#x201d;" horiz-adv-x="794" 
d="M503 1404l-28 -176l-207 -272h-78l160 246h-84l33 202h204zM815 1404l-29 -176l-207 -272h-78l160 246h-84l33 202h205z" />
    <glyph glyph-name="quotedblbase" unicode="&#x201e;" horiz-adv-x="792" 
d="M296 202l-28 -176l-207 -273h-77l159 247h-84l33 202h204zM608 202l-29 -176l-207 -273h-78l160 247h-84l33 202h205z" />
    <glyph glyph-name="dagger" unicode="&#x2020;" horiz-adv-x="1032" 
d="M684 1380l121.998 23.998l-159 -440l446 76l-33 -92l2 -92l-424 51c10 -14.667 20.833 -29.5 32.5 -44.5l39.5 -49.5c-34.667 -73.333 -77.667 -216.666 -129 -429.999s-95.666 -426.333 -132.999 -639l-16 -94h-62l17 94c20 116.667 40.333 275.834 61 477.501
s31 339.834 31 414.501c0 33.333 -0.666992 66.666 -2 99.999s-2.66602 59 -3.99902 77c14 14 29.167 28.167 45.5 42.5l58.5 51.5l-444 -51l34 92l-4 92l422 -76l-16 440z" />
    <glyph glyph-name="daggerdbl" unicode="&#x2021;" horiz-adv-x="1079" 
d="M722 1372l107 32.001l-135 -387l446 76l-33 -96l3 -96l-424 61l26 -106l-65 -132l446 76l-35 -96l4 -96l-426 59l38.5 -39.5l39.5 -38.5c-41.333 -94 -85.5 -229.167 -132.5 -405.5s-80.5 -331.5 -100.5 -465.5l-10 -68h-62l10 68c28 185.333 46.5 354.166 55.5 506.499
s8.5 273.833 -1.5 364.5l70.5 52c10.333 8 20.833 16.667 31.5 26l-442 -59l32 96l-2 96l422 -76l-24 132l63 106l-444 -61l35 96l-5 96l422 -76l-8 387z" />
    <glyph glyph-name="bullet" unicode="&#x2022;" horiz-adv-x="1542" 
d="M784 1050c95.333 0 177.166 -34.167 245.499 -102.5s102.5 -150.166 102.5 -245.499s-34.167 -177.166 -102.5 -245.499s-150.166 -102.5 -245.499 -102.5c-96 0 -178 34.167 -246 102.5s-102 150.166 -102 245.499s34 177.166 102 245.499s150 102.5 246 102.5z" />
    <glyph glyph-name="bullet" unicode="&#xf000;" horiz-adv-x="1542" 
d="M784 1050c95.333 0 177.166 -34.167 245.499 -102.5s102.5 -150.166 102.5 -245.499s-34.167 -177.166 -102.5 -245.499s-150.166 -102.5 -245.499 -102.5c-96 0 -178 34.167 -246 102.5s-102 150.166 -102 245.499s34 177.166 102 245.499s150 102.5 246 102.5z" />
    <glyph glyph-name="ellipsis" unicode="&#x2026;" horiz-adv-x="1886" 
d="M323 229l-37 -229h-225l37 229h225zM1005 229l-37 -229h-225l37 229h225zM1687 229l-37 -229h-225l37 229h225z" />
    <glyph glyph-name="perthousand" unicode="&#x2030;" horiz-adv-x="2191" 
d="M503 1425c38 0 70.998 -5.16699 98.998 -15.5s52.333 -27.833 73 -52.5c19.333 -22 34.166 -49 44.499 -81s15.5 -70.333 15.5 -115c0 -64 -10.667 -130.167 -32 -198.5s-51.666 -125.166 -90.999 -170.499c-30 -34.667 -64.167 -60.667 -102.5 -78s-81.5 -26 -129.5 -26
c-39.333 0 -74.5 7.16699 -105.5 21.5s-57.167 37.166 -78.5 68.499c-15.333 22 -27.666 50 -36.999 84s-14 70 -14 108c0 59.333 11.333 121.333 34 186s52.334 118 89.001 160c33.333 38.667 69.333 66.5 108 83.5s81 25.5 127 25.5zM486.998 1318
c-40.667 0 -75.5 -12.832 -104.5 -38.499s-52.833 -63.167 -71.5 -112.5c-12.667 -32 -22.334 -65.5 -29.001 -100.5s-10 -71.167 -10 -108.5c0 -29.333 2.5 -53.333 7.5 -72s12.167 -34.334 21.5 -47.001c10 -14 23.333 -25 40 -33s35.334 -12 56.001 -12
c36 0 68.5 12.167 97.5 36.5s53.833 62.833 74.5 115.5c13.333 34 23.166 66.833 29.499 98.5s9.5 63.5 9.5 95.5c0 33.333 -1.66699 59 -5 77s-8.66602 33.333 -15.999 46c-10 17.333 -23.333 30.833 -40 40.5s-36.667 14.5 -60 14.5zM1222 1404h150l-1073 -1404h-150z
M1138 716.001c38 0 70.8311 -5.1709 98.498 -15.5039s52.167 -27.5 73.5 -51.5c19.333 -22.667 34.166 -50 44.499 -82s15.5 -70.333 15.5 -115c0 -64 -10.667 -130.167 -32 -198.5s-51.666 -125.166 -90.999 -170.499c-30 -34.667 -64.167 -60.5 -102.5 -77.5
s-81.5 -25.5 -129.5 -25.5c-39.333 0 -74.5 7.16699 -105.5 21.5s-57.167 36.833 -78.5 67.5c-15.333 22.667 -27.666 51 -36.999 85s-14 70 -14 108c0 58.667 11.333 120.334 34 185.001s52.334 118.334 89.001 161.001c33.333 38.667 69.333 66.334 108 83.001
s81 25 127 25zM1122 609.997c-40.667 0 -75.501 -13.001 -104.501 -39.001s-52.833 -63.667 -71.5 -113c-12.667 -32 -22.334 -65.5 -29.001 -100.5s-10 -71.167 -10 -108.5c0 -29.333 2.33301 -53.166 7 -71.499s11.667 -33.833 21 -46.5c10.667 -14 24.334 -25 41.001 -33
s35.334 -12 56.001 -12c36 0 68.5 12.167 97.5 36.5s53.833 62.5 74.5 114.5c13.333 34 23.166 67 29.499 99s9.5 64 9.5 96c0 33.333 -1.66699 58.833 -5 76.5s-8.66602 33.167 -15.999 46.5c-10 17.333 -23.333 30.833 -40 40.5s-36.667 14.5 -60 14.5zM1878 715.996
c37.333 0 69.9941 -5.1709 97.9941 -15.5039s52.667 -27.5 74 -51.5c19.333 -22.667 34 -50 44 -82s15 -70.333 15 -115c0 -64 -10.667 -130.167 -32 -198.5s-51.666 -125.166 -90.999 -170.499c-30 -34.667 -64 -60.5 -102 -77.5s-81 -25.5 -129 -25.5
c-39.333 0 -74.666 7.16699 -105.999 21.5s-57.666 36.833 -78.999 67.5c-15.333 22.667 -27.666 51 -36.999 85s-14 70 -14 108c0 58.667 11.333 120.334 34 185.001s52.334 118.334 89.001 161.001c33.333 38.667 69.333 66.334 108 83.001s81.334 25 128.001 25z
M1860.99 609.992c-40.667 0 -75.332 -13.001 -103.999 -39.001s-52.667 -63.667 -72 -113c-12.667 -32 -22.334 -65.5 -29.001 -100.5s-10 -71.167 -10 -108.5c0 -29.333 2.5 -53.166 7.5 -71.499s12.167 -33.833 21.5 -46.5c10 -14 23.333 -25 40 -33
s35.334 -12 56.001 -12c36 0 68.5 12.167 97.5 36.5s53.833 62.5 74.5 114.5c13.333 34 23.166 67 29.499 99s9.5 64 9.5 96c0 33.333 -1.5 58.833 -4.5 76.5s-8.5 33.167 -16.5 46.5c-9.33301 17.333 -22.5 30.833 -39.5 40.5s-37.167 14.5 -60.5 14.5z" />
    <glyph glyph-name="guilsinglleft" unicode="&#x2039;" horiz-adv-x="450" 
d="M243 522l62 -295h-90l-132 295l222 295h90z" />
    <glyph glyph-name="guilsinglright" unicode="&#x203a;" horiz-adv-x="454" 
d="M208 522l-61 295h90l131 -295l-225 -295h-90z" />
    <glyph glyph-name="trademark" unicode="&#x2122;" horiz-adv-x="1726" 
d="M397 587h-131l116 715h-245l16 102h623l-17 -102h-245zM1593 587h-127l106 649l-366 -649h-90l-156 649l-106 -649h-113l133 817h180l150 -620l344 620h178z" />
    <glyph glyph-name="periodcentered" unicode="&#x2219;" horiz-adv-x="524" 
d="M393 704l-37 -229h-225l36 229h226z" />
    </font>
</defs>
</svg>
